Giphurs-ExtraBlackItalic.ufo
<glyph name="exclam" format="2">
  <advance width="552"/>
  <unicode hex="0021"/>
  <outline>
    <contour>
      <point x="-23" y="160" type="curve" smooth="yes"/>
      <point x="-3" y="271"/>
      <point x="102" y="360"/>
      <point x="213" y="360" type="curve" smooth="yes"/>
      <point x="324" y="360"/>
      <point x="397" y="271"/>
      <point x="377" y="160" type="curve" smooth="yes"/>
      <point x="357" y="49"/>
      <point x="253" y="-40"/>
      <point x="142" y="-40" type="curve" smooth="yes"/>
      <point x="31" y="-40"/>
      <point x="-43" y="49"/>
    </contour>
    <contour>
      <point x="204" y="1480" type="line"/>
      <point x="616" y="1480" type="line"/>
      <point x="389" y="452" type="line"/>
      <point x="69" y="452" type="line"/>
    </contour>
  </outline>
</glyph>
<glyph name="quotedbl" format="2">
  <advance width="1036"/>
  <unicode hex="0022"/>
  <outline>
    <contour>
      <point x="793" y="968" type="line"/>
      <point x="859" y="1480" type="line"/>
      <point x="1227" y="1480" type="line"/>
      <point x="1113" y="968" type="line"/>
    </contour>
    <contour>
      <point x="265" y="968" type="line"/>
      <point x="331" y="1480" type="line"/>
      <point x="699" y="1480" type="line"/>
      <point x="585" y="968" type="line"/>
    </contour>
  </outline>
</glyph>
<glyph name="numbersign" format="2">
  <advance width="1602"/>
  <unicode hex="0023"/>
  <outline>
    <contour>
      <point x="126" y="320" type="line"/>
      <point x="183" y="640" type="line"/>
      <point x="1599" y="640" type="line"/>
      <point x="1542" y="320" type="line"/>
    </contour>
    <contour>
      <point x="264" y="840" type="line"/>
      <point x="321" y="1160" type="line"/>
      <point x="1737" y="1160" type="line"/>
      <point x="1680" y="840" type="line"/>
    </contour>
    <contour>
      <point x="1274" y="1480" type="line"/>
      <point x="1640" y="1480" type="line"/>
      <point x="1146" y="0" type="line"/>
      <point x="1078" y="0"/>
      <point x="848" y="0"/>
      <point x="780" y="0" type="curve"/>
    </contour>
    <contour>
      <point x="717" y="1480" type="line"/>
      <point x="1083" y="1480" type="line"/>
      <point x="589" y="0" type="line"/>
      <point x="521" y="0"/>
      <point x="291" y="0"/>
      <point x="223" y="0" type="curve"/>
    </contour>
  </outline>
</glyph>
<glyph name="dollar" format="2">
  <advance width="1327"/>
  <unicode hex="0024"/>
  <outline>
    <contour>
      <point x="739" y="1174" type="curve" smooth="yes"/>
      <point x="599" y="1174"/>
      <point x="527" y="1132"/>
      <point x="513" y="1052" type="curve" smooth="yes"/>
      <point x="502" y="992"/>
      <point x="597" y="973"/>
      <point x="698" y="945" type="curve" smooth="yes"/>
      <point x="1048" y="847"/>
      <point x="1274" y="725"/>
      <point x="1225" y="445" type="curve" smooth="yes"/>
      <point x="1176" y="165"/>
      <point x="936" y="-30"/>
      <point x="526" y="-30" type="curve" smooth="yes"/>
      <point x="221" y="-30"/>
      <point x="-22" y="91"/>
      <point x="-17" y="361" type="curve"/>
      <point x="374" y="461" type="line"/>
      <point x="356" y="361"/>
      <point x="435" y="306"/>
      <point x="585" y="306" type="curve" smooth="yes"/>
      <point x="735" y="306"/>
      <point x="829" y="355"/>
      <point x="845" y="445" type="curve" smooth="yes"/>
      <point x="861" y="535"/>
      <point x="734" y="549"/>
      <point x="633" y="577" type="curve" smooth="yes"/>
      <point x="301" y="670"/>
      <point x="87" y="792"/>
      <point x="133" y="1052" type="curve" smooth="yes"/>
      <point x="179" y="1312"/>
      <point x="428" y="1510"/>
      <point x="798" y="1510" type="curve" smooth="yes"/>
      <point x="1103" y="1510"/>
      <point x="1322" y="1394"/>
      <point x="1317" y="1124" type="curve"/>
      <point x="926" y="1024" type="line"/>
      <point x="944" y="1124"/>
      <point x="879" y="1174"/>
    </contour>
    <contour>
      <point x="976" y="1660" type="line"/>
      <point x="652" y="-180" type="line"/>
      <point x="348" y="-180" type="line"/>
      <point x="672" y="1660" type="line"/>
    </contour>
  </outline>
</glyph>
<glyph name="percent" format="2">
  <advance width="2144"/>
  <unicode hex="0025"/>
  <outline>
    <contour>
      <point x="465" y="1116" type="curve" smooth="yes"/>
      <point x="456" y="1066"/>
      <point x="485" y="1032"/>
      <point x="535" y="1032" type="curve" smooth="yes"/>
      <point x="585" y="1032"/>
      <point x="625" y="1066"/>
      <point x="634" y="1116" type="curve" smooth="yes"/>
      <point x="643" y="1166"/>
      <point x="615" y="1200"/>
      <point x="565" y="1200" type="curve" smooth="yes"/>
      <point x="515" y="1200"/>
      <point x="474" y="1166"/>
    </contour>
    <contour>
      <point x="116" y="1116" type="curve" smooth="yes"/>
      <point x="156" y="1341"/>
      <point x="397" y="1520"/>
      <point x="622" y="1520" type="curve" smooth="yes"/>
      <point x="847" y="1520"/>
      <point x="1024" y="1341"/>
      <point x="984" y="1116" type="curve" smooth="yes"/>
      <point x="944" y="891"/>
      <point x="704" y="712"/>
      <point x="479" y="712" type="curve" smooth="yes"/>
      <point x="254" y="712"/>
      <point x="76" y="891"/>
    </contour>
    <contour>
      <point x="1509" y="364" type="curve" smooth="yes"/>
      <point x="1500" y="314"/>
      <point x="1529" y="280"/>
      <point x="1579" y="280" type="curve" smooth="yes"/>
      <point x="1629" y="280"/>
      <point x="1669" y="314"/>
      <point x="1678" y="364" type="curve" smooth="yes"/>
      <point x="1687" y="414"/>
      <point x="1659" y="448"/>
      <point x="1609" y="448" type="curve" smooth="yes"/>
      <point x="1559" y="448"/>
      <point x="1518" y="414"/>
    </contour>
    <contour>
      <point x="1160" y="364" type="curve" smooth="yes"/>
      <point x="1200" y="589"/>
      <point x="1440" y="768"/>
      <point x="1665" y="768" type="curve" smooth="yes"/>
      <point x="1890" y="768"/>
      <point x="2068" y="589"/>
      <point x="2028" y="364" type="curve" smooth="yes"/>
      <point x="1988" y="139"/>
      <point x="1747" y="-40"/>
      <point x="1522" y="-40" type="curve" smooth="yes"/>
      <point x="1297" y="-40"/>
      <point x="1120" y="139"/>
    </contour>
    <contour>
      <point x="1701" y="1302" type="line"/>
      <point x="720" y="0" type="line"/>
      <point x="443" y="178" type="line"/>
      <point x="1424" y="1480" type="line"/>
    </contour>
  </outline>
</glyph>
<glyph name="ampersand" format="2">
  <advance width="1498"/>
  <unicode hex="0026"/>
  <outline>
    <contour>
      <point x="860" y="1190" type="curve" smooth="yes"/>
      <point x="724" y="1190"/>
      <point x="719" y="1080"/>
      <point x="719" y="1064" type="curve" smooth="yes"/>
      <point x="719" y="1041"/>
      <point x="728" y="1020"/>
      <point x="750" y="989" type="curve" smooth="yes"/>
      <point x="1448" y="0" type="line"/>
      <point x="1020" y="0" type="line"/>
      <point x="434" y="815" type="line"/>
      <point x="434" y="815"/>
      <point x="356" y="904"/>
      <point x="356" y="1030" type="curve" smooth="yes"/>
      <point x="356" y="1191"/>
      <point x="507" y="1510"/>
      <point x="916" y="1510" type="curve" smooth="yes"/>
      <point x="1237" y="1510"/>
      <point x="1336" y="1333"/>
      <point x="1336" y="1195" type="curve" smooth="yes"/>
      <point x="1336" y="1178"/>
      <point x="1335" y="1162"/>
      <point x="1332" y="1147" type="curve"/>
      <point x="965" y="1107" type="line"/>
      <point x="966" y="1114"/>
      <point x="967" y="1120"/>
      <point x="967" y="1126" type="curve" smooth="yes"/>
      <point x="967" y="1172"/>
      <point x="931" y="1190"/>
    </contour>
    <contour>
      <point x="743" y="290" type="curve" smooth="yes"/>
      <point x="1013" y="290"/>
      <point x="1151" y="517"/>
      <point x="1177" y="667" type="curve"/>
      <point x="1502" y="573" type="line"/>
      <point x="1432" y="288"/>
      <point x="1145" y="-30"/>
      <point x="645" y="-30" type="curve" smooth="yes"/>
      <point x="322" y="-30"/>
      <point x="116" y="91"/>
      <point x="116" y="335" type="curve" smooth="yes"/>
      <point x="116" y="618"/>
      <point x="324" y="727"/>
      <point x="824" y="989" type="curve" smooth="yes"/>
      <point x="881" y="1019"/>
      <point x="958" y="1067"/>
      <point x="965" y="1107" type="curve"/>
      <point x="1332" y="1147" type="line"/>
      <point x="1249" y="678"/>
      <point x="482" y="612"/>
      <point x="482" y="402" type="curve" smooth="yes"/>
      <point x="482" y="337"/>
      <point x="544" y="290"/>
    </contour>
  </outline>
</glyph>
<glyph name="quotesingle" format="2">
  <advance width="508"/>
  <unicode hex="0027"/>
  <outline>
    <contour>
      <point x="135" y="968" type="line"/>
      <point x="201" y="1480" type="line"/>
      <point x="569" y="1480" type="line"/>
      <point x="455" y="968" type="line"/>
    </contour>
  </outline>
</glyph>
<glyph name="parenleft" format="2">
  <advance width="877"/>
  <unicode hex="0028"/>
  <outline>
    <contour>
      <point x="1093" y="1369" type="line"/>
      <point x="889" y="1297"/>
      <point x="513" y="973"/>
      <point x="513" y="516" type="curve" smooth="yes"/>
      <point x="513" y="185"/>
      <point x="731" y="-6"/>
      <point x="843" y="-51" type="curve"/>
      <point x="624" y="-340" type="line"/>
      <point x="476" y="-274"/>
      <point x="148" y="-11"/>
      <point x="148" y="463" type="curve" smooth="yes"/>
      <point x="148" y="1100"/>
      <point x="675" y="1541"/>
      <point x="976" y="1658" type="curve"/>
    </contour>
  </outline>
</glyph>
<glyph name="parenright" format="2">
  <advance width="877"/>
  <unicode hex="0029"/>
  <outline>
    <contour>
      <point x="827" y="658" type="curve" smooth="yes"/>
      <point x="722" y="60"/>
      <point x="210" y="-265"/>
      <point x="17" y="-340" type="curve"/>
      <point x="-100" y="-51" type="line"/>
      <point x="45" y="0"/>
      <point x="393" y="240"/>
      <point x="467" y="658" type="curve" smooth="yes"/>
      <point x="541" y="1078"/>
      <point x="277" y="1318"/>
      <point x="150" y="1369" type="curve"/>
      <point x="369" y="1658" type="line"/>
      <point x="536" y="1583"/>
      <point x="933" y="1258"/>
    </contour>
  </outline>
</glyph>
<glyph name="asterisk" format="2">
  <advance width="1186"/>
  <unicode hex="002A"/>
  <outline>
    <contour>
      <point x="48" y="951" type="line"/>
      <point x="223" y="1301" type="line"/>
      <point x="671" y="1120" type="line"/>
      <point x="594" y="968" type="line"/>
      <point x="518" y="816" type="line"/>
    </contour>
    <contour>
      <point x="350" y="446" type="line"/>
      <point x="90" y="662" type="line"/>
      <point x="481" y="1062" type="line"/>
      <point x="594" y="968" type="line"/>
      <point x="706" y="874" type="line"/>
    </contour>
    <contour>
      <point x="990" y="662" type="line"/>
      <point x="654" y="446" type="line"/>
      <point x="448" y="874" type="line"/>
      <point x="594" y="968" type="line"/>
      <point x="739" y="1062" type="line"/>
    </contour>
    <contour>
      <point x="1083" y="1301" type="line"/>
      <point x="1134" y="951" type="line"/>
      <point x="616" y="816" type="line"/>
      <point x="594" y="968" type="line"/>
      <point x="571" y="1120" type="line"/>
    </contour>
    <contour>
      <point x="500" y="1480" type="line"/>
      <point x="868" y="1480" type="line"/>
      <point x="754" y="968" type="line"/>
      <point x="594" y="968" type="line"/>
      <point x="434" y="968" type="line"/>
    </contour>
  </outline>
</glyph>
<glyph name="plus" format="2">
  <advance width="1232"/>
  <unicode hex="002B"/>
  <outline>
    <contour>
      <point x="532" y="1207" type="line"/>
      <point x="892" y="1207" type="line"/>
      <point x="700" y="113" type="line"/>
      <point x="340" y="113" type="line"/>
    </contour>
    <contour>
      <point x="42" y="500" type="line"/>
      <point x="98" y="820" type="line"/>
      <point x="1190" y="820" type="line"/>
      <point x="1134" y="500" type="line"/>
    </contour>
  </outline>
</glyph>
<glyph name="comma" format="2">
  <advance width="500"/>
  <unicode hex="002C"/>
  <outline>
    <contour>
      <point x="82" y="170" type="curve" smooth="yes"/>
      <point x="82" y="281"/>
      <point x="171" y="370"/>
      <point x="282" y="370" type="curve" smooth="yes"/>
      <point x="393" y="370"/>
      <point x="482" y="251"/>
      <point x="482" y="170" type="curve" smooth="yes"/>
      <point x="482" y="59"/>
      <point x="393" y="-30"/>
      <point x="282" y="-30" type="curve" smooth="yes"/>
      <point x="171" y="-30"/>
      <point x="82" y="59"/>
    </contour>
    <contour>
      <point x="7" y="-141" type="line"/>
      <point x="26" y="-138"/>
      <point x="265" y="-99"/>
      <point x="265" y="54" type="curve" smooth="yes"/>
      <point x="265" y="101"/>
      <point x="249" y="170"/>
      <point x="249" y="170" type="curve"/>
      <point x="282" y="370" type="line"/>
      <point x="380" y="370"/>
      <point x="497" y="296"/>
      <point x="497" y="130" type="curve" smooth="yes"/>
      <point x="497" y="-241"/>
      <point x="87" y="-361"/>
      <point x="27" y="-371" type="curve"/>
    </contour>
  </outline>
</glyph>
<glyph name="hyphen" format="2">
  <advance width="1038"/>
  <unicode hex="002D"/>
  <outline>
    <contour>
      <point x="42" y="500" type="line"/>
      <point x="98" y="820" type="line"/>
      <point x="996" y="820" type="line"/>
      <point x="940" y="500" type="line"/>
    </contour>
  </outline>
</glyph>
<glyph name="period" format="2">
  <advance width="500"/>
  <unicode hex="002E"/>
  <outline>
    <contour>
      <point x="80" y="170" type="curve" smooth="yes"/>
      <point x="80" y="281"/>
      <point x="169" y="370"/>
      <point x="280" y="370" type="curve" smooth="yes"/>
      <point x="391" y="370"/>
      <point x="480" y="281"/>
      <point x="480" y="170" type="curve" smooth="yes"/>
      <point x="480" y="59"/>
      <point x="391" y="-30"/>
      <point x="280" y="-30" type="curve" smooth="yes"/>
      <point x="169" y="-30"/>
      <point x="80" y="59"/>
    </contour>
  </outline>
</glyph>
<glyph name="slash" format="2">
  <advance width="1211"/>
  <unicode hex="002F"/>
  <outline>
    <contour>
      <point x="1338" y="1640" type="line"/>
      <point x="253" y="-200" type="line"/>
      <point x="-127" y="-200" type="line"/>
      <point x="958" y="1640" type="line"/>
    </contour>
  </outline>
</glyph>
<glyph name="zero" format="2">
  <advance width="1232"/>
  <unicode hex="0030"/>
  <outline>
    <contour>
      <point x="423" y="740" type="curve" smooth="yes"/>
      <point x="371" y="445"/>
      <point x="406" y="306"/>
      <point x="539" y="306" type="curve" smooth="yes"/>
      <point x="672" y="306"/>
      <point x="757" y="445"/>
      <point x="809" y="740" type="curve" smooth="yes"/>
      <point x="861" y="1035"/>
      <point x="826" y="1174"/>
      <point x="693" y="1174" type="curve" smooth="yes"/>
      <point x="560" y="1174"/>
      <point x="475" y="1035"/>
    </contour>
    <contour>
      <point x="43" y="740" type="curve" smooth="yes"/>
      <point x="131" y="1240"/>
      <point x="392" y="1510"/>
      <point x="752" y="1510" type="curve" smooth="yes"/>
      <point x="1112" y="1510"/>
      <point x="1277" y="1240"/>
      <point x="1189" y="740" type="curve" smooth="yes"/>
      <point x="1101" y="240"/>
      <point x="840" y="-30"/>
      <point x="480" y="-30" type="curve" smooth="yes"/>
      <point x="120" y="-30"/>
      <point x="-45" y="240"/>
    </contour>
  </outline>
</glyph>
<glyph name="one" format="2">
  <advance width="1232"/>
  <unicode hex="0031"/>
  <outline>
    <contour>
      <point x="597" y="848" type="line"/>
      <point x="217" y="848" type="line"/>
      <point x="276" y="1184" type="line"/>
      <point x="372" y="1184" type="line" smooth="yes"/>
      <point x="546" y="1184"/>
      <point x="700" y="1300"/>
      <point x="726" y="1448" type="curve" smooth="yes"/>
      <point x="732" y="1480" type="line"/>
      <point x="1088" y="1480" type="line"/>
      <point x="1001" y="987"/>
      <point x="914" y="493"/>
      <point x="827" y="0" type="curve"/>
      <point x="447" y="0" type="line"/>
    </contour>
  </outline>
</glyph>
<glyph name="two" format="2">
  <advance width="1232"/>
  <unicode hex="0032"/>
  <outline>
    <contour>
      <point x="472" y="906" type="curve"/>
      <point x="99" y="990" type="line"/>
      <point x="155" y="1310"/>
      <point x="417" y="1510"/>
      <point x="753" y="1510" type="curve" smooth="yes"/>
      <point x="1089" y="1510"/>
      <point x="1279" y="1310"/>
      <point x="1230" y="1030" type="curve"/>
      <point x="850" y="1030" type="line"/>
      <point x="866" y="1120"/>
      <point x="789" y="1174"/>
      <point x="694" y="1174" type="curve" smooth="yes"/>
      <point x="579" y="1174"/>
      <point x="497" y="1090"/>
      <point x="479" y="990" type="curve" smooth="yes"/>
      <point x="469" y="932"/>
      <point x="472" y="906"/>
    </contour>
    <contour>
      <point x="-92" y="0" type="curve"/>
      <point x="-64" y="160"/>
      <point x="10" y="465"/>
      <point x="626" y="788" type="curve" smooth="yes"/>
      <point x="824" y="892"/>
      <point x="836" y="950"/>
      <point x="850" y="1030" type="curve"/>
      <point x="1230" y="1030" type="line"/>
      <point x="1179" y="739"/>
      <point x="974" y="628"/>
      <point x="669" y="468" type="curve" smooth="yes"/>
      <point x="383" y="318"/>
      <point x="304" y="90"/>
      <point x="288" y="0" type="curve"/>
      <point x="221" y="0"/>
      <point x="-25" y="0"/>
    </contour>
    <contour>
      <point x="247" y="336" type="line"/>
      <point x="1117" y="336" type="line"/>
      <point x="1058" y="0" type="line"/>
      <point x="288" y="0" type="line"/>
    </contour>
  </outline>
</glyph>
<glyph name="three" format="2">
  <advance width="1232"/>
  <unicode hex="0033"/>
  <outline>
    <contour>
      <point x="649" y="916" type="line" smooth="yes"/>
      <point x="741" y="916"/>
      <point x="818" y="973"/>
      <point x="831" y="1045" type="curve" smooth="yes"/>
      <point x="844" y="1117"/>
      <point x="787" y="1174"/>
      <point x="695" y="1174" type="curve" smooth="yes"/>
      <point x="579" y="1174"/>
      <point x="504" y="1117"/>
      <point x="487" y="1022" type="curve"/>
      <point x="142" y="1119" type="line"/>
      <point x="233" y="1389"/>
      <point x="486" y="1510"/>
      <point x="754" y="1510" type="curve" smooth="yes"/>
      <point x="1074" y="1510"/>
      <point x="1257" y="1306"/>
      <point x="1212" y="1051" type="curve" smooth="yes"/>
      <point x="1192" y="938"/>
      <point x="1135" y="840"/>
      <point x="1049" y="767" type="curve"/>
      <point x="1130" y="691"/>
      <point x="1165" y="583"/>
      <point x="1141" y="445" type="curve" smooth="yes"/>
      <point x="1090" y="155"/>
      <point x="815" y="-30"/>
      <point x="483" y="-30" type="curve" smooth="yes"/>
      <point x="211" y="-30"/>
      <point x="-32" y="94"/>
      <point x="-27" y="364" type="curve"/>
      <point x="352" y="461" type="line"/>
      <point x="335" y="366"/>
      <point x="422" y="306"/>
      <point x="542" y="306" type="curve" smooth="yes"/>
      <point x="642" y="306"/>
      <point x="745" y="358"/>
      <point x="762" y="453" type="curve" smooth="yes"/>
      <point x="779" y="548"/>
      <point x="694" y="600"/>
      <point x="593" y="600" type="curve" smooth="yes"/>
      <point x="498" y="600" type="line"/>
      <point x="554" y="916" type="line"/>
    </contour>
  </outline>
</glyph>
<glyph name="four" format="2">
  <advance width="1232"/>
  <unicode hex="0034"/>
  <outline>
    <contour>
      <point x="20" y="572" type="line"/>
      <point x="622" y="1480" type="line"/>
      <point x="1036" y="1480" type="line"/>
      <point x="431" y="572" type="line"/>
      <point x="632" y="572" type="line"/>
      <point x="674" y="808" type="line"/>
      <point x="1054" y="808" type="line"/>
      <point x="1012" y="572" type="line"/>
      <point x="1152" y="572" type="line"/>
      <point x="1093" y="236" type="line"/>
      <point x="953" y="236" type="line"/>
      <point x="912" y="0" type="line"/>
      <point x="532" y="0" type="line"/>
      <point x="573" y="236" type="line"/>
      <point x="-39" y="236" type="line"/>
    </contour>
  </outline>
</glyph>
<glyph name="five" format="2">
  <advance width="1232"/>
  <unicode hex="0035"/>
  <outline>
    <contour>
      <point x="536" y="306" type="curve" smooth="yes"/>
      <point x="671" y="306"/>
      <point x="751" y="425"/>
      <point x="751" y="528" type="curve" smooth="yes"/>
      <point x="751" y="607"/>
      <point x="704" y="676"/>
      <point x="601" y="676" type="curve" smooth="yes"/>
      <point x="543" y="676"/>
      <point x="450" y="654"/>
      <point x="402" y="558" type="curve"/>
      <point x="218" y="610" type="line"/>
      <point x="252" y="690"/>
      <point x="425" y="992"/>
      <point x="657" y="992" type="curve" smooth="yes"/>
      <point x="951" y="992"/>
      <point x="1136" y="842"/>
      <point x="1136" y="592" type="curve" smooth="yes"/>
      <point x="1136" y="281"/>
      <point x="888" y="-30"/>
      <point x="477" y="-30" type="curve" smooth="yes"/>
      <point x="208" y="-30"/>
      <point x="-4" y="91"/>
      <point x="-4" y="355" type="curve" smooth="yes"/>
      <point x="-4" y="358"/>
      <point x="-4" y="361"/>
      <point x="-4" y="364" type="curve"/>
      <point x="375" y="461" type="line"/>
      <point x="373" y="450"/>
      <point x="372" y="440"/>
      <point x="372" y="430" type="curve" smooth="yes"/>
      <point x="372" y="353"/>
      <point x="430" y="306"/>
    </contour>
    <contour>
      <point x="430" y="668" type="line"/>
      <point x="218" y="610" type="line"/>
      <point x="89" y="646" type="line"/>
      <point x="354" y="1480" type="line"/>
      <point x="698" y="1480" type="line"/>
    </contour>
    <contour>
      <point x="438" y="1144" type="line"/>
      <point x="698" y="1480" type="line"/>
      <point x="1229" y="1480" type="line"/>
      <point x="1170" y="1144" type="line"/>
    </contour>
  </outline>
</glyph>
<glyph name="six" format="2">
  <advance width="1232"/>
  <unicode hex="0036"/>
  <outline>
    <contour>
      <point x="864" y="1510" type="curve" smooth="yes"/>
      <point x="1166" y="1510"/>
      <point x="1280" y="1350"/>
      <point x="1280" y="1350" type="curve"/>
      <point x="1070" y="1057" type="line"/>
      <point x="1070" y="1057"/>
      <point x="1000" y="1174"/>
      <point x="790" y="1174" type="curve" smooth="yes"/>
      <point x="520" y="1174"/>
      <point x="413" y="856"/>
      <point x="385" y="696" type="curve" smooth="yes"/>
      <point x="344" y="466"/>
      <point x="429" y="282"/>
      <point x="429" y="282" type="curve"/>
      <point x="89" y="179" type="line"/>
      <point x="89" y="179"/>
      <point x="-22" y="346"/>
      <point x="40" y="696" type="curve" smooth="yes"/>
      <point x="116" y="1126"/>
      <point x="382" y="1510"/>
    </contour>
    <contour>
      <point x="404" y="491" type="curve" smooth="yes"/>
      <point x="385" y="383"/>
      <point x="441" y="306"/>
      <point x="549" y="306" type="curve" smooth="yes"/>
      <point x="657" y="306"/>
      <point x="741" y="383"/>
      <point x="760" y="491" type="curve" smooth="yes"/>
      <point x="779" y="599"/>
      <point x="723" y="676"/>
      <point x="615" y="676" type="curve" smooth="yes"/>
      <point x="507" y="676"/>
      <point x="423" y="599"/>
    </contour>
    <contour>
      <point x="50" y="491" type="curve"/>
      <point x="230" y="491" type="line"/>
      <point x="248" y="594"/>
      <point x="392" y="1012"/>
      <point x="674" y="1012" type="curve" smooth="yes"/>
      <point x="1006" y="1012"/>
      <point x="1195" y="802"/>
      <point x="1140" y="491" type="curve" smooth="yes"/>
      <point x="1085" y="180"/>
      <point x="822" y="-30"/>
      <point x="490" y="-30" type="curve" smooth="yes"/>
      <point x="158" y="-30"/>
      <point x="-1" y="200"/>
    </contour>
  </outline>
</glyph>
<glyph name="seven" format="2">
  <advance width="1232"/>
  <unicode hex="0037"/>
  <outline>
    <contour>
      <point x="797" y="1144" type="curve"/>
      <point x="1258" y="1172" type="line"/>
      <point x="1258" y="1172"/>
      <point x="705" y="837"/>
      <point x="469" y="0" type="curve"/>
      <point x="398" y="0"/>
      <point x="160" y="0"/>
      <point x="89" y="0" type="curve"/>
      <point x="321" y="840"/>
      <point x="797" y="1144"/>
    </contour>
    <contour>
      <point x="121" y="1144" type="line"/>
      <point x="180" y="1480" type="line"/>
      <point x="1312" y="1480" type="line"/>
      <point x="1258" y="1172" type="line"/>
      <point x="797" y="1144" type="line"/>
    </contour>
  </outline>
</glyph>
<glyph name="eight" format="2">
  <advance width="1232"/>
  <unicode hex="0038"/>
  <outline>
    <contour>
      <point x="1139" y="445" type="curve" smooth="yes"/>
      <point x="1190" y="735"/>
      <point x="972" y="896"/>
      <point x="644" y="896" type="curve" smooth="yes"/>
      <point x="316" y="896"/>
      <point x="40" y="735"/>
      <point x="-11" y="445" type="curve" smooth="yes"/>
      <point x="-62" y="155"/>
      <point x="147" y="-30"/>
      <point x="480" y="-30" type="curve" smooth="yes"/>
      <point x="813" y="-30"/>
      <point x="1088" y="155"/>
    </contour>
    <contour>
      <point x="370" y="453" type="curve" smooth="yes"/>
      <point x="387" y="548"/>
      <point x="490" y="600"/>
      <point x="591" y="600" type="curve" smooth="yes"/>
      <point x="692" y="600"/>
      <point x="777" y="548"/>
      <point x="760" y="453" type="curve" smooth="yes"/>
      <point x="743" y="358"/>
      <point x="640" y="306"/>
      <point x="539" y="306" type="curve"/>
      <point x="438" y="306"/>
      <point x="353" y="358"/>
    </contour>
    <contour>
      <point x="1210" y="1051" type="curve" smooth="yes"/>
      <point x="1255" y="1306"/>
      <point x="1072" y="1510"/>
      <point x="752" y="1510" type="curve" smooth="yes"/>
      <point x="432" y="1510"/>
      <point x="177" y="1306"/>
      <point x="132" y="1051" type="curve" smooth="yes"/>
      <point x="87" y="796"/>
      <point x="259" y="620"/>
      <point x="595" y="620" type="curve" smooth="yes"/>
      <point x="931" y="620"/>
      <point x="1165" y="796"/>
    </contour>
    <contour>
      <point x="511" y="1045" type="curve" smooth="yes"/>
      <point x="524" y="1117"/>
      <point x="601" y="1174"/>
      <point x="693" y="1174" type="curve" smooth="yes"/>
      <point x="785" y="1174"/>
      <point x="842" y="1117"/>
      <point x="829" y="1045" type="curve" smooth="yes"/>
      <point x="816" y="973"/>
      <point x="739" y="916"/>
      <point x="647" y="916" type="curve"/>
      <point x="555" y="916"/>
      <point x="498" y="973"/>
    </contour>
  </outline>
</glyph>
<glyph name="nine" format="2">
  <advance width="1232"/>
  <unicode hex="0039"/>
  <outline>
    <contour>
      <point x="1340" y="992" type="curve" smooth="yes"/>
      <point x="1340" y="580"/>
      <point x="1110" y="-30"/>
      <point x="499" y="-30" type="curve" smooth="yes"/>
      <point x="197" y="-30"/>
      <point x="83" y="130"/>
      <point x="83" y="130" type="curve"/>
      <point x="293" y="423" type="line"/>
      <point x="293" y="423"/>
      <point x="363" y="306"/>
      <point x="573" y="306" type="curve" smooth="yes"/>
      <point x="839" y="306"/>
      <point x="987" y="631"/>
      <point x="987" y="923" type="curve" smooth="yes"/>
      <point x="987" y="966"/>
      <point x="983" y="1008"/>
      <point x="977" y="1048" type="curve" smooth="yes"/>
      <point x="968" y="1102"/>
      <point x="954" y="1153"/>
      <point x="933" y="1198" type="curve"/>
      <point x="1273" y="1301" type="line"/>
      <point x="1306" y="1237"/>
      <point x="1340" y="1124"/>
    </contour>
    <contour>
      <point x="748" y="804" type="curve" smooth="yes"/>
      <point x="883" y="804"/>
      <point x="963" y="923"/>
      <point x="963" y="1026" type="curve" smooth="yes"/>
      <point x="963" y="1105"/>
      <point x="916" y="1174"/>
      <point x="813" y="1174" type="curve" smooth="yes"/>
      <point x="678" y="1174"/>
      <point x="598" y="1055"/>
      <point x="598" y="952" type="curve" smooth="yes"/>
      <point x="598" y="873"/>
      <point x="645" y="804"/>
    </contour>
    <contour>
      <point x="211" y="895" type="curve" smooth="yes"/>
      <point x="211" y="1183"/>
      <point x="453" y="1510"/>
      <point x="872" y="1510" type="curve" smooth="yes"/>
      <point x="1163" y="1510"/>
      <point x="1322" y="1333"/>
      <point x="1322" y="1093" type="curve" smooth="yes"/>
      <point x="1322" y="1059"/>
      <point x="1318" y="1025"/>
      <point x="1312" y="989" type="curve"/>
      <point x="1132" y="989" type="line"/>
      <point x="1114" y="886"/>
      <point x="971" y="468"/>
      <point x="689" y="468" type="curve" smooth="yes"/>
      <point x="360" y="468"/>
      <point x="211" y="669"/>
    </contour>
  </outline>
</glyph>
<glyph name="colon" format="2">
  <advance width="500"/>
  <unicode hex="003A"/>
  <outline>
    <contour>
      <point x="84" y="930" type="curve" smooth="yes"/>
      <point x="84" y="1041"/>
      <point x="173" y="1130"/>
      <point x="284" y="1130" type="curve" smooth="yes"/>
      <point x="395" y="1130"/>
      <point x="484" y="1041"/>
      <point x="484" y="930" type="curve" smooth="yes"/>
      <point x="484" y="819"/>
      <point x="395" y="730"/>
      <point x="284" y="730" type="curve" smooth="yes"/>
      <point x="173" y="730"/>
      <point x="84" y="819"/>
    </contour>
    <contour>
      <point x="-50" y="170" type="curve" smooth="yes"/>
      <point x="-50" y="281"/>
      <point x="39" y="370"/>
      <point x="150" y="370" type="curve" smooth="yes"/>
      <point x="261" y="370"/>
      <point x="350" y="281"/>
      <point x="350" y="170" type="curve" smooth="yes"/>
      <point x="350" y="59"/>
      <point x="261" y="-30"/>
      <point x="150" y="-30" type="curve" smooth="yes"/>
      <point x="39" y="-30"/>
      <point x="-50" y="59"/>
    </contour>
  </outline>
</glyph>
<glyph name="less" format="2">
  <advance width="1232"/>
  <unicode hex="003C"/>
  <outline>
    <contour>
      <point x="41" y="498" type="line"/>
      <point x="99" y="822" type="line"/>
      <point x="1270" y="1274" type="line"/>
      <point x="1210" y="930" type="line"/>
      <point x="472" y="660" type="line"/>
      <point x="1114" y="390" type="line"/>
      <point x="1054" y="46" type="line"/>
    </contour>
  </outline>
</glyph>
<glyph name="equal" format="2">
  <advance width="1232"/>
  <unicode hex="003D"/>
  <outline>
    <contour>
      <point x="1234" y="1070" type="line"/>
      <point x="1178" y="750" type="line"/>
      <point x="86" y="750" type="line"/>
      <point x="142" y="1070" type="line"/>
    </contour>
    <contour>
      <point x="-2" y="250" type="line"/>
      <point x="54" y="570" type="line"/>
      <point x="1146" y="570" type="line"/>
      <point x="1090" y="250" type="line"/>
    </contour>
  </outline>
</glyph>
<glyph name="greater" format="2">
  <advance width="1232"/>
  <unicode hex="003E"/>
  <outline>
    <contour>
      <point x="1120" y="498" type="line"/>
      <point x="-52" y="46" type="line"/>
      <point x="9" y="390" type="line"/>
      <point x="746" y="660" type="line"/>
      <point x="104" y="930" type="line"/>
      <point x="165" y="1274" type="line"/>
      <point x="1177" y="822" type="line"/>
    </contour>
  </outline>
</glyph>
<glyph name="question" format="2">
  <advance width="1204"/>
  <unicode hex="003F"/>
  <outline>
    <contour>
      <point x="626" y="876" type="line"/>
      <point x="683.192" y="876"/>
      <point x="847.853" y="890.407"/>
      <point x="847.853" y="1056.32" type="curve" smooth="yes"/>
      <point x="847.853" y="1152.92"/>
      <point x="759.159" y="1190"/>
      <point x="682" y="1190" type="curve" smooth="yes"/>
      <point x="510" y="1190"/>
      <point x="437" y="1029"/>
      <point x="437" y="906" type="curve"/>
      <point x="85" y="990" type="line"/>
      <point x="141" y="1310"/>
      <point x="402" y="1510"/>
      <point x="738" y="1510" type="curve" smooth="yes"/>
      <point x="1004.6" y="1510"/>
      <point x="1212.8" y="1359.92"/>
      <point x="1212.8" y="1110.91" type="curve" smooth="yes"/>
      <point x="1212.8" y="853.73"/>
      <point x="1013.69" y="540"/>
      <point x="567" y="540" type="curve"/>
    </contour>
    <contour>
      <point x="306" y="160" type="curve" smooth="yes"/>
      <point x="306" y="271"/>
      <point x="395" y="360"/>
      <point x="506" y="360" type="curve" smooth="yes"/>
      <point x="617" y="360"/>
      <point x="706" y="271"/>
      <point x="706" y="160" type="curve" smooth="yes"/>
      <point x="706" y="49"/>
      <point x="617" y="-40"/>
      <point x="506" y="-40" type="curve" smooth="yes"/>
      <point x="395" y="-40"/>
      <point x="306" y="49"/>
    </contour>
    <contour>
      <point x="378" y="452" type="line"/>
      <point x="452" y="876" type="line"/>
      <point x="812" y="876" type="line"/>
      <point x="738" y="452" type="line"/>
    </contour>
  </outline>
</glyph>
<glyph name="A" format="2">
  <advance width="1530"/>
  <unicode hex="0041"/>
  <anchor x="1299" y="-20" name="bottom_cedilla"/>
  <anchor x="393" y="1040" name="greek_v"/>
  <anchor x="149" y="1040" name="greek_kt"/>
  <anchor x="315" y="1040" name="greek_k"/>
  <anchor x="189" y="1040" name="greek_t"/>
  <anchor x="753" y="-90" name="bottom_ypogegrammeni"/>
  <anchor x="769" y="0" name="bottom_center"/>
  <anchor x="1012" y="1380" name="top_center"/>
  <anchor x="1495" y="0" name="bottom_right"/>
  <outline>
    <contour>
      <point x="437" y="688" type="line"/>
      <point x="1308" y="688" type="line"/>
      <point x="1249" y="352" type="line"/>
      <point x="378" y="352" type="line"/>
    </contour>
    <contour>
      <point x="959" y="1080" type="line"/>
      <point x="427" y="0" type="line"/>
      <point x="35" y="0" type="line"/>
      <point x="788" y="1480" type="line"/>
      <point x="1264" y="1480" type="line"/>
      <point x="1495" y="0" type="line"/>
      <point x="1103" y="0" type="line"/>
    </contour>
  </outline>
</glyph>
<glyph name="B" format="2">
  <advance width="1426"/>
  <unicode hex="0042"/>
  <anchor x="692" y="0" name="bottom_center"/>
  <anchor x="935" y="1380" name="top_center"/>
  <outline>
    <contour>
      <point x="1464" y="540" type="curve" smooth="yes"/>
      <point x="1464" y="262"/>
      <point x="1223" y="0"/>
      <point x="801" y="0" type="curve" smooth="yes"/>
      <point x="70" y="0" type="line"/>
      <point x="331" y="1480" type="line"/>
      <point x="1062" y="1480" type="line" smooth="yes"/>
      <point x="1350" y="1480"/>
      <point x="1529" y="1327"/>
      <point x="1529" y="1110" type="curve" smooth="yes"/>
      <point x="1529" y="1095"/>
      <point x="1524" y="620"/>
      <point x="910" y="620" type="curve"/>
      <point x="963" y="916" type="line"/>
      <point x="1075" y="916"/>
      <point x="1143" y="977"/>
      <point x="1143" y="1049" type="curve" smooth="yes"/>
      <point x="1143" y="1110"/>
      <point x="1087" y="1144"/>
      <point x="1003" y="1144" type="curve" smooth="yes"/>
      <point x="652" y="1144" type="line"/>
      <point x="612" y="916" type="line"/>
      <point x="963" y="916" type="line"/>
      <point x="907" y="600" type="line"/>
      <point x="556" y="600" type="line"/>
      <point x="509" y="336" type="line"/>
      <point x="860" y="336" type="line" smooth="yes"/>
      <point x="1001" y="336"/>
      <point x="1081" y="404"/>
      <point x="1081" y="491" type="curve" smooth="yes"/>
      <point x="1081" y="569"/>
      <point x="1000" y="600"/>
      <point x="907" y="600" type="curve"/>
      <point x="959" y="896" type="line"/>
      <point x="1255" y="896"/>
      <point x="1464" y="777"/>
    </contour>
  </outline>
</glyph>
<glyph name="C" format="2">
  <advance width="1535"/>
  <unicode hex="0043"/>
  <anchor x="676" y="-20" name="bottom_cedilla"/>
  <anchor x="680" y="0" name="bottom_center"/>
  <anchor x="923" y="1380" name="top_center"/>
  <outline>
    <contour>
      <point x="36" y="577" type="curve" smooth="yes"/>
      <point x="36" y="1039"/>
      <point x="380" y="1510"/>
      <point x="946" y="1510" type="curve" smooth="yes"/>
      <point x="1261" y="1510"/>
      <point x="1474" y="1360"/>
      <point x="1552" y="1120" type="curve"/>
      <point x="1194" y="930" type="line"/>
      <point x="1169" y="1078"/>
      <point x="1068" y="1174"/>
      <point x="887" y="1174" type="curve" smooth="yes"/>
      <point x="555" y="1174"/>
      <point x="420" y="859"/>
      <point x="420" y="629" type="curve" smooth="yes"/>
      <point x="420" y="437"/>
      <point x="523" y="306"/>
      <point x="734" y="306" type="curve" smooth="yes"/>
      <point x="915" y="306"/>
      <point x="1050" y="402"/>
      <point x="1127" y="550" type="curve"/>
      <point x="1418" y="360" type="line"/>
      <point x="1256" y="120"/>
      <point x="990" y="-30"/>
      <point x="675" y="-30" type="curve" smooth="yes"/>
      <point x="273" y="-30"/>
      <point x="36" y="215"/>
    </contour>
  </outline>
</glyph>
<glyph name="D" format="2">
  <advance width="1486"/>
  <unicode hex="0044"/>
  <anchor x="593" y="-20" name="bottom_cedilla"/>
  <anchor x="692" y="0" name="bottom_center"/>
  <anchor x="935" y="1380" name="top_center"/>
  <outline>
    <contour>
      <point x="729" y="336" type="line" smooth="yes"/>
      <point x="1020" y="336"/>
      <point x="1195" y="581"/>
      <point x="1195" y="830" type="curve" smooth="yes"/>
      <point x="1195" y="1042"/>
      <point x="1043" y="1144"/>
      <point x="872" y="1144" type="curve" smooth="yes"/>
      <point x="652" y="1144" type="line"/>
      <point x="509" y="336" type="line"/>
    </contour>
    <contour>
      <point x="1581" y="895" type="curve" smooth="yes"/>
      <point x="1581" y="448"/>
      <point x="1248" y="0"/>
      <point x="670" y="0" type="curve" smooth="yes"/>
      <point x="70" y="0" type="line"/>
      <point x="331" y="1480" type="line"/>
      <point x="931" y="1480" type="line" smooth="yes"/>
      <point x="1332" y="1480"/>
      <point x="1581" y="1255"/>
    </contour>
  </outline>
</glyph>
<glyph name="E" format="2">
  <advance width="1254"/>
  <unicode hex="0045"/>
  <anchor x="45" y="1040" name="greek_v"/>
  <anchor x="-171" y="1040" name="greek_t"/>
  <anchor x="-15" y="1040" name="greek_k"/>
  <anchor x="-206" y="1040" name="greek_kt"/>
  <anchor x="623" y="-20" name="bottom_cedilla"/>
  <anchor x="1184" y="0" name="bottom_right"/>
  <anchor x="627" y="0" name="bottom_center"/>
  <anchor x="870" y="1380" name="top_center"/>
  <outline>
    <contour>
      <point x="1230" y="908" type="line"/>
      <point x="1171" y="572" type="line"/>
      <point x="551" y="572" type="line"/>
      <point x="509" y="336" type="line"/>
      <point x="1243" y="336" type="line"/>
      <point x="1184" y="0" type="line"/>
      <point x="70" y="0" type="line"/>
      <point x="331" y="1480" type="line"/>
      <point x="1445" y="1480" type="line"/>
      <point x="1386" y="1144" type="line"/>
      <point x="652" y="1144" type="line"/>
      <point x="610" y="908" type="line"/>
    </contour>
  </outline>
</glyph>
<glyph name="F" format="2">
  <advance width="1219"/>
  <unicode hex="0046"/>
  <anchor x="740" y="1380" name="top_center"/>
  <anchor x="130" y="0" name="bottom_center"/>
  <outline>
    <contour>
      <point x="358" y="219" type="line"/>
      <point x="320" y="0" type="line"/>
      <point x="-60" y="0" type="line"/>
      <point x="200" y="1480" type="line"/>
      <point x="1314" y="1480" type="line"/>
      <point x="1255" y="1144" type="line"/>
      <point x="521" y="1144" type="line"/>
      <point x="480" y="908" type="line"/>
      <point x="1100" y="908" type="line"/>
      <point x="1040" y="572" type="line"/>
      <point x="420" y="572" type="line"/>
    </contour>
  </outline>
</glyph>
<glyph name="G" format="2">
  <advance width="1563"/>
  <unicode hex="0047"/>
  <anchor x="1053" y="1380" name="top_center"/>
  <anchor x="810" y="0" name="bottom_center"/>
  <outline>
    <contour>
      <point x="166" y="577" type="curve" smooth="yes"/>
      <point x="166" y="1039"/>
      <point x="510" y="1510"/>
      <point x="1076" y="1510" type="curve" smooth="yes"/>
      <point x="1391" y="1510"/>
      <point x="1604" y="1360"/>
      <point x="1682" y="1120" type="curve"/>
      <point x="1320" y="930" type="line"/>
      <point x="1295" y="1078"/>
      <point x="1198" y="1174"/>
      <point x="1017" y="1174" type="curve" smooth="yes"/>
      <point x="685" y="1174"/>
      <point x="550" y="859"/>
      <point x="550" y="629" type="curve" smooth="yes"/>
      <point x="550" y="437"/>
      <point x="653" y="306"/>
      <point x="864" y="306" type="curve" smooth="yes"/>
      <point x="1045" y="306"/>
      <point x="1176" y="402"/>
      <point x="1253" y="550" type="curve"/>
      <point x="1384" y="360" type="line"/>
      <point x="1222" y="120"/>
      <point x="1120" y="-30"/>
      <point x="805" y="-30" type="curve" smooth="yes"/>
      <point x="403" y="-30"/>
      <point x="166" y="215"/>
    </contour>
    <contour>
      <point x="893" y="824" type="line"/>
      <point x="1638" y="824" type="line"/>
      <point x="1493" y="0" type="line"/>
      <point x="1133" y="0" type="line"/>
      <point x="1173" y="227" type="line"/>
      <point x="1158" y="253" type="line"/>
      <point x="1199" y="488" type="line"/>
      <point x="834" y="488" type="line"/>
    </contour>
  </outline>
</glyph>
<glyph name="H" format="2">
  <advance width="1482"/>
  <unicode hex="0048"/>
  <anchor x="-336" y="1040" name="greek_kt"/>
  <anchor x="-145" y="1040" name="greek_k"/>
  <anchor x="-301" y="1040" name="greek_t"/>
  <anchor x="-85" y="1040" name="greek_v"/>
  <anchor x="856" y="1380" name="top_center"/>
  <anchor x="613" y="0" name="bottom_center"/>
  <anchor x="126" y="-20" name="bottom_cedilla"/>
  <anchor x="597" y="-90" name="bottom_ypogegrammeni"/>
  <outline>
    <contour>
      <point x="200" y="1480" type="line"/>
      <point x="580" y="1480" type="line"/>
      <point x="480" y="908" type="line"/>
      <point x="1062" y="908" type="line"/>
      <point x="1162" y="1480" type="line"/>
      <point x="1542" y="1480" type="line"/>
      <point x="1282" y="0" type="line"/>
      <point x="902" y="0" type="line"/>
      <point x="1002" y="572" type="line"/>
      <point x="420" y="572" type="line"/>
      <point x="320" y="0" type="line"/>
      <point x="-60" y="0" type="line"/>
    </contour>
  </outline>
</glyph>
<glyph name="I" format="2">
  <advance width="924"/>
  <unicode hex="0049"/>
  <anchor x="328" y="-20" name="bottom_cedilla"/>
  <anchor x="-336" y="1040" name="greek_kt"/>
  <anchor x="-145" y="1040" name="greek_k"/>
  <anchor x="-301" y="1040" name="greek_t"/>
  <anchor x="-85" y="1040" name="greek_v"/>
  <anchor x="575" y="1380" name="top_center"/>
  <anchor x="332" y="0" name="bottom_center"/>
  <anchor x="522" y="0" name="bottom_right"/>
  <outline>
    <contour>
      <point x="200" y="1480" type="line"/>
      <point x="984" y="1480" type="line"/>
      <point x="925" y="1144" type="line"/>
      <point x="723" y="1144" type="line"/>
      <point x="581" y="336" type="line"/>
      <point x="783" y="336" type="line"/>
      <point x="724" y="0" type="line"/>
      <point x="-60" y="0" type="line"/>
      <point x="-1" y="336" type="line"/>
      <point x="201" y="336" type="line"/>
      <point x="343" y="1144" type="line"/>
      <point x="141" y="1144" type="line"/>
    </contour>
  </outline>
</glyph>
<glyph name="J" format="2">
  <advance width="1285"/>
  <unicode hex="004A"/>
  <anchor x="629" y="0" name="bottom_center"/>
  <anchor x="1268" y="1380" name="top_center"/>
  <outline>
    <contour>
      <point x="537" y="569" type="line"/>
      <point x="531" y="555"/>
      <point x="513" y="493"/>
      <point x="513" y="455" type="curve" smooth="yes"/>
      <point x="513" y="370"/>
      <point x="580" y="306"/>
      <point x="683" y="306" type="curve" smooth="yes"/>
      <point x="798" y="306"/>
      <point x="903" y="385"/>
      <point x="921" y="485" type="curve" smooth="yes"/>
      <point x="1096" y="1480" type="line"/>
      <point x="1476" y="1480" type="line"/>
      <point x="1301" y="485" type="line" smooth="yes"/>
      <point x="1245" y="165"/>
      <point x="960" y="-30"/>
      <point x="624" y="-30" type="curve" smooth="yes"/>
      <point x="325" y="-30"/>
      <point x="126" y="124"/>
      <point x="126" y="384" type="curve" smooth="yes"/>
      <point x="126" y="416"/>
      <point x="130" y="450"/>
      <point x="136" y="485" type="curve"/>
    </contour>
  </outline>
</glyph>
<glyph name="K" format="2">
  <advance width="1463"/>
  <unicode hex="004B"/>
  <anchor x="611" y="0" name="bottom_center"/>
  <anchor x="854" y="1380" name="top_center"/>
  <outline>
    <contour>
      <point x="464" y="801" type="line"/>
      <point x="825" y="925" type="line"/>
      <point x="1328" y="0" type="line"/>
      <point x="888" y="0" type="line"/>
    </contour>
    <contour>
      <point x="399" y="450" type="line"/>
      <point x="320" y="0" type="line"/>
      <point x="-60" y="0" type="line"/>
      <point x="200" y="1480" type="line"/>
      <point x="580" y="1480" type="line"/>
      <point x="485" y="940" type="line"/>
      <point x="1108" y="1480" type="line"/>
      <point x="1180" y="1480"/>
      <point x="1516" y="1480"/>
      <point x="1588" y="1480" type="curve"/>
    </contour>
  </outline>
</glyph>
<glyph name="L" format="2">
  <advance width="1254"/>
  <unicode hex="004C"/>
  <anchor x="627" y="0" name="bottom_center"/>
  <anchor x="503" y="1380" name="top_center"/>
  <outline>
    <contour>
      <point x="711" y="1480" type="line"/>
      <point x="509" y="336" type="line"/>
      <point x="1243" y="336" type="line"/>
      <point x="1184" y="0" type="line"/>
      <point x="70" y="0" type="line"/>
      <point x="331" y="1480" type="line"/>
    </contour>
  </outline>
</glyph>
<glyph name="M" format="2">
  <advance width="1710"/>
  <unicode hex="004D"/>
  <anchor x="719" y="0" name="bottom_center"/>
  <anchor x="962" y="1380" name="top_center"/>
  <outline>
    <contour>
      <point x="845" y="720" type="line"/>
      <point x="1406" y="1480" type="line"/>
      <point x="1593" y="1188" type="line"/>
      <point x="836" y="160" type="line"/>
      <point x="658" y="160" type="line"/>
      <point x="266" y="1188" type="line"/>
      <point x="564" y="1480" type="line"/>
    </contour>
    <contour>
      <point x="1770" y="1480" type="line"/>
      <point x="1510" y="0" type="line"/>
      <point x="1130" y="0" type="line"/>
      <point x="1363" y="1322" type="line"/>
      <point x="1406" y="1480" type="line"/>
    </contour>
    <contour>
      <point x="200" y="1480" type="line"/>
      <point x="564" y="1480" type="line"/>
      <point x="544" y="1275" type="line"/>
      <point x="320" y="0" type="line"/>
      <point x="-60" y="0" type="line"/>
    </contour>
  </outline>
</glyph>
<glyph name="N" format="2">
  <advance width="1482"/>
  <unicode hex="004E"/>
  <anchor x="742" y="0" name="bottom_center"/>
  <anchor x="985" y="1380" name="top_center"/>
  <outline>
    <contour>
      <point x="695" y="1480" type="line"/>
      <point x="1147" y="652" type="line"/>
      <point x="1293" y="1480" type="line"/>
      <point x="1673" y="1480" type="line"/>
      <point x="1412" y="0" type="line"/>
      <point x="1048" y="0" type="line"/>
      <point x="596" y="828" type="line"/>
      <point x="450" y="0" type="line"/>
      <point x="70" y="0" type="line"/>
      <point x="331" y="1480" type="line"/>
    </contour>
  </outline>
</glyph>
<glyph name="O" format="2">
  <advance width="1620"/>
  <unicode hex="004F"/>
  <anchor x="806" y="-20" name="bottom_cedilla"/>
  <anchor x="207" y="1040" name="greek_v"/>
  <anchor x="-37" y="1040" name="greek_kt"/>
  <anchor x="129" y="1040" name="greek_k"/>
  <anchor x="3" y="1040" name="greek_t"/>
  <anchor x="1053" y="1380" name="top_center"/>
  <anchor x="1685" y="1480" name="top_right"/>
  <anchor x="810" y="0" name="bottom_center"/>
  <anchor x="1042" y="0" name="bottom_right"/>
  <outline>
    <contour>
      <point x="1017" y="1174" type="curve" smooth="yes"/>
      <point x="685" y="1174"/>
      <point x="550" y="859"/>
      <point x="550" y="629" type="curve" smooth="yes"/>
      <point x="550" y="437"/>
      <point x="653" y="306"/>
      <point x="864" y="306" type="curve" smooth="yes"/>
      <point x="1196" y="306"/>
      <point x="1331" y="621"/>
      <point x="1331" y="851" type="curve" smooth="yes"/>
      <point x="1331" y="1043"/>
      <point x="1228" y="1174"/>
    </contour>
    <contour>
      <point x="166" y="577" type="curve" smooth="yes"/>
      <point x="166" y="1039"/>
      <point x="510" y="1510"/>
      <point x="1076" y="1510" type="curve" smooth="yes"/>
      <point x="1478" y="1510"/>
      <point x="1715" y="1265"/>
      <point x="1715" y="903" type="curve" smooth="yes"/>
      <point x="1715" y="441"/>
      <point x="1371" y="-30"/>
      <point x="805" y="-30" type="curve" smooth="yes"/>
      <point x="403" y="-30"/>
      <point x="166" y="215"/>
    </contour>
  </outline>
</glyph>
<glyph name="P" format="2">
  <advance width="1258"/>
  <unicode hex="0050"/>
  <anchor x="45" y="1040" name="greek_v"/>
  <anchor x="-171" y="1040" name="greek_t"/>
  <anchor x="-15" y="1040" name="greek_k"/>
  <anchor x="-206" y="1040" name="greek_kt"/>
  <anchor x="862" y="1380" name="top_center"/>
  <anchor x="260" y="0" name="bottom_center"/>
  <outline>
    <contour>
      <point x="782" y="824" type="line" smooth="yes"/>
      <point x="835" y="824"/>
      <point x="1005" y="838"/>
      <point x="1005" y="1021" type="curve" smooth="yes"/>
      <point x="1005" y="1105"/>
      <point x="944" y="1144"/>
      <point x="839" y="1144" type="curve" smooth="yes"/>
      <point x="652" y="1144" type="line"/>
      <point x="595" y="824" type="line"/>
    </contour>
    <contour>
      <point x="1389" y="1073" type="curve" smooth="yes"/>
      <point x="1389" y="800"/>
      <point x="1164" y="488"/>
      <point x="723" y="488" type="curve" smooth="yes"/>
      <point x="536" y="488" type="line"/>
      <point x="450" y="0" type="line"/>
      <point x="70" y="0" type="line"/>
      <point x="331" y="1480" type="line"/>
      <point x="898" y="1480" type="line" smooth="yes"/>
      <point x="1239" y="1480"/>
      <point x="1389" y="1292"/>
    </contour>
  </outline>
</glyph>
<glyph name="Q" format="2">
  <advance width="1620"/>
  <unicode hex="0051"/>
  <anchor x="931" y="1380" name="top_center"/>
  <anchor x="688" y="0" name="bottom_center"/>
  <outline>
    <contour>
      <point x="438" y="740" type="curve" smooth="yes"/>
      <point x="394" y="490"/>
      <point x="492" y="306"/>
      <point x="742" y="306" type="curve" smooth="yes"/>
      <point x="992" y="306"/>
      <point x="1154" y="490"/>
      <point x="1198" y="740" type="curve" smooth="yes"/>
      <point x="1242" y="990"/>
      <point x="1145" y="1174"/>
      <point x="895" y="1174" type="curve" smooth="yes"/>
      <point x="645" y="1174"/>
      <point x="482" y="990"/>
    </contour>
    <contour>
      <point x="58" y="740" type="curve" smooth="yes"/>
      <point x="137" y="1190"/>
      <point x="494" y="1510"/>
      <point x="954" y="1510" type="curve" smooth="yes"/>
      <point x="1414" y="1510"/>
      <point x="1657" y="1190"/>
      <point x="1578" y="740" type="curve" smooth="yes"/>
      <point x="1499" y="290"/>
      <point x="1143" y="-30"/>
      <point x="683" y="-30" type="curve" smooth="yes"/>
      <point x="223" y="-30"/>
      <point x="-21" y="290"/>
    </contour>
    <contour>
      <point x="1470" y="124" type="line"/>
      <point x="1178" y="-124" type="line"/>
      <point x="700" y="456" type="line"/>
      <point x="992" y="704" type="line"/>
    </contour>
  </outline>
</glyph>
<glyph name="R" format="2">
  <advance width="1318"/>
  <unicode hex="0052"/>
  <anchor x="489" y="0" name="bottom_center"/>
  <anchor x="732" y="1380" name="top_center"/>
  <outline>
    <contour>
      <point x="378" y="643" type="line"/>
      <point x="798" y="660" type="line"/>
      <point x="1158" y="0" type="line"/>
      <point x="718" y="0" type="line"/>
    </contour>
    <contour>
      <point x="652" y="824" type="line" smooth="yes"/>
      <point x="705" y="824"/>
      <point x="875" y="838"/>
      <point x="875" y="1021" type="curve" smooth="yes"/>
      <point x="875" y="1105"/>
      <point x="814" y="1144"/>
      <point x="709" y="1144" type="curve" smooth="yes"/>
      <point x="522" y="1144" type="line"/>
      <point x="465" y="824" type="line"/>
    </contour>
    <contour>
      <point x="1259" y="1073" type="curve" smooth="yes"/>
      <point x="1259" y="800"/>
      <point x="1034" y="488"/>
      <point x="593" y="488" type="curve" smooth="yes"/>
      <point x="406" y="488" type="line"/>
      <point x="320" y="0" type="line"/>
      <point x="-60" y="0" type="line"/>
      <point x="201" y="1480" type="line"/>
      <point x="768" y="1480" type="line" smooth="yes"/>
      <point x="1109" y="1480"/>
      <point x="1259" y="1292"/>
    </contour>
  </outline>
</glyph>
<glyph name="S" format="2">
  <advance width="1327"/>
  <unicode hex="0053"/>
  <anchor x="658" y="-20" name="bottom_cedilla"/>
  <anchor x="662" y="0" name="bottom_center"/>
  <anchor x="905" y="1380" name="top_center"/>
  <outline>
    <contour>
      <point x="257" y="985" type="curve" smooth="yes"/>
      <point x="257" y="1223"/>
      <point x="476" y="1510"/>
      <point x="928" y="1510" type="curve" smooth="yes"/>
      <point x="1230" y="1510"/>
      <point x="1447" y="1396"/>
      <point x="1447" y="1132" type="curve" smooth="yes"/>
      <point x="1447" y="1129"/>
      <point x="1447" y="1127"/>
      <point x="1447" y="1124" type="curve"/>
      <point x="1057" y="1024" type="line"/>
      <point x="1059" y="1035"/>
      <point x="1059" y="1044"/>
      <point x="1059" y="1054" type="curve" smooth="yes"/>
      <point x="1059" y="1134"/>
      <point x="994" y="1174"/>
      <point x="869" y="1174" type="curve" smooth="yes"/>
      <point x="825" y="1174"/>
      <point x="643" y="1166"/>
      <point x="643" y="1043" type="curve" smooth="yes"/>
      <point x="643" y="1000"/>
      <point x="725" y="973"/>
      <point x="834" y="941" type="curve" smooth="yes"/>
      <point x="1047" y="878"/>
      <point x="1362" y="793"/>
      <point x="1362" y="518" type="curve" smooth="yes"/>
      <point x="1362" y="318"/>
      <point x="1212" y="-30"/>
      <point x="657" y="-30" type="curve" smooth="yes"/>
      <point x="355" y="-30"/>
      <point x="114" y="88"/>
      <point x="114" y="353" type="curve" smooth="yes"/>
      <point x="114" y="355"/>
      <point x="114" y="358"/>
      <point x="114" y="361" type="curve"/>
      <point x="504" y="461" type="line"/>
      <point x="502" y="452"/>
      <point x="502" y="443"/>
      <point x="502" y="435" type="curve" smooth="yes"/>
      <point x="502" y="352"/>
      <point x="580" y="306"/>
      <point x="716" y="306" type="curve" smooth="yes"/>
      <point x="749" y="306"/>
      <point x="977" y="312"/>
      <point x="977" y="460" type="curve" smooth="yes"/>
      <point x="977" y="537"/>
      <point x="859" y="551"/>
      <point x="764" y="577" type="curve" smooth="yes"/>
      <point x="462" y="662"/>
      <point x="257" y="770"/>
    </contour>
  </outline>
</glyph>
<glyph name="T" format="2">
  <advance width="1482"/>
  <unicode hex="0054"/>
  <anchor x="607" y="-20" name="bottom_cedilla"/>
  <anchor x="611" y="0" name="bottom_center"/>
  <anchor x="854" y="1380" name="top_center"/>
  <outline>
    <contour>
      <point x="801" y="0" type="line"/>
      <point x="421" y="0" type="line"/>
      <point x="622" y="1144" type="line"/>
      <point x="141" y="1144" type="line"/>
      <point x="200" y="1480" type="line"/>
      <point x="1542" y="1480" type="line"/>
      <point x="1483" y="1144" type="line"/>
      <point x="1002" y="1144" type="line"/>
    </contour>
  </outline>
</glyph>
<glyph name="U" format="2">
  <advance width="1482"/>
  <unicode hex="0055"/>
  <anchor x="737" y="-20" name="bottom_cedilla"/>
  <anchor x="984" y="1380" name="top_center"/>
  <anchor x="1673" y="1480" name="top_right"/>
  <anchor x="741" y="0" name="bottom_center"/>
  <anchor x="973" y="0" name="bottom_right"/>
  <outline>
    <contour>
      <point x="711" y="1480" type="line"/>
      <point x="556" y="600" type="line" smooth="yes"/>
      <point x="552" y="575"/>
      <point x="549" y="552"/>
      <point x="549" y="530" type="curve" smooth="yes"/>
      <point x="549" y="371"/>
      <point x="663" y="306"/>
      <point x="795" y="306" type="curve" smooth="yes"/>
      <point x="945" y="306"/>
      <point x="1101" y="390"/>
      <point x="1138" y="600" type="curve" smooth="yes"/>
      <point x="1293" y="1480" type="line"/>
      <point x="1673" y="1480" type="line"/>
      <point x="1518" y="600" type="line" smooth="yes"/>
      <point x="1455" y="240"/>
      <point x="1168" y="-30"/>
      <point x="736" y="-30" type="curve" smooth="yes"/>
      <point x="358" y="-30"/>
      <point x="164" y="177"/>
      <point x="164" y="470" type="curve" smooth="yes"/>
      <point x="164" y="512"/>
      <point x="168" y="555"/>
      <point x="176" y="600" type="curve" smooth="yes"/>
      <point x="331" y="1480" type="line"/>
    </contour>
  </outline>
</glyph>
<glyph name="V" format="2">
  <advance width="1530"/>
  <unicode hex="0056"/>
  <anchor x="635" y="0" name="bottom_center"/>
  <anchor x="878" y="1380" name="top_center"/>
  <outline>
    <contour>
      <point x="713" y="400" type="line"/>
      <point x="1233" y="1480" type="line"/>
      <point x="1625" y="1480" type="line"/>
      <point x="873" y="0" type="line"/>
      <point x="397" y="0" type="line"/>
      <point x="165" y="1480" type="line"/>
      <point x="557" y="1480" type="line"/>
    </contour>
  </outline>
</glyph>
<glyph name="W" format="2">
  <advance width="2282"/>
  <unicode hex="0057"/>
  <anchor x="1011" y="0" name="bottom_center"/>
  <anchor x="1254" y="1380" name="top_center"/>
  <outline>
    <contour>
      <point x="1584" y="560" type="line"/>
      <point x="1986" y="1480" type="line"/>
      <point x="2378" y="1480" type="line"/>
      <point x="1692" y="0" type="line"/>
      <point x="1319" y="0" type="line"/>
      <point x="1171" y="910" type="line"/>
      <point x="703" y="0" type="line"/>
      <point x="330" y="0" type="line"/>
      <point x="166" y="1480" type="line"/>
      <point x="558" y="1480" type="line"/>
      <point x="636" y="560" type="line"/>
      <point x="1105" y="1480" type="line"/>
      <point x="1439" y="1480" type="line"/>
    </contour>
  </outline>
</glyph>
<glyph name="X" format="2">
  <advance width="1572"/>
  <unicode hex="0058"/>
  <anchor x="656" y="0" name="bottom_center"/>
  <anchor x="899" y="1380" name="top_center"/>
  <outline>
    <contour>
      <point x="740" y="487" type="line"/>
      <point x="333" y="0" type="line"/>
      <point x="-95" y="0" type="line"/>
      <point x="562" y="740" type="line"/>
      <point x="166" y="1480" type="line"/>
      <point x="594" y="1480" type="line"/>
      <point x="830" y="988" type="line"/>
      <point x="1240" y="1480" type="line"/>
      <point x="1668" y="1480" type="line"/>
      <point x="1010" y="740" type="line"/>
      <point x="1407" y="0" type="line"/>
      <point x="979" y="0" type="line"/>
    </contour>
  </outline>
</glyph>
<glyph name="Y" format="2">
  <advance width="1572"/>
  <unicode hex="0059"/>
  <anchor x="-221" y="1040" name="greek_kt"/>
  <anchor x="-30" y="1040" name="greek_k"/>
  <anchor x="-186" y="1040" name="greek_t"/>
  <anchor x="30" y="1040" name="greek_v"/>
  <anchor x="1029" y="1380" name="top_center"/>
  <anchor x="786" y="0" name="bottom_center"/>
  <outline>
    <contour>
      <point x="596" y="0" type="line"/>
      <point x="743" y="834" type="line"/>
      <point x="1123" y="834" type="line"/>
      <point x="976" y="0" type="line"/>
    </contour>
    <contour>
      <point x="963" y="538" type="line"/>
      <point x="813" y="518" type="line"/>
      <point x="296" y="1480" type="line"/>
      <point x="724" y="1480" type="line"/>
      <point x="960" y="988" type="line"/>
      <point x="1370" y="1480" type="line"/>
      <point x="1798" y="1480" type="line"/>
    </contour>
  </outline>
</glyph>
<glyph name="Z" format="2">
  <advance width="1374"/>
  <unicode hex="005A"/>
  <anchor x="557" y="0" name="bottom_center"/>
  <anchor x="803" y="1380" name="top_center"/>
  <outline>
    <contour>
      <point x="123" y="0" type="line"/>
      <point x="-7" y="302" type="line"/>
      <point x="1251" y="1480" type="line"/>
      <point x="1381" y="1176" type="line"/>
    </contour>
    <contour>
      <point x="422" y="336" type="line"/>
      <point x="1233" y="336" type="line"/>
      <point x="1174" y="0" type="line"/>
      <point x="730" y="0"/>
      <point x="384" y="0"/>
      <point x="-60" y="0" type="curve"/>
      <point x="-7" y="302" type="line"/>
    </contour>
    <contour>
      <point x="224" y="1480" type="line"/>
      <point x="668" y="1480"/>
      <point x="990" y="1480"/>
      <point x="1434" y="1480" type="curve"/>
      <point x="1381" y="1176" type="line"/>
      <point x="962" y="1144" type="line"/>
      <point x="165" y="1144" type="line"/>
    </contour>
  </outline>
</glyph>
<glyph name="bracketleft" format="2">
  <advance width="883"/>
  <unicode hex="005B"/>
  <outline>
    <contour>
      <point x="951" y="1320" type="line"/>
      <point x="533" y="1320" type="line"/>
      <point x="300" y="0" type="line"/>
      <point x="718" y="0" type="line"/>
      <point x="662" y="-320" type="line"/>
      <point x="-116" y="-320" type="line"/>
      <point x="229" y="1640" type="line"/>
      <point x="1007" y="1640" type="line"/>
    </contour>
  </outline>
</glyph>
<glyph name="backslash" format="2">
  <advance width="1211"/>
  <unicode hex="005C"/>
  <outline>
    <contour>
      <point x="194" y="1640" type="line"/>
      <point x="574" y="1640" type="line"/>
      <point x="1011" y="-200" type="line"/>
      <point x="631" y="-200" type="line"/>
    </contour>
  </outline>
</glyph>
<glyph name="bracketright" format="2">
  <advance width="883"/>
  <unicode hex="005D"/>
  <outline>
    <contour>
      <point x="268" y="1320" type="line"/>
      <point x="324" y="1640" type="line"/>
      <point x="1102" y="1640" type="line"/>
      <point x="757" y="-320" type="line"/>
      <point x="-21" y="-320" type="line"/>
      <point x="35" y="0" type="line"/>
      <point x="453" y="0" type="line"/>
      <point x="686" y="1320" type="line"/>
    </contour>
  </outline>
</glyph>
<glyph name="asciicircum" format="2">
  <advance width="1232"/>
  <unicode hex="005E"/>
  <outline>
    <contour>
      <point x="737" y="656" type="line"/>
      <point x="619" y="1080" type="line"/>
      <point x="349" y="656" type="line"/>
      <point x="-23" y="656" type="line"/>
      <point x="513" y="1480" type="line"/>
      <point x="865" y="1480" type="line"/>
      <point x="1109" y="656" type="line"/>
    </contour>
  </outline>
</glyph>
<glyph name="underscore" format="2">
  <advance width="1232"/>
  <unicode hex="005F"/>
  <outline>
    <contour>
      <point x="28" y="0" type="line"/>
      <point x="1260" y="0" type="line"/>
      <point x="1204" y="-320" type="line"/>
      <point x="-28" y="-320" type="line"/>
    </contour>
  </outline>
</glyph>
<glyph name="grave" format="2">
  <advance width="652"/>
  <unicode hex="0060"/>
  <outline>
    <contour>
      <point x="131" y="1224" type="line"/>
      <point x="-95" y="1480" type="line"/>
      <point x="309" y="1480" type="line"/>
      <point x="487" y="1224" type="line"/>
    </contour>
  </outline>
</glyph>
<glyph name="a" format="2">
  <advance width="1249"/>
  <unicode hex="0061"/>
  <anchor x="525" y="-30" name="bottom_cedilla"/>
  <anchor x="1289" y="1040" name="top_right"/>
  <anchor x="578" y="0" name="bottom_center"/>
  <anchor x="801" y="1040" name="top_center"/>
  <anchor x="1142" y="0" name="bottom_right"/>
  <outline>
    <contour>
      <point x="1065" y="408" type="curve" smooth="yes"/>
      <point x="1065" y="149"/>
      <point x="859" y="-30"/>
      <point x="525" y="-30" type="curve" smooth="yes"/>
      <point x="249" y="-30"/>
      <point x="104" y="104"/>
      <point x="104" y="277" type="curve" smooth="yes"/>
      <point x="104" y="537"/>
      <point x="371" y="680"/>
      <point x="698" y="680" type="curve" smooth="yes"/>
      <point x="938" y="680"/>
      <point x="1065" y="573"/>
    </contour>
    <contour>
      <point x="649" y="400" type="curve" smooth="yes"/>
      <point x="546" y="398"/>
      <point x="474" y="387"/>
      <point x="470" y="339" type="curve" smooth="yes"/>
      <point x="470" y="303"/>
      <point x="534" y="290"/>
      <point x="629" y="290" type="curve" smooth="yes"/>
      <point x="732" y="292"/>
      <point x="803" y="303"/>
      <point x="807" y="351" type="curve" smooth="yes"/>
      <point x="807" y="387"/>
      <point x="744" y="400"/>
    </contour>
    <contour>
      <point x="1170" y="351" type="curve" smooth="yes"/>
      <point x="1170" y="301"/>
      <point x="1197" y="258"/>
      <point x="1259" y="258" type="curve"/>
      <point x="1129" y="-30" type="line"/>
      <point x="881" y="-11"/>
      <point x="789" y="161"/>
      <point x="789" y="235" type="curve" smooth="yes"/>
      <point x="789" y="239"/>
      <point x="789" y="243"/>
      <point x="790" y="247" type="curve"/>
      <point x="823" y="266" type="line"/>
      <point x="851" y="428" type="line"/>
      <point x="825" y="450" type="line"/>
      <point x="862" y="658" type="line" smooth="yes"/>
      <point x="863" y="665"/>
      <point x="864" y="672"/>
      <point x="864" y="679" type="curve" smooth="yes"/>
      <point x="864" y="728"/>
      <point x="828" y="761"/>
      <point x="712" y="761" type="curve" smooth="yes"/>
      <point x="486" y="761"/>
      <point x="385" y="695"/>
      <point x="385" y="695" type="curve"/>
      <point x="268" y="966" type="line"/>
      <point x="268" y="966"/>
      <point x="482" y="1080"/>
      <point x="768" y="1080" type="curve" smooth="yes"/>
      <point x="1029" y="1080"/>
      <point x="1227" y="1000"/>
      <point x="1227" y="740" type="curve" smooth="yes"/>
      <point x="1227" y="706"/>
      <point x="1224" y="669"/>
      <point x="1217" y="628" type="curve" smooth="yes"/>
      <point x="1172" y="377" type="line" smooth="yes"/>
      <point x="1170" y="368"/>
      <point x="1170" y="359"/>
    </contour>
  </outline>
</glyph>
<glyph name="b" format="2">
  <advance width="1250"/>
  <unicode hex="0062"/>
  <anchor x="567" y="0" name="bottom_center"/>
  <anchor x="365" y="1380" name="top_center"/>
  <outline>
    <contour>
      <point x="392" y="510" type="curve" smooth="yes"/>
      <point x="369" y="380"/>
      <point x="422" y="290"/>
      <point x="553" y="290" type="curve" smooth="yes"/>
      <point x="690" y="290"/>
      <point x="781" y="390"/>
      <point x="804" y="520" type="curve" smooth="yes"/>
      <point x="827" y="650"/>
      <point x="771" y="750"/>
      <point x="634" y="750" type="curve" smooth="yes"/>
      <point x="497" y="750"/>
      <point x="415" y="640"/>
    </contour>
    <contour>
      <point x="-28" y="168" type="curve"/>
      <point x="203" y="1480" type="line"/>
      <point x="563" y="1480" type="line"/>
      <point x="464" y="920" type="line"/>
      <point x="481" y="959"/>
      <point x="606" y="1070"/>
      <point x="756" y="1070" type="curve" smooth="yes"/>
      <point x="1076" y="1070"/>
      <point x="1220" y="840"/>
      <point x="1164" y="520" type="curve" smooth="yes"/>
      <point x="1108" y="200"/>
      <point x="882" y="-30"/>
      <point x="562" y="-30" type="curve" smooth="yes"/>
      <point x="412" y="-30"/>
      <point x="304" y="80"/>
      <point x="311" y="120" type="curve"/>
      <point x="290" y="0" type="line"/>
      <point x="-58" y="0" type="line"/>
      <point x="-58" y="0"/>
      <point x="-46" y="66"/>
    </contour>
  </outline>
</glyph>
<glyph name="c" format="2">
  <advance width="1139"/>
  <unicode hex="0063"/>
  <anchor x="692" y="1040" name="top_center"/>
  <anchor x="510" y="0" name="bottom_center"/>
  <anchor x="507" y="-20" name="bottom_cedilla"/>
  <outline>
    <contour>
      <point x="410" y="520" type="curve" smooth="yes"/>
      <point x="386" y="383"/>
      <point x="424" y="290"/>
      <point x="561" y="290" type="curve" smooth="yes"/>
      <point x="665" y="290"/>
      <point x="730" y="344"/>
      <point x="766" y="430" type="curve"/>
      <point x="1042" y="252" type="line"/>
      <point x="923" y="79"/>
      <point x="726" y="-30"/>
      <point x="505" y="-30" type="curve" smooth="yes"/>
      <point x="185" y="-30"/>
      <point x="-6" y="200"/>
      <point x="50" y="520" type="curve" smooth="yes"/>
      <point x="106" y="840"/>
      <point x="377" y="1070"/>
      <point x="697" y="1070" type="curve" smooth="yes"/>
      <point x="918" y="1070"/>
      <point x="1077" y="961"/>
      <point x="1134" y="788" type="curve"/>
      <point x="796" y="610" type="line"/>
      <point x="790" y="696"/>
      <point x="745" y="750"/>
      <point x="641" y="750" type="curve" smooth="yes"/>
      <point x="504" y="750"/>
      <point x="434" y="657"/>
    </contour>
  </outline>
</glyph>
<glyph name="d" format="2">
  <advance width="1250"/>
  <unicode hex="0064"/>
  <anchor x="424" y="-20" name="bottom_cedilla"/>
  <anchor x="427" y="0" name="bottom_center"/>
  <anchor x="1115" y="1380" name="top_center"/>
  <anchor x="1313" y="1480" name="top_right"/>
  <outline>
    <contour>
      <point x="782" y="510" type="curve" smooth="yes"/>
      <point x="805" y="640"/>
      <point x="761" y="750"/>
      <point x="624" y="750" type="curve" smooth="yes"/>
      <point x="487" y="750"/>
      <point x="397" y="650"/>
      <point x="374" y="520" type="curve" smooth="yes"/>
      <point x="351" y="390"/>
      <point x="406" y="290"/>
      <point x="543" y="290" type="curve" smooth="yes"/>
      <point x="674" y="290"/>
      <point x="759" y="380"/>
    </contour>
    <contour>
      <point x="1082" y="168" type="line"/>
      <point x="1064" y="66"/>
      <point x="1076" y="0"/>
      <point x="1076" y="0" type="curve"/>
      <point x="728" y="0" type="line"/>
      <point x="728" y="0"/>
      <point x="714" y="60"/>
      <point x="725" y="120" type="curve"/>
      <point x="718" y="80"/>
      <point x="572" y="-30"/>
      <point x="422" y="-30" type="curve" smooth="yes"/>
      <point x="102" y="-30"/>
      <point x="-42" y="200"/>
      <point x="14" y="520" type="curve" smooth="yes"/>
      <point x="70" y="840"/>
      <point x="296" y="1070"/>
      <point x="616" y="1070" type="curve" smooth="yes"/>
      <point x="766" y="1070"/>
      <point x="851" y="959"/>
      <point x="854" y="920" type="curve"/>
      <point x="953" y="1480" type="line"/>
      <point x="1313" y="1480" type="line"/>
    </contour>
  </outline>
</glyph>
<glyph name="e" format="2">
  <advance width="1200"/>
  <unicode hex="0065"/>
  <anchor x="596" y="-20" name="bottom_cedilla"/>
  <anchor x="803" y="0" name="bottom_right"/>
  <anchor x="600" y="0" name="bottom_center"/>
  <anchor x="783" y="1040" name="top_center"/>
  <outline>
    <contour>
      <point x="292" y="660" type="line"/>
      <point x="1198" y="660" type="line"/>
      <point x="851" y="400" type="line"/>
      <point x="247" y="400" type="line"/>
    </contour>
    <contour>
      <point x="732" y="750" type="curve" smooth="yes"/>
      <point x="582" y="748"/>
      <point x="458" y="642"/>
      <point x="458" y="475" type="curve" smooth="yes"/>
      <point x="458" y="368"/>
      <point x="530" y="290"/>
      <point x="651" y="290" type="curve" smooth="yes"/>
      <point x="765" y="290"/>
      <point x="829" y="329"/>
      <point x="854" y="368" type="curve"/>
      <point x="1139" y="242" type="line"/>
      <point x="1016" y="65"/>
      <point x="817" y="-30"/>
      <point x="595" y="-30" type="curve" smooth="yes"/>
      <point x="312" y="-30"/>
      <point x="132" y="148"/>
      <point x="132" y="410" type="curve" smooth="yes"/>
      <point x="132" y="806"/>
      <point x="437" y="1070"/>
      <point x="789" y="1070" type="curve" smooth="yes"/>
      <point x="1071" y="1070"/>
      <point x="1252" y="891"/>
      <point x="1252" y="629" type="curve" smooth="yes"/>
      <point x="1252" y="545"/>
      <point x="1233" y="465"/>
      <point x="1209" y="400" type="curve"/>
      <point x="851" y="400" type="line"/>
      <point x="880" y="449"/>
      <point x="917" y="496"/>
      <point x="917" y="573" type="curve" smooth="yes"/>
      <point x="917" y="680"/>
      <point x="850" y="750"/>
    </contour>
  </outline>
</glyph>
<glyph name="f" format="2">
  <advance width="1173"/>
  <unicode hex="0066"/>
  <anchor x="223" y="-360" name="bottom_center"/>
  <anchor x="839" y="1380" name="top_center"/>
  <outline>
    <contour>
      <point x="196" y="-78" type="curve" smooth="yes"/>
      <point x="337" y="720" type="line"/>
      <point x="85" y="720" type="line"/>
      <point x="141" y="1040" type="line"/>
      <point x="393" y="1040" type="line"/>
      <point x="395" y="1050" type="line"/>
      <point x="444" y="1330"/>
      <point x="610" y="1510"/>
      <point x="970" y="1510" type="curve" smooth="yes"/>
      <point x="1091" y="1510"/>
      <point x="1171" y="1482"/>
      <point x="1223" y="1458" type="curve"/>
      <point x="1075" y="1135" type="line"/>
      <point x="1049" y="1167"/>
      <point x="978" y="1190"/>
      <point x="918" y="1190" type="curve" smooth="yes"/>
      <point x="828" y="1190"/>
      <point x="773" y="1150"/>
      <point x="755" y="1050" type="curve"/>
      <point x="753" y="1040" type="line"/>
      <point x="1058" y="1040" type="line"/>
      <point x="1002" y="720" type="line"/>
      <point x="697" y="720" type="line"/>
      <point x="556" y="-78" type="line" smooth="yes"/>
      <point x="503" y="-378"/>
      <point x="243" y="-470"/>
      <point x="59" y="-470" type="curve" smooth="yes"/>
      <point x="-29" y="-470"/>
      <point x="-71" y="-439"/>
      <point x="-95" y="-426" type="curve"/>
      <point x="56" y="-134" type="line"/>
      <point x="67" y="-143"/>
      <point x="97" y="-150"/>
      <point x="116" y="-150" type="curve" smooth="yes"/>
      <point x="168" y="-150"/>
      <point x="187" y="-128"/>
    </contour>
  </outline>
</glyph>
<glyph name="g" format="2">
  <advance width="1232"/>
  <unicode hex="0067"/>
  <anchor x="468" y="-360" name="bottom_center"/>
  <anchor x="715" y="1040" name="top_center"/>
  <outline>
    <contour>
      <point x="858" y="980" type="line"/>
      <point x="904" y="1041"/>
      <point x="1007" y="1120"/>
      <point x="1157" y="1120" type="curve" smooth="yes"/>
      <point x="1228" y="1120"/>
      <point x="1289" y="1108"/>
      <point x="1341" y="1084" type="curve"/>
      <point x="1173" y="741" type="line"/>
      <point x="1142" y="780"/>
      <point x="1088" y="800"/>
      <point x="1005" y="800" type="curve" smooth="yes"/>
      <point x="875" y="800"/>
      <point x="828" y="742"/>
      <point x="809" y="632" type="curve"/>
    </contour>
    <contour>
      <point x="623" y="520" type="curve"/>
      <point x="581" y="280" type="line"/>
      <point x="486" y="280"/>
      <point x="431" y="275"/>
      <point x="428" y="260" type="curve" smooth="yes"/>
      <point x="425" y="245"/>
      <point x="444" y="240"/>
      <point x="574" y="240" type="curve"/>
      <point x="518" y="-80" type="line"/>
      <point x="270" y="-80"/>
      <point x="82" y="30"/>
      <point x="119" y="240" type="curve" smooth="yes"/>
      <point x="154" y="440"/>
      <point x="455" y="520"/>
    </contour>
    <contour>
      <point x="1132" y="-100" type="curve" smooth="yes"/>
      <point x="1093" y="-320"/>
      <point x="882" y="-470"/>
      <point x="449" y="-470" type="curve" smooth="yes"/>
      <point x="16" y="-470"/>
      <point x="-87" y="-315"/>
      <point x="-52" y="-114" type="curve" smooth="yes"/>
      <point x="-13" y="107"/>
      <point x="278" y="160"/>
      <point x="560" y="160" type="curve"/>
      <point x="528" y="-20" type="line"/>
      <point x="378" y="-20"/>
      <point x="318" y="-58"/>
      <point x="311" y="-95" type="curve" smooth="yes"/>
      <point x="304" y="-132"/>
      <point x="360" y="-150"/>
      <point x="505" y="-150" type="curve" smooth="yes"/>
      <point x="650" y="-150"/>
      <point x="763" y="-150"/>
      <point x="770" y="-110" type="curve" smooth="yes"/>
      <point x="775" y="-80"/>
      <point x="664" y="-80"/>
      <point x="518" y="-80" type="curve"/>
      <point x="574" y="240" type="line"/>
      <point x="999" y="240"/>
      <point x="1167" y="100"/>
    </contour>
    <contour>
      <point x="555" y="675" type="curve" smooth="yes"/>
      <point x="547" y="627"/>
      <point x="577" y="600"/>
      <point x="637" y="600" type="curve" smooth="yes"/>
      <point x="697" y="600"/>
      <point x="739" y="627"/>
      <point x="747" y="675" type="curve" smooth="yes"/>
      <point x="755" y="723"/>
      <point x="724" y="750"/>
      <point x="664" y="750" type="curve" smooth="yes"/>
      <point x="604" y="750"/>
      <point x="563" y="723"/>
    </contour>
    <contour>
      <point x="195" y="675" type="curve" smooth="yes"/>
      <point x="234" y="894"/>
      <point x="457" y="1070"/>
      <point x="720" y="1070" type="curve" smooth="yes"/>
      <point x="983" y="1070"/>
      <point x="1146" y="894"/>
      <point x="1107" y="675" type="curve" smooth="yes"/>
      <point x="1068" y="456"/>
      <point x="844" y="280"/>
      <point x="581" y="280" type="curve" smooth="yes"/>
      <point x="318" y="280"/>
      <point x="156" y="456"/>
    </contour>
  </outline>
</glyph>
<glyph name="h" format="2">
  <advance width="1192"/>
  <unicode hex="0068"/>
  <anchor x="246" y="-20" name="bottom_cedilla"/>
  <anchor x="596" y="0" name="bottom_center"/>
  <anchor x="493" y="1380" name="top_center"/>
  <outline>
    <contour>
      <point x="762" y="0" type="line"/>
      <point x="863" y="572" type="line" smooth="yes"/>
      <point x="867" y="594"/>
      <point x="869" y="614"/>
      <point x="869" y="632" type="curve" smooth="yes"/>
      <point x="869" y="706"/>
      <point x="833" y="750"/>
      <point x="728" y="750" type="curve" smooth="yes"/>
      <point x="598" y="750"/>
      <point x="550" y="682"/>
      <point x="531" y="572" type="curve" smooth="yes"/>
      <point x="430" y="0" type="line"/>
      <point x="70" y="0" type="line"/>
      <point x="331" y="1480" type="line"/>
      <point x="679" y="1480" type="line"/>
      <point x="580" y="920" type="line"/>
      <point x="626" y="981"/>
      <point x="731" y="1070"/>
      <point x="881" y="1070" type="curve" smooth="yes"/>
      <point x="1105" y="1070"/>
      <point x="1236" y="941"/>
      <point x="1236" y="707" type="curve" smooth="yes"/>
      <point x="1236" y="665"/>
      <point x="1231" y="620"/>
      <point x="1223" y="572" type="curve" smooth="yes"/>
      <point x="1122" y="0" type="line"/>
    </contour>
  </outline>
</glyph>
<glyph name="k" format="2">
  <advance width="1163"/>
  <unicode hex="006B"/>
  <anchor x="584" y="0" name="bottom_center"/>
  <anchor x="493" y="1380" name="top_center"/>
  <outline>
    <contour>
      <point x="398" y="643" type="line"/>
      <point x="798" y="660" type="line"/>
      <point x="1158" y="0" type="line"/>
      <point x="738" y="0" type="line"/>
    </contour>
    <contour>
      <point x="491" y="344" type="line"/>
      <point x="430" y="0" type="line"/>
      <point x="70" y="0" type="line"/>
      <point x="331" y="1480" type="line"/>
      <point x="691" y="1480" type="line"/>
      <point x="572" y="808" type="line"/>
      <point x="845" y="1040" type="line"/>
      <point x="1309" y="1040" type="line"/>
    </contour>
  </outline>
</glyph>
<glyph name="l" format="2">
  <advance width="665"/>
  <unicode hex="006C"/>
  <anchor x="351" y="0" name="bottom_center"/>
  <anchor x="493" y="1380" name="top_center"/>
  <outline>
    <contour>
      <point x="494" y="362" type="line" smooth="yes"/>
      <point x="492" y="352"/>
      <point x="491" y="344"/>
      <point x="491" y="336" type="curve" smooth="yes"/>
      <point x="491" y="304"/>
      <point x="507" y="290"/>
      <point x="549" y="290" type="curve" smooth="yes"/>
      <point x="568" y="290"/>
      <point x="599" y="297"/>
      <point x="614" y="306" type="curve"/>
      <point x="662" y="14" type="line"/>
      <point x="634" y="1"/>
      <point x="581" y="-30"/>
      <point x="493" y="-30" type="curve" smooth="yes"/>
      <point x="327" y="-30"/>
      <point x="126" y="44"/>
      <point x="126" y="278" type="curve" smooth="yes"/>
      <point x="126" y="304"/>
      <point x="129" y="332"/>
      <point x="134" y="362" type="curve" smooth="yes"/>
      <point x="331" y="1480" type="line"/>
      <point x="691" y="1480" type="line"/>
    </contour>
  </outline>
</glyph>
<glyph name="m" format="2">
  <advance width="1644"/>
  <unicode hex="006D"/>
  <anchor x="728" y="0" name="bottom_center"/>
  <anchor x="911" y="1040" name="top_center"/>
  <outline>
    <contour>
      <point x="548" y="0" type="line"/>
      <point x="649" y="572" type="line" smooth="yes"/>
      <point x="668" y="682"/>
      <point x="674" y="750"/>
      <point x="574" y="750" type="curve" smooth="yes"/>
      <point x="474" y="750"/>
      <point x="456" y="682"/>
      <point x="437" y="572" type="curve" smooth="yes"/>
      <point x="336" y="0" type="line"/>
      <point x="-24" y="0" type="line"/>
      <point x="159" y="1040" type="line"/>
      <point x="507" y="1040" type="line"/>
      <point x="486" y="920" type="line"/>
      <point x="486" y="920"/>
      <point x="576" y="1070"/>
      <point x="726" y="1070" type="curve" smooth="yes"/>
      <point x="859" y="1070"/>
      <point x="945" y="1024"/>
      <point x="989" y="938" type="curve"/>
      <point x="1063" y="1024"/>
      <point x="1165" y="1070"/>
      <point x="1298" y="1070" type="curve" smooth="yes"/>
      <point x="1562" y="1070"/>
      <point x="1637" y="892"/>
      <point x="1581" y="572" type="curve" smooth="yes"/>
      <point x="1480" y="0" type="line"/>
      <point x="1120" y="0" type="line"/>
      <point x="1221" y="572" type="line" smooth="yes"/>
      <point x="1240" y="682"/>
      <point x="1246" y="750"/>
      <point x="1146" y="750" type="curve" smooth="yes"/>
      <point x="1046" y="750"/>
      <point x="1028" y="682"/>
      <point x="1009" y="572" type="curve" smooth="yes"/>
      <point x="908" y="0" type="line"/>
    </contour>
  </outline>
</glyph>
<glyph name="n" format="2">
  <advance width="1192"/>
  <unicode hex="006E"/>
  <anchor x="596" y="0" name="bottom_center"/>
  <anchor x="779" y="1040" name="top_center"/>
  <outline>
    <contour>
      <point x="762" y="0" type="line"/>
      <point x="863" y="572" type="line" smooth="yes"/>
      <point x="867" y="594"/>
      <point x="869" y="614"/>
      <point x="869" y="632" type="curve" smooth="yes"/>
      <point x="869" y="706"/>
      <point x="833" y="750"/>
      <point x="728" y="750" type="curve" smooth="yes"/>
      <point x="598" y="750"/>
      <point x="550" y="682"/>
      <point x="531" y="572" type="curve" smooth="yes"/>
      <point x="430" y="0" type="line"/>
      <point x="70" y="0" type="line"/>
      <point x="253" y="1040" type="line"/>
      <point x="601" y="1040" type="line"/>
      <point x="580" y="920" type="line"/>
      <point x="626" y="981"/>
      <point x="731" y="1070"/>
      <point x="881" y="1070" type="curve" smooth="yes"/>
      <point x="1105" y="1070"/>
      <point x="1236" y="941"/>
      <point x="1236" y="707" type="curve" smooth="yes"/>
      <point x="1236" y="665"/>
      <point x="1231" y="620"/>
      <point x="1223" y="572" type="curve" smooth="yes"/>
      <point x="1122" y="0" type="line"/>
    </contour>
  </outline>
</glyph>
<glyph name="o" format="2">
  <advance width="1200"/>
  <unicode hex="006F"/>
  <anchor x="598" y="-20" name="bottom_cedilla"/>
  <anchor x="791" y="0" name="bottom_right"/>
  <anchor x="1275" y="1040" name="top_right"/>
  <anchor x="600" y="0" name="bottom_center"/>
  <anchor x="783" y="1040" name="top_center"/>
  <outline>
    <contour>
      <point x="732" y="750" type="curve" smooth="yes"/>
      <point x="574" y="750"/>
      <point x="495" y="622"/>
      <point x="495" y="452" type="curve" smooth="yes"/>
      <point x="495" y="357"/>
      <point x="539" y="290"/>
      <point x="651" y="290" type="curve" smooth="yes"/>
      <point x="811" y="290"/>
      <point x="889" y="420"/>
      <point x="889" y="592" type="curve" smooth="yes"/>
      <point x="889" y="689"/>
      <point x="843" y="750"/>
    </contour>
    <contour>
      <point x="132" y="411" type="curve" smooth="yes"/>
      <point x="132" y="806"/>
      <point x="437" y="1070"/>
      <point x="789" y="1070" type="curve" smooth="yes"/>
      <point x="1071" y="1070"/>
      <point x="1252" y="891"/>
      <point x="1252" y="629" type="curve" smooth="yes"/>
      <point x="1252" y="234"/>
      <point x="947" y="-30"/>
      <point x="595" y="-30" type="curve" smooth="yes"/>
      <point x="313" y="-30"/>
      <point x="132" y="149"/>
    </contour>
  </outline>
</glyph>
<glyph name="p" format="2">
  <advance width="1250"/>
  <unicode hex="0070"/>
  <anchor x="131" y="-360" name="bottom_center"/>
  <anchor x="758" y="1040" name="top_center"/>
  <outline>
    <contour>
      <point x="468" y="530" type="curve" smooth="yes"/>
      <point x="445" y="400"/>
      <point x="489" y="290"/>
      <point x="626" y="290" type="curve" smooth="yes"/>
      <point x="763" y="290"/>
      <point x="853" y="390"/>
      <point x="876" y="520" type="curve" smooth="yes"/>
      <point x="899" y="650"/>
      <point x="844" y="750"/>
      <point x="707" y="750" type="curve" smooth="yes"/>
      <point x="576" y="750"/>
      <point x="491" y="660"/>
    </contour>
    <contour>
      <point x="168" y="872" type="line"/>
      <point x="186" y="974"/>
      <point x="198" y="1040"/>
      <point x="198" y="1040" type="curve"/>
      <point x="546" y="1040" type="line"/>
      <point x="525" y="920" type="line"/>
      <point x="532" y="960"/>
      <point x="678" y="1070"/>
      <point x="828" y="1070" type="curve" smooth="yes"/>
      <point x="1148" y="1070"/>
      <point x="1292" y="840"/>
      <point x="1236" y="520" type="curve" smooth="yes"/>
      <point x="1180" y="200"/>
      <point x="954" y="-30"/>
      <point x="634" y="-30" type="curve" smooth="yes"/>
      <point x="484" y="-30"/>
      <point x="399" y="81"/>
      <point x="396" y="120" type="curve"/>
      <point x="297" y="-440" type="line"/>
      <point x="-63" y="-440" type="line"/>
    </contour>
  </outline>
</glyph>
<glyph name="q" format="2">
  <advance width="1250"/>
  <unicode hex="0071"/>
  <anchor x="937" y="-360" name="bottom_center"/>
  <anchor x="803" y="1040" name="top_center"/>
  <outline>
    <contour>
      <point x="671" y="290" type="curve" smooth="yes"/>
      <point x="825" y="293"/>
      <point x="919" y="423"/>
      <point x="919" y="586" type="curve" smooth="yes"/>
      <point x="919" y="685"/>
      <point x="863" y="750"/>
      <point x="752" y="750" type="curve" smooth="yes"/>
      <point x="598" y="747"/>
      <point x="503" y="629"/>
      <point x="497" y="465" type="curve" smooth="yes"/>
      <point x="497" y="363"/>
      <point x="554" y="290"/>
    </contour>
    <contour>
      <point x="1102" y="-440" type="line"/>
      <point x="742" y="-440" type="line"/>
      <point x="841" y="120" type="line"/>
      <point x="824" y="81"/>
      <point x="700" y="-30"/>
      <point x="550" y="-30" type="curve" smooth="yes"/>
      <point x="275" y="-30"/>
      <point x="130" y="140"/>
      <point x="130" y="390" type="curve" smooth="yes"/>
      <point x="130" y="789"/>
      <point x="385" y="1066"/>
      <point x="744" y="1070" type="curve" smooth="yes"/>
      <point x="894" y="1070"/>
      <point x="993" y="960"/>
      <point x="994" y="920" type="curve"/>
      <point x="1015" y="1040" type="line"/>
      <point x="1363" y="1040" type="line"/>
    </contour>
  </outline>
</glyph>
<glyph name="r" format="2">
  <advance width="887"/>
  <unicode hex="0072"/>
  <anchor x="250" y="0" name="bottom_center"/>
  <anchor x="673" y="1040" name="top_center"/>
  <outline>
    <contour>
      <point x="897" y="691" type="line"/>
      <point x="866" y="730"/>
      <point x="811" y="750"/>
      <point x="728" y="750" type="curve" smooth="yes"/>
      <point x="598" y="750"/>
      <point x="550" y="682"/>
      <point x="531" y="572" type="curve" smooth="yes"/>
      <point x="430" y="0" type="line"/>
      <point x="70" y="0" type="line"/>
      <point x="253" y="1040" type="line"/>
      <point x="601" y="1040" type="line"/>
      <point x="580" y="920" type="line"/>
      <point x="626" y="981"/>
      <point x="731" y="1070"/>
      <point x="881" y="1070" type="curve" smooth="yes"/>
      <point x="952" y="1070"/>
      <point x="1012" y="1058"/>
      <point x="1064" y="1034" type="curve"/>
    </contour>
  </outline>
</glyph>
<glyph name="s" format="2">
  <advance width="1066"/>
  <unicode hex="0073"/>
  <anchor x="434" y="-20" name="bottom_cedilla"/>
  <anchor x="621" y="1040" name="top_center"/>
  <anchor x="437" y="0" name="bottom_center"/>
  <anchor x="658" y="0" name="bottom_right"/>
  <outline>
    <contour>
      <point x="626" y="1070" type="curve" smooth="yes"/>
      <point x="906" y="1070"/>
      <point x="1022" y="931"/>
      <point x="1040" y="775" type="curve"/>
      <point x="677" y="685" type="line"/>
      <point x="681" y="705"/>
      <point x="670" y="750"/>
      <point x="570" y="750" type="curve" smooth="yes"/>
      <point x="500" y="750"/>
      <point x="478" y="735"/>
      <point x="474" y="715" type="curve" smooth="yes"/>
      <point x="470" y="695"/>
      <point x="497" y="675"/>
      <point x="554" y="663" type="curve" smooth="yes"/>
      <point x="836" y="601"/>
      <point x="1024" y="566"/>
      <point x="982" y="326" type="curve" smooth="yes"/>
      <point x="940" y="86"/>
      <point x="708" y="-30"/>
      <point x="432" y="-30" type="curve" smooth="yes"/>
      <point x="193" y="-30"/>
      <point x="21" y="85"/>
      <point x="5" y="265" type="curve"/>
      <point x="373" y="356" type="line"/>
      <point x="368" y="326"/>
      <point x="398" y="290"/>
      <point x="488" y="290" type="curve" smooth="yes"/>
      <point x="578" y="290"/>
      <point x="617" y="296"/>
      <point x="622" y="326" type="curve" smooth="yes"/>
      <point x="627" y="356"/>
      <point x="562" y="371"/>
      <point x="505" y="383" type="curve" smooth="yes"/>
      <point x="235" y="442"/>
      <point x="79" y="515"/>
      <point x="114" y="715" type="curve" smooth="yes"/>
      <point x="149" y="915"/>
      <point x="346" y="1070"/>
    </contour>
  </outline>
</glyph>
<glyph name="t" format="2">
  <advance width="1058"/>
  <unicode hex="0074"/>
  <anchor x="636" y="-20" name="bottom_cedilla"/>
  <anchor x="557" y="0" name="bottom_center"/>
  <anchor x="700" y="1380" name="top_center"/>
  <outline>
    <contour>
      <point x="278" y="1028" type="line" smooth="yes"/>
      <point x="398" y="1028"/>
      <point x="496" y="1106"/>
      <point x="517" y="1226" type="curve" smooth="yes"/>
      <point x="534" y="1320" type="line"/>
      <point x="870" y="1320" type="line"/>
      <point x="820" y="1040" type="line"/>
      <point x="1125" y="1040" type="line"/>
      <point x="1069" y="720" type="line"/>
      <point x="764" y="720" type="line"/>
      <point x="715" y="440" type="line" smooth="yes"/>
      <point x="712" y="424"/>
      <point x="710" y="410"/>
      <point x="710" y="397" type="curve" smooth="yes"/>
      <point x="710" y="326"/>
      <point x="750" y="290"/>
      <point x="826" y="290" type="curve" smooth="yes"/>
      <point x="886" y="290"/>
      <point x="965" y="313"/>
      <point x="1003" y="345" type="curve"/>
      <point x="1037" y="22" type="line"/>
      <point x="977" y="-2"/>
      <point x="887" y="-30"/>
      <point x="766" y="-30" type="curve" smooth="yes"/>
      <point x="462" y="-30"/>
      <point x="343" y="105"/>
      <point x="343" y="316" type="curve" smooth="yes"/>
      <point x="343" y="355"/>
      <point x="347" y="396"/>
      <point x="355" y="440" type="curve" smooth="yes"/>
      <point x="404" y="720" type="line"/>
      <point x="152" y="720" type="line"/>
      <point x="206" y="1028" type="line"/>
    </contour>
  </outline>
</glyph>
<glyph name="u" format="2">
  <advance width="1192"/>
  <unicode hex="0075"/>
  <anchor x="496" y="-20" name="bottom_cedilla"/>
  <anchor x="779" y="1040" name="top_center"/>
  <anchor x="1305" y="1040" name="top_right"/>
  <anchor x="596" y="0" name="bottom_center"/>
  <anchor x="1146" y="0" name="bottom_right"/>
  <outline>
    <contour>
      <point x="613" y="1040" type="line"/>
      <point x="513" y="468" type="line" smooth="yes"/>
      <point x="509" y="446"/>
      <point x="507" y="426"/>
      <point x="507" y="408" type="curve" smooth="yes"/>
      <point x="507" y="334"/>
      <point x="542" y="290"/>
      <point x="647" y="290" type="curve" smooth="yes"/>
      <point x="777" y="290"/>
      <point x="826" y="358"/>
      <point x="845" y="468" type="curve" smooth="yes"/>
      <point x="945" y="1040" type="line"/>
      <point x="1305" y="1040" type="line"/>
      <point x="1152" y="168" type="line" smooth="yes"/>
      <point x="1144" y="125"/>
      <point x="1142" y="89"/>
      <point x="1142" y="61" type="curve" smooth="yes"/>
      <point x="1142" y="23"/>
      <point x="1146" y="0"/>
      <point x="1146" y="0" type="curve"/>
      <point x="797" y="0" type="line"/>
      <point x="797" y="0"/>
      <point x="790" y="30"/>
      <point x="790" y="70" type="curve" smooth="yes"/>
      <point x="790" y="86"/>
      <point x="791" y="103"/>
      <point x="794" y="120" type="curve"/>
      <point x="748" y="59"/>
      <point x="645" y="-30"/>
      <point x="495" y="-30" type="curve" smooth="yes"/>
      <point x="271" y="-30"/>
      <point x="140" y="99"/>
      <point x="140" y="333" type="curve" smooth="yes"/>
      <point x="140" y="375"/>
      <point x="145" y="420"/>
      <point x="153" y="468" type="curve" smooth="yes"/>
      <point x="253" y="1040" type="line"/>
    </contour>
  </outline>
</glyph>
<glyph name="v" format="2">
  <advance width="1174"/>
  <unicode hex="0076"/>
  <anchor x="495" y="0" name="bottom_center"/>
  <anchor x="679" y="1040" name="top_center"/>
  <outline>
    <contour>
      <point x="575" y="404" type="line"/>
      <point x="847" y="1040" type="line"/>
      <point x="1231" y="1040" type="line"/>
      <point x="692" y="0" type="line"/>
      <point x="298" y="0" type="line"/>
      <point x="127" y="1040" type="line"/>
      <point x="511" y="1040" type="line"/>
    </contour>
  </outline>
</glyph>
<glyph name="w" format="2">
  <advance width="1832"/>
  <unicode hex="0077"/>
  <anchor x="819" y="0" name="bottom_center"/>
  <anchor x="1003" y="1040" name="top_center"/>
  <outline>
    <contour>
      <point x="237" y="0" type="line"/>
      <point x="127" y="1040" type="line"/>
      <point x="507" y="1040" type="line"/>
      <point x="546" y="440" type="line"/>
      <point x="823" y="1040" type="line"/>
      <point x="1183" y="1040" type="line"/>
      <point x="1258" y="440" type="line"/>
      <point x="1509" y="1040" type="line"/>
      <point x="1889" y="1040" type="line"/>
      <point x="1411" y="0" type="line"/>
      <point x="979" y="0" type="line"/>
      <point x="915" y="540" type="line"/>
      <point x="659" y="0" type="line"/>
    </contour>
  </outline>
</glyph>
<glyph name="x" format="2">
  <advance width="1212"/>
  <unicode hex="0078"/>
  <anchor x="514" y="0" name="bottom_center"/>
  <anchor x="698" y="1040" name="top_center"/>
  <outline>
    <contour>
      <point x="349" y="520" type="line"/>
      <point x="127" y="1040" type="line"/>
      <point x="544" y="1040" type="line"/>
      <point x="645" y="743" type="line"/>
      <point x="849" y="1040" type="line"/>
      <point x="1269" y="1040" type="line"/>
      <point x="863" y="520" type="line"/>
      <point x="1085" y="0" type="line"/>
      <point x="665" y="0" type="line"/>
      <point x="565" y="300" type="line"/>
      <point x="363" y="0" type="line"/>
      <point x="-57" y="0" type="line"/>
    </contour>
  </outline>
</glyph>
<glyph name="y" format="2">
  <advance width="1216"/>
  <unicode hex="0079"/>
  <anchor x="311" y="-360" name="bottom_center"/>
  <anchor x="812" y="1040" name="top_center"/>
  <outline>
    <contour>
      <point x="744" y="-158" type="line" smooth="yes"/>
      <point x="626" y="-386"/>
      <point x="498" y="-470"/>
      <point x="219" y="-470" type="curve" smooth="yes"/>
      <point x="98" y="-470"/>
      <point x="14" y="-439"/>
      <point x="-38" y="-415" type="curve"/>
      <point x="114" y="-95" type="line"/>
      <point x="140" y="-127"/>
      <point x="216" y="-150"/>
      <point x="276" y="-150" type="curve" smooth="yes"/>
      <point x="336" y="-150"/>
      <point x="397" y="-107"/>
      <point x="423" y="-44" type="curve"/>
      <point x="443" y="0" type="line"/>
      <point x="260" y="1040" type="line"/>
      <point x="644" y="1040" type="line"/>
      <point x="708" y="404" type="line"/>
      <point x="980" y="1040" type="line"/>
      <point x="1364" y="1040" type="line"/>
    </contour>
  </outline>
</glyph>
<glyph name="z" format="2">
  <advance width="1032"/>
  <unicode hex="007A"/>
  <anchor x="386" y="0" name="bottom_center"/>
  <anchor x="569" y="1040" name="top_center"/>
  <outline>
    <contour>
      <point x="123" y="1040" type="line"/>
      <point x="1015" y="1040" type="line"/>
      <point x="965" y="752" type="line"/>
      <point x="545" y="720" type="line"/>
      <point x="67" y="720" type="line"/>
    </contour>
    <contour>
      <point x="884" y="320" type="line"/>
      <point x="828" y="0" type="line"/>
      <point x="-60" y="0" type="line"/>
      <point x="-9" y="288" type="line"/>
      <point x="410" y="320" type="line"/>
    </contour>
    <contour>
      <point x="470" y="320" type="line"/>
      <point x="-9" y="288" type="line"/>
      <point x="485" y="720" type="line"/>
      <point x="965" y="752" type="line"/>
    </contour>
  </outline>
</glyph>
<glyph name="braceleft" format="2">
  <advance width="779"/>
  <unicode hex="007B"/>
  <outline>
    <contour>
      <point x="609" y="152" type="line" smooth="yes"/>
      <point x="607" y="140"/>
      <point x="606" y="129"/>
      <point x="606" y="118" type="curve" smooth="yes"/>
      <point x="606" y="36"/>
      <point x="662" y="-20"/>
      <point x="750" y="-20" type="curve"/>
      <point x="694" y="-340" type="line"/>
      <point x="427" y="-340"/>
      <point x="240" y="-187"/>
      <point x="240" y="58" type="curve" smooth="yes"/>
      <point x="240" y="88"/>
      <point x="243" y="119"/>
      <point x="249" y="152" type="curve" smooth="yes"/>
      <point x="275" y="302" type="line" smooth="yes"/>
      <point x="277" y="314"/>
      <point x="279" y="327"/>
      <point x="279" y="339" type="curve" smooth="yes"/>
      <point x="279" y="425"/>
      <point x="226" y="500"/>
      <point x="138" y="500" type="curve"/>
      <point x="195" y="820" type="line"/>
      <point x="462" y="820"/>
      <point x="644" y="648"/>
      <point x="644" y="399" type="curve" smooth="yes"/>
      <point x="644" y="368"/>
      <point x="641" y="335"/>
      <point x="635" y="302" type="curve" smooth="yes"/>
    </contour>
    <contour>
      <point x="788" y="1168" type="curve" smooth="yes"/>
      <point x="762" y="1018" type="line" smooth="yes"/>
      <point x="709" y="718"/>
      <point x="438" y="500"/>
      <point x="138" y="500" type="curve"/>
      <point x="195" y="820" type="line"/>
      <point x="295" y="820"/>
      <point x="384" y="918"/>
      <point x="402" y="1018" type="curve" smooth="yes"/>
      <point x="428" y="1168" type="line" smooth="yes"/>
      <point x="481" y="1468"/>
      <point x="747" y="1660"/>
      <point x="1047" y="1660" type="curve"/>
      <point x="990" y="1340" type="line"/>
      <point x="890" y="1340"/>
      <point x="806" y="1268"/>
    </contour>
  </outline>
</glyph>
<glyph name="bar" format="2">
  <advance width="500"/>
  <unicode hex="007C"/>
  <outline>
    <contour>
      <point x="593" y="1660" type="line"/>
      <point x="222" y="-440" type="line"/>
      <point x="-138" y="-440" type="line"/>
      <point x="233" y="1660" type="line"/>
    </contour>
  </outline>
</glyph>
<glyph name="braceright" format="2">
  <advance width="779"/>
  <unicode hex="007D"/>
  <outline>
    <contour>
      <point x="94" y="152" type="curve" smooth="yes"/>
      <point x="120" y="302" type="line" smooth="yes"/>
      <point x="173" y="602"/>
      <point x="444" y="820"/>
      <point x="744" y="820" type="curve"/>
      <point x="687" y="500" type="line"/>
      <point x="587" y="500"/>
      <point x="498" y="402"/>
      <point x="480" y="302" type="curve" smooth="yes"/>
      <point x="454" y="152" type="line" smooth="yes"/>
      <point x="401" y="-148"/>
      <point x="135" y="-340"/>
      <point x="-165" y="-340" type="curve"/>
      <point x="-109" y="-20" type="line"/>
      <point x="-9" y="-20"/>
      <point x="76" y="52"/>
    </contour>
    <contour>
      <point x="273" y="1168" type="line" smooth="yes"/>
      <point x="275" y="1180"/>
      <point x="276" y="1191"/>
      <point x="276" y="1202" type="curve" smooth="yes"/>
      <point x="276" y="1284"/>
      <point x="219" y="1340"/>
      <point x="131" y="1340" type="curve"/>
      <point x="188" y="1660" type="line"/>
      <point x="455" y="1660"/>
      <point x="641" y="1507"/>
      <point x="641" y="1262" type="curve" smooth="yes"/>
      <point x="641" y="1232"/>
      <point x="639" y="1201"/>
      <point x="633" y="1168" type="curve" smooth="yes"/>
      <point x="607" y="1018" type="line" smooth="yes"/>
      <point x="605" y="1006"/>
      <point x="603" y="993"/>
      <point x="603" y="981" type="curve" smooth="yes"/>
      <point x="603" y="895"/>
      <point x="656" y="820"/>
      <point x="744" y="820" type="curve"/>
      <point x="687" y="500" type="line"/>
      <point x="420" y="500"/>
      <point x="238" y="672"/>
      <point x="238" y="921" type="curve" smooth="yes"/>
      <point x="238" y="952"/>
      <point x="241" y="985"/>
      <point x="247" y="1018" type="curve" smooth="yes"/>
    </contour>
  </outline>
</glyph>
<glyph name="cent" format="2">
  <advance width="1137"/>
  <unicode hex="00A2"/>
  <outline>
    <contour>
      <point x="1022" y="1220" type="line"/>
      <point x="395" y="-180" type="line"/>
      <point x="99" y="-180" type="line"/>
      <point x="726" y="1220" type="line"/>
    </contour>
    <contour>
      <point x="602" y="750" type="curve" smooth="yes"/>
      <point x="372" y="750"/>
      <point x="365" y="480"/>
      <point x="365" y="448" type="curve" smooth="yes"/>
      <point x="365" y="352"/>
      <point x="410" y="290"/>
      <point x="521" y="290" type="curve" smooth="yes"/>
      <point x="625" y="290"/>
      <point x="690" y="344"/>
      <point x="726" y="430" type="curve"/>
      <point x="1001" y="252" type="line"/>
      <point x="882" y="79"/>
      <point x="686" y="-30"/>
      <point x="465" y="-30" type="curve" smooth="yes"/>
      <point x="183" y="-30"/>
      <point x="2" y="149"/>
      <point x="2" y="411" type="curve" smooth="yes"/>
      <point x="2" y="750"/>
      <point x="276" y="1070"/>
      <point x="658" y="1070" type="curve" smooth="yes"/>
      <point x="879" y="1070"/>
      <point x="1039" y="961"/>
      <point x="1096" y="788" type="curve"/>
      <point x="758" y="610" type="line"/>
      <point x="752" y="696"/>
      <point x="706" y="750"/>
    </contour>
  </outline>
</glyph>
<glyph name="sterling" format="2">
  <advance width="1452"/>
  <unicode hex="00A3"/>
  <outline>
    <contour>
      <point x="19" y="560" type="line"/>
      <point x="823" y="560" type="line"/>
      <point x="879" y="880" type="line"/>
      <point x="75" y="880" type="line"/>
    </contour>
    <contour>
      <point x="240" y="61" type="line"/>
      <point x="291" y="109"/>
      <point x="651" y="467"/>
      <point x="651" y="694" type="curve" smooth="yes"/>
      <point x="651" y="803"/>
      <point x="572" y="846"/>
      <point x="572" y="960" type="curve" smooth="yes"/>
      <point x="572" y="1167"/>
      <point x="797" y="1174"/>
      <point x="828" y="1174" type="curve" smooth="yes"/>
      <point x="933" y="1174"/>
      <point x="1021" y="1120"/>
      <point x="1021" y="1027" type="curve" smooth="yes"/>
      <point x="1021" y="993"/>
      <point x="1004" y="930"/>
      <point x="998" y="916" type="curve"/>
      <point x="1379" y="1000" type="line"/>
      <point x="1385" y="1034"/>
      <point x="1388" y="1068"/>
      <point x="1388" y="1099" type="curve" smooth="yes"/>
      <point x="1388" y="1359"/>
      <point x="1187" y="1510"/>
      <point x="887" y="1510" type="curve" smooth="yes"/>
      <point x="488" y="1510"/>
      <point x="216" y="1250"/>
      <point x="216" y="962" type="curve" smooth="yes"/>
      <point x="216" y="816"/>
      <point x="302" y="764"/>
      <point x="302" y="644" type="curve" smooth="yes"/>
      <point x="302" y="601"/>
      <point x="302" y="461"/>
      <point x="2" y="281" type="curve"/>
    </contour>
    <contour>
      <point x="1246" y="351" type="line"/>
      <point x="1206" y="331"/>
      <point x="1067" y="280"/>
      <point x="971" y="280" type="curve" smooth="yes"/>
      <point x="784" y="280"/>
      <point x="728" y="388"/>
      <point x="488" y="388" type="curve" smooth="yes"/>
      <point x="320" y="388"/>
      <point x="116" y="316"/>
      <point x="2" y="281" type="curve"/>
      <point x="32" y="-40" type="line"/>
      <point x="175" y="14"/>
      <point x="290" y="68"/>
      <point x="432" y="68" type="curve" smooth="yes"/>
      <point x="619" y="68"/>
      <point x="675" y="-40"/>
      <point x="915" y="-40" type="curve" smooth="yes"/>
      <point x="1059" y="-40"/>
      <point x="1217" y="3"/>
      <point x="1277" y="30" type="curve"/>
    </contour>
  </outline>
</glyph>
<glyph name="yen" format="2">
  <advance width="1572"/>
  <unicode hex="00A5"/>
  <outline>
    <contour>
      <point x="229" y="532" type="line"/>
      <point x="229" y="836" type="line"/>
      <point x="1343" y="836" type="line"/>
      <point x="1343" y="532" type="line"/>
    </contour>
    <contour>
      <point x="229" y="168" type="line"/>
      <point x="229" y="472" type="line"/>
      <point x="1343" y="472" type="line"/>
      <point x="1343" y="168" type="line"/>
    </contour>
    <contour>
      <point x="596" y="0" type="line"/>
      <point x="596" y="834" type="line"/>
      <point x="976" y="834" type="line"/>
      <point x="976" y="0" type="line"/>
    </contour>
    <contour>
      <point x="789" y="426" type="line"/>
      <point x="659" y="608" type="line"/>
      <point x="35" y="1480" type="line"/>
      <point x="463" y="1480" type="line"/>
      <point x="786" y="988" type="line"/>
      <point x="1109" y="1480" type="line"/>
      <point x="1537" y="1480" type="line"/>
    </contour>
  </outline>
</glyph>
<glyph name="dieresis" format="2">
  <advance width="1100"/>
  <unicode hex="00A8"/>
  <outline>
    <contour>
      <point x="665" y="1352" type="curve" smooth="yes"/>
      <point x="665" y="1463"/>
      <point x="754" y="1552"/>
      <point x="865" y="1552" type="curve" smooth="yes"/>
      <point x="976" y="1552"/>
      <point x="1065" y="1463"/>
      <point x="1065" y="1352" type="curve" smooth="yes"/>
      <point x="1065" y="1241"/>
      <point x="976" y="1152"/>
      <point x="865" y="1152" type="curve" smooth="yes"/>
      <point x="754" y="1152"/>
      <point x="665" y="1241"/>
    </contour>
    <contour>
      <point x="35" y="1352" type="curve" smooth="yes"/>
      <point x="35" y="1463"/>
      <point x="124" y="1552"/>
      <point x="235" y="1552" type="curve" smooth="yes"/>
      <point x="346" y="1552"/>
      <point x="435" y="1463"/>
      <point x="435" y="1352" type="curve" smooth="yes"/>
      <point x="435" y="1241"/>
      <point x="346" y="1152"/>
      <point x="235" y="1152" type="curve" smooth="yes"/>
      <point x="124" y="1152"/>
      <point x="35" y="1241"/>
    </contour>
  </outline>
</glyph>
<glyph name="guillemotleft" format="2">
  <advance width="1460"/>
  <unicode hex="00AB"/>
  <outline>
    <contour>
      <point x="922" y="196" type="line"/>
      <point x="653" y="660" type="line"/>
      <point x="1086" y="1126" type="line"/>
      <point x="1494" y="1126" type="line"/>
      <point x="1057" y="660" type="line"/>
      <point x="1330" y="196" type="line"/>
    </contour>
    <contour>
      <point x="290" y="196" type="line"/>
      <point x="21" y="660" type="line"/>
      <point x="454" y="1126" type="line"/>
      <point x="862" y="1126" type="line"/>
      <point x="425" y="660" type="line"/>
      <point x="698" y="196" type="line"/>
    </contour>
  </outline>
</glyph>
<glyph name="logicalnot" format="2">
  <advance width="1232"/>
  <unicode hex="00AC"/>
  <outline>
    <contour>
      <point x="786" y="647" type="line"/>
      <point x="718" y="260" type="line"/>
      <point x="1078" y="260" type="line"/>
      <point x="1177" y="820" type="line"/>
    </contour>
    <contour>
      <point x="28" y="500" type="line"/>
      <point x="960" y="500" type="line"/>
      <point x="1177" y="820" type="line"/>
      <point x="85" y="820" type="line"/>
    </contour>
  </outline>
</glyph>
<glyph name="degree" format="2">
  <advance width="968"/>
  <unicode hex="00B0"/>
  <outline>
    <contour>
      <point x="399" y="1116" type="curve" smooth="yes"/>
      <point x="399" y="1066"/>
      <point x="434" y="1032"/>
      <point x="484" y="1032" type="curve" smooth="yes"/>
      <point x="534" y="1032"/>
      <point x="568" y="1066"/>
      <point x="568" y="1116" type="curve" smooth="yes"/>
      <point x="568" y="1166"/>
      <point x="534" y="1200"/>
      <point x="484" y="1200" type="curve" smooth="yes"/>
      <point x="434" y="1200"/>
      <point x="399" y="1166"/>
    </contour>
    <contour>
      <point x="50" y="1116" type="curve" smooth="yes"/>
      <point x="50" y="1346"/>
      <point x="254" y="1520"/>
      <point x="484" y="1520" type="curve" smooth="yes"/>
      <point x="714" y="1520"/>
      <point x="918" y="1346"/>
      <point x="918" y="1116" type="curve" smooth="yes"/>
      <point x="918" y="886"/>
      <point x="714" y="712"/>
      <point x="484" y="712" type="curve" smooth="yes"/>
      <point x="254" y="712"/>
      <point x="50" y="886"/>
    </contour>
  </outline>
</glyph>
<glyph name="plusminus" format="2">
  <advance width="1232"/>
  <unicode hex="00B1"/>
  <outline>
    <contour>
      <point x="70" y="0" type="line"/>
      <point x="1162" y="0" type="line"/>
      <point x="1162" y="-320" type="line"/>
      <point x="70" y="-320" type="line"/>
    </contour>
    <contour>
      <point x="436" y="1207" type="line"/>
      <point x="436" y="113" type="line"/>
      <point x="796" y="113" type="line"/>
      <point x="796" y="1207" type="line"/>
    </contour>
    <contour>
      <point x="70" y="500" type="line"/>
      <point x="1162" y="500" type="line"/>
      <point x="1162" y="820" type="line"/>
      <point x="70" y="820" type="line"/>
    </contour>
  </outline>
</glyph>
<glyph name="two.superior" format="2">
  <advance width="796"/>
  <unicode hex="00B2"/>
  <outline>
    <contour>
      <point x="422" y="1300" type="line"/>
      <point x="416" y="1314"/>
      <point x="395" y="1447"/>
      <point x="523" y="1447" type="curve" smooth="yes"/>
      <point x="581" y="1447"/>
      <point x="601" y="1419"/>
      <point x="601" y="1390" type="curve" smooth="yes"/>
      <point x="601" y="1336"/>
      <point x="554" y="1318"/>
      <point x="471" y="1287" type="curve" smooth="yes"/>
      <point x="132" y="1159"/>
      <point x="74" y="937"/>
      <point x="52" y="810" type="curve"/>
      <point x="770" y="810" type="line"/>
      <point x="812" y="1050" type="line"/>
      <point x="464" y="1050" type="line"/>
      <point x="487" y="1065"/>
      <point x="560" y="1093"/>
      <point x="610" y="1112" type="curve" smooth="yes"/>
      <point x="670" y="1135"/>
      <point x="876" y="1212"/>
      <point x="876" y="1437" type="curve" smooth="yes"/>
      <point x="876" y="1590"/>
      <point x="746" y="1686"/>
      <point x="565" y="1686" type="curve" smooth="yes"/>
      <point x="365" y="1686"/>
      <point x="188" y="1581"/>
      <point x="151" y="1370" type="curve"/>
    </contour>
  </outline>
</glyph>
<glyph name="three.superior" format="2">
  <advance width="796"/>
  <unicode hex="00B3"/>
  <outline>
    <contour>
      <point x="400" y="1366" type="curve" smooth="yes"/>
      <point x="341" y="1366" type="line"/>
      <point x="341" y="1128" type="line"/>
      <point x="400" y="1128" type="line" smooth="yes"/>
      <point x="466" y="1128"/>
      <point x="490" y="1108"/>
      <point x="490" y="1080" type="curve" smooth="yes"/>
      <point x="490" y="1052"/>
      <point x="466" y="1032"/>
      <point x="400" y="1032" type="curve" smooth="yes"/>
      <point x="334" y="1032"/>
      <point x="310" y="1072"/>
      <point x="310" y="1099" type="curve"/>
      <point x="30" y="1026" type="line"/>
      <point x="57" y="848"/>
      <point x="228" y="792"/>
      <point x="400" y="792" type="curve" smooth="yes"/>
      <point x="610" y="792"/>
      <point x="766" y="879"/>
      <point x="766" y="1067" type="curve" smooth="yes"/>
      <point x="766" y="1147"/>
      <point x="726" y="1209"/>
      <point x="659" y="1253" type="curve"/>
      <point x="711" y="1295"/>
      <point x="740" y="1352"/>
      <point x="740" y="1418" type="curve" smooth="yes"/>
      <point x="740" y="1566"/>
      <point x="602" y="1686"/>
      <point x="400" y="1686" type="curve" smooth="yes"/>
      <point x="241" y="1686"/>
      <point x="87" y="1618"/>
      <point x="63" y="1457" type="curve"/>
      <point x="333" y="1384" type="line"/>
      <point x="333" y="1416"/>
      <point x="352" y="1446"/>
      <point x="400" y="1446" type="curve" smooth="yes"/>
      <point x="454" y="1446"/>
      <point x="464" y="1426"/>
      <point x="464" y="1406" type="curve" smooth="yes"/>
      <point x="464" y="1386"/>
      <point x="449" y="1366"/>
    </contour>
  </outline>
</glyph>
<glyph name="cedilla" format="2">
  <advance width="492"/>
  <unicode hex="00B8"/>
  <outline>
    <contour>
      <point x="286" y="-219" type="curve" smooth="yes"/>
      <point x="286" y="-293"/>
      <point x="228" y="-432"/>
      <point x="35" y="-432" type="curve" smooth="yes"/>
      <point x="-65" y="-432"/>
      <point x="-115" y="-375"/>
      <point x="-150" y="-314" type="curve"/>
      <point x="-8" y="-239" type="line"/>
      <point x="9" y="-268"/>
      <point x="48" y="-272"/>
      <point x="63" y="-272" type="curve" smooth="yes"/>
      <point x="64" y="-272"/>
      <point x="124" y="-272"/>
      <point x="124" y="-243" type="curve" smooth="yes"/>
      <point x="124" y="-230"/>
      <point x="105" y="-220"/>
      <point x="72" y="-220" type="curve" smooth="yes"/>
      <point x="57" y="-220"/>
      <point x="38" y="-223"/>
      <point x="23" y="-232" type="curve"/>
      <point x="-95" y="-171" type="line"/>
      <point x="-51" y="-121"/>
      <point x="2" y="-60"/>
      <point x="100" y="-60" type="curve" smooth="yes"/>
      <point x="209" y="-60"/>
      <point x="286" y="-131"/>
    </contour>
    <contour>
      <point x="36" y="0" type="line"/>
      <point x="196" y="0" type="line"/>
      <point x="35" y="-205" type="line"/>
      <point x="23" y="-232" type="line"/>
      <point x="-95" y="-171" type="line"/>
    </contour>
  </outline>
</glyph>
<glyph name="one.superior" format="2">
  <advance width="796"/>
  <unicode hex="00B9"/>
  <outline>
    <contour>
      <point x="348" y="1266" type="line"/>
      <point x="348" y="810" type="line"/>
      <point x="618" y="810" type="line"/>
      <point x="618" y="1413" type="line"/>
      <point x="618" y="1668" type="line"/>
      <point x="365" y="1668" type="line"/>
      <point x="365" y="1652" type="line" smooth="yes"/>
      <point x="365" y="1576"/>
      <point x="286" y="1506"/>
      <point x="184" y="1506" type="curve" smooth="yes"/>
      <point x="128" y="1506" type="line"/>
      <point x="128" y="1266" type="line"/>
    </contour>
  </outline>
</glyph>
<glyph name="ordmasculine" format="2">
  <advance width="952"/>
  <unicode hex="00BA"/>
  <outline>
    <contour>
      <point x="519" y="980" type="curve" smooth="yes"/>
      <point x="778" y="980"/>
      <point x="922" y="1171"/>
      <point x="922" y="1365" type="curve" smooth="yes"/>
      <point x="922" y="1525"/>
      <point x="808" y="1619"/>
      <point x="631" y="1619" type="curve" smooth="yes"/>
      <point x="373" y="1619"/>
      <point x="228" y="1427"/>
      <point x="228" y="1233" type="curve" smooth="yes"/>
      <point x="228" y="1073"/>
      <point x="342" y="980"/>
    </contour>
    <contour>
      <point x="648" y="1323" type="curve" smooth="yes"/>
      <point x="648" y="1305"/>
      <point x="644" y="1220"/>
      <point x="561" y="1220" type="curve" smooth="yes"/>
      <point x="520" y="1220"/>
      <point x="502" y="1240"/>
      <point x="502" y="1275" type="curve" smooth="yes"/>
      <point x="502" y="1290"/>
      <point x="505" y="1379"/>
      <point x="589" y="1379" type="curve" smooth="yes"/>
      <point x="630" y="1379"/>
      <point x="648" y="1358"/>
    </contour>
    <contour>
      <point x="90" y="681" type="line"/>
      <point x="132" y="921" type="line"/>
      <point x="884" y="921" type="line"/>
      <point x="842" y="681" type="line"/>
    </contour>
  </outline>
</glyph>
<glyph name="guillemotright" format="2">
  <advance width="1460"/>
  <unicode hex="00BB"/>
  <outline>
    <contour>
      <point x="348" y="196" type="line"/>
      <point x="779" y="660" type="line"/>
      <point x="512" y="1126" type="line"/>
      <point x="104" y="1126" type="line"/>
      <point x="375" y="660" type="line"/>
      <point x="-60" y="196" type="line"/>
    </contour>
    <contour>
      <point x="980" y="196" type="line"/>
      <point x="1411" y="660" type="line"/>
      <point x="1144" y="1126" type="line"/>
      <point x="736" y="1126" type="line"/>
      <point x="1007" y="660" type="line"/>
      <point x="572" y="196" type="line"/>
    </contour>
  </outline>
</glyph>
<glyph name="AE" format="2">
  <advance width="2351"/>
  <unicode hex="00C6"/>
  <anchor x="1564" y="1380" name="top_center"/>
  <anchor x="1167" y="0" name="bottom_center"/>
  <outline>
    <contour>
      <point x="876" y="1144" type="line"/>
      <point x="876" y="1480" type="line"/>
      <point x="1299" y="1480" type="line"/>
      <point x="1299" y="1144" type="line"/>
    </contour>
    <contour>
      <point x="580" y="688" type="line"/>
      <point x="1167" y="688" type="line"/>
      <point x="1167" y="352" type="line"/>
      <point x="580" y="352" type="line"/>
    </contour>
    <contour>
      <point x="35" y="0" type="line"/>
      <point x="876" y="1480" type="line"/>
      <point x="1299" y="1480" type="line"/>
      <point x="475" y="0" type="line"/>
    </contour>
    <contour>
      <point x="2167" y="908" type="line"/>
      <point x="2167" y="572" type="line"/>
      <point x="1547" y="572" type="line"/>
      <point x="1547" y="336" type="line"/>
      <point x="2281" y="336" type="line"/>
      <point x="2281" y="0" type="line"/>
      <point x="1167" y="0" type="line"/>
      <point x="1167" y="1480" type="line"/>
      <point x="2281" y="1480" type="line"/>
      <point x="2281" y="1144" type="line"/>
      <point x="1547" y="1144" type="line"/>
      <point x="1547" y="908" type="line"/>
    </contour>
  </outline>
</glyph>
<glyph name="Eth" format="2">
  <advance width="1626"/>
  <unicode hex="00D0"/>
  <outline>
    <contour>
      <point x="839" y="620" type="line"/>
      <point x="882" y="860" type="line"/>
      <point x="22" y="860" type="line"/>
      <point x="14" y="814"/>
      <point x="-13" y="666"/>
      <point x="-21" y="620" type="curve"/>
    </contour>
    <contour>
      <point x="1204" y="830" type="curve" smooth="yes"/>
      <point x="1204" y="580"/>
      <point x="1029" y="336"/>
      <point x="739" y="336" type="curve" smooth="yes"/>
      <point x="519" y="336" type="line"/>
      <point x="662" y="1144" type="line"/>
      <point x="882" y="1144" type="line" smooth="yes"/>
      <point x="1053" y="1144"/>
      <point x="1204" y="1042"/>
    </contour>
    <contour>
      <point x="680" y="0" type="line" smooth="yes"/>
      <point x="1257" y="0"/>
      <point x="1590" y="447"/>
      <point x="1590" y="895" type="curve" smooth="yes"/>
      <point x="1590" y="1255"/>
      <point x="1342" y="1480"/>
      <point x="941" y="1480" type="curve" smooth="yes"/>
      <point x="341" y="1480" type="line"/>
      <point x="80" y="0" type="line"/>
    </contour>
  </outline>
</glyph>
<glyph name="multiply" format="2">
  <advance width="1232"/>
  <unicode hex="00D7"/>
  <outline>
    <contour>
      <point x="138" y="950" type="line"/>
      <point x="801" y="144" type="line"/>
      <point x="1067" y="370" type="line"/>
      <point x="403" y="1176" type="line"/>
    </contour>
    <contour>
      <point x="223" y="145" type="line"/>
      <point x="1168" y="949" type="line"/>
      <point x="982" y="1175" type="line"/>
      <point x="36" y="371" type="line"/>
    </contour>
  </outline>
</glyph>
<glyph name="Oslash" format="2">
  <advance width="1688"/>
  <unicode hex="00D8"/>
  <anchor x="714" y="0" name="bottom_center"/>
  <anchor x="957" y="1380" name="top_center"/>
  <outline>
    <contour>
      <point x="1502" y="1650" type="line"/>
      <point x="1720" y="1454" type="line"/>
      <point x="187" y="-170" type="line"/>
      <point x="-31" y="26" type="line"/>
    </contour>
    <contour>
      <point x="921" y="1174" type="curve" smooth="yes"/>
      <point x="590" y="1174"/>
      <point x="454" y="861"/>
      <point x="454" y="630" type="curve" smooth="yes"/>
      <point x="454" y="438"/>
      <point x="557" y="306"/>
      <point x="768" y="306" type="curve" smooth="yes"/>
      <point x="1100" y="306"/>
      <point x="1234" y="622"/>
      <point x="1234" y="851" type="curve" smooth="yes"/>
      <point x="1234" y="1043"/>
      <point x="1132" y="1174"/>
    </contour>
    <contour>
      <point x="69" y="578" type="curve" smooth="yes"/>
      <point x="69" y="1041"/>
      <point x="415" y="1510"/>
      <point x="980" y="1510" type="curve" smooth="yes"/>
      <point x="1382" y="1510"/>
      <point x="1619" y="1266"/>
      <point x="1619" y="903" type="curve" smooth="yes"/>
      <point x="1619" y="441"/>
      <point x="1275" y="-30"/>
      <point x="709" y="-30" type="curve" smooth="yes"/>
      <point x="306" y="-30"/>
      <point x="69" y="215"/>
    </contour>
  </outline>
</glyph>
<glyph name="ae" format="2">
  <advance width="1907"/>
  <unicode hex="00E6"/>
  <anchor x="1053" y="1040" name="top_center"/>
  <outline>
    <contour>
      <point x="1459" y="695" type="curve" smooth="yes"/>
      <point x="1459" y="737"/>
      <point x="1407" y="750"/>
      <point x="1373" y="750" type="curve" smooth="yes"/>
      <point x="1141" y="750"/>
      <point x="1136" y="477"/>
      <point x="1136" y="451" type="curve" smooth="yes"/>
      <point x="1136" y="356"/>
      <point x="1180" y="290"/>
      <point x="1292" y="290" type="curve" smooth="yes"/>
      <point x="1406" y="290"/>
      <point x="1444" y="341"/>
      <point x="1469" y="380" type="curve"/>
      <point x="1803" y="234" type="line"/>
      <point x="1680" y="57"/>
      <point x="1458" y="-30"/>
      <point x="1236" y="-30" type="curve" smooth="yes"/>
      <point x="953" y="-30"/>
      <point x="773" y="148"/>
      <point x="773" y="410" type="curve" smooth="yes"/>
      <point x="773" y="750"/>
      <point x="1047" y="1070"/>
      <point x="1430" y="1070" type="curve" smooth="yes"/>
      <point x="1713" y="1070"/>
      <point x="1829" y="941"/>
      <point x="1829" y="780" type="curve" smooth="yes"/>
      <point x="1829" y="759"/>
      <point x="1827" y="737"/>
      <point x="1823" y="715" type="curve" smooth="yes"/>
      <point x="1789" y="525"/>
      <point x="1610" y="360"/>
      <point x="1190" y="360" type="curve" smooth="yes"/>
      <point x="881" y="360" type="line"/>
      <point x="926" y="620" type="line"/>
      <point x="1235" y="620" type="line" smooth="yes"/>
      <point x="1337" y="620"/>
      <point x="1459" y="632"/>
    </contour>
    <contour>
      <point x="541" y="290" type="curve" smooth="yes"/>
      <point x="715" y="290"/>
      <point x="786" y="445"/>
      <point x="786" y="573" type="curve" smooth="yes"/>
      <point x="786" y="674"/>
      <point x="736" y="750"/>
      <point x="622" y="750" type="curve" smooth="yes"/>
      <point x="448" y="750"/>
      <point x="367" y="592"/>
      <point x="367" y="465" type="curve" smooth="yes"/>
      <point x="367" y="363"/>
      <point x="424" y="290"/>
    </contour>
    <contour>
      <point x="0" y="390" type="curve" smooth="yes"/>
      <point x="0" y="702"/>
      <point x="203" y="1070"/>
      <point x="614" y="1070" type="curve" smooth="yes"/>
      <point x="764" y="1070"/>
      <point x="849" y="959"/>
      <point x="852" y="920" type="curve"/>
      <point x="873" y="1040" type="line"/>
      <point x="1233" y="1040" type="line"/>
      <point x="1080" y="168" type="line" smooth="yes"/>
      <point x="1072" y="125"/>
      <point x="1070" y="89"/>
      <point x="1070" y="61" type="curve" smooth="yes"/>
      <point x="1070" y="23"/>
      <point x="1074" y="0"/>
      <point x="1074" y="0" type="curve"/>
      <point x="726" y="0" type="line"/>
      <point x="726" y="0"/>
      <point x="719" y="30"/>
      <point x="719" y="70" type="curve" smooth="yes"/>
      <point x="719" y="86"/>
      <point x="720" y="103"/>
      <point x="723" y="120" type="curve"/>
      <point x="716" y="80"/>
      <point x="570" y="-30"/>
      <point x="420" y="-30" type="curve" smooth="yes"/>
      <point x="145" y="-30"/>
      <point x="0" y="140"/>
    </contour>
  </outline>
</glyph>
<glyph name="divide" format="2">
  <advance width="1232"/>
  <unicode hex="00F7"/>
  <outline>
    <contour>
      <point x="327" y="230" type="curve" smooth="yes"/>
      <point x="327" y="341"/>
      <point x="416" y="430"/>
      <point x="527" y="430" type="curve" smooth="yes"/>
      <point x="638" y="430"/>
      <point x="727" y="341"/>
      <point x="727" y="230" type="curve" smooth="yes"/>
      <point x="727" y="119"/>
      <point x="637" y="30"/>
      <point x="526" y="30" type="curve" smooth="yes"/>
      <point x="415" y="30"/>
      <point x="327" y="119"/>
    </contour>
    <contour>
      <point x="478" y="1090" type="curve" smooth="yes"/>
      <point x="478" y="1201"/>
      <point x="567" y="1290"/>
      <point x="678" y="1290" type="curve" smooth="yes"/>
      <point x="789" y="1290"/>
      <point x="878" y="1201"/>
      <point x="878" y="1090" type="curve" smooth="yes"/>
      <point x="878" y="979"/>
      <point x="789" y="890"/>
      <point x="678" y="890" type="curve" smooth="yes"/>
      <point x="567" y="890"/>
      <point x="478" y="979"/>
    </contour>
    <contour>
      <point x="28" y="500" type="line"/>
      <point x="85" y="820" type="line"/>
      <point x="1177" y="820" type="line"/>
      <point x="1120" y="500" type="line"/>
    </contour>
  </outline>
</glyph>
<glyph name="oslash" format="2">
  <advance width="1180"/>
  <unicode hex="00F8"/>
  <anchor x="590" y="0" name="bottom_center"/>
  <anchor x="590" y="1040" name="top_center"/>
  <outline>
    <contour>
      <point x="923" y="1209" type="line"/>
      <point x="1178" y="1016" type="line"/>
      <point x="255" y="-170" type="line"/>
      <point x="2" y="26" type="line"/>
    </contour>
    <contour>
      <point x="400" y="520" type="curve" smooth="yes"/>
      <point x="400" y="390"/>
      <point x="453" y="290"/>
      <point x="590" y="290" type="curve" smooth="yes"/>
      <point x="727" y="290"/>
      <point x="780" y="383"/>
      <point x="780" y="520" type="curve" smooth="yes"/>
      <point x="780" y="657"/>
      <point x="727" y="750"/>
      <point x="590" y="750" type="curve" smooth="yes"/>
      <point x="453" y="750"/>
      <point x="400" y="657"/>
    </contour>
    <contour>
      <point x="40" y="520" type="curve" smooth="yes"/>
      <point x="40" y="840"/>
      <point x="270" y="1070"/>
      <point x="590" y="1070" type="curve" smooth="yes"/>
      <point x="910" y="1070"/>
      <point x="1140" y="840"/>
      <point x="1140" y="520" type="curve" smooth="yes"/>
      <point x="1140" y="200"/>
      <point x="910" y="-30"/>
      <point x="590" y="-30" type="curve" smooth="yes"/>
      <point x="270" y="-30"/>
      <point x="40" y="200"/>
    </contour>
  </outline>
</glyph>
<glyph name="hbar" format="2">
  <advance width="1332"/>
  <unicode hex="0127"/>
  <outline>
    <contour>
      <point x="907" y="1120" type="line"/>
      <point x="67" y="1120" type="line"/>
      <point x="110" y="1360" type="line"/>
      <point x="950" y="1360" type="line"/>
    </contour>
    <contour>
      <point x="772" y="0" type="line"/>
      <point x="873" y="572" type="line" smooth="yes"/>
      <point x="877" y="593"/>
      <point x="879" y="613"/>
      <point x="879" y="631" type="curve" smooth="yes"/>
      <point x="879" y="706"/>
      <point x="843" y="750"/>
      <point x="738" y="750" type="curve" smooth="yes"/>
      <point x="608" y="750"/>
      <point x="560" y="682"/>
      <point x="541" y="572" type="curve" smooth="yes"/>
      <point x="440" y="0" type="line"/>
      <point x="80" y="0" type="line"/>
      <point x="341" y="1480" type="line"/>
      <point x="689" y="1480" type="line"/>
      <point x="590" y="920" type="line"/>
      <point x="636" y="981"/>
      <point x="741" y="1070"/>
      <point x="891" y="1070" type="curve" smooth="yes"/>
      <point x="1115" y="1070"/>
      <point x="1246" y="942"/>
      <point x="1246" y="707" type="curve" smooth="yes"/>
      <point x="1246" y="665"/>
      <point x="1241" y="620"/>
      <point x="1233" y="572" type="curve" smooth="yes"/>
      <point x="1132" y="0" type="line"/>
    </contour>
  </outline>
</glyph>
<glyph name="dotlessi" format="2">
  <advance width="500"/>
  <unicode hex="0131"/>
  <anchor x="116" y="-20" name="bottom_cedilla"/>
  <anchor x="303" y="1040" name="top_center"/>
  <anchor x="120" y="0" name="bottom_center"/>
  <anchor x="300" y="0" name="bottom_right"/>
  <outline>
    <contour>
      <point x="-60" y="0" type="line"/>
      <point x="123" y="1040" type="line"/>
      <point x="483" y="1040" type="line"/>
      <point x="300" y="0" type="line"/>
    </contour>
  </outline>
</glyph>
<glyph name="Lcaron" format="2">
  <advance width="1254"/>
  <unicode hex="013D"/>
  <outline>
    <contour>
      <point x="697" y="1397" type="curve" smooth="yes"/>
      <point x="697" y="1464"/>
      <point x="750" y="1517"/>
      <point x="817" y="1517" type="curve" smooth="yes"/>
      <point x="884" y="1517"/>
      <point x="937" y="1464"/>
      <point x="937" y="1397" type="curve" smooth="yes"/>
      <point x="937" y="1330"/>
      <point x="883" y="1277"/>
      <point x="816" y="1277" type="curve" smooth="yes"/>
      <point x="749" y="1277"/>
      <point x="697" y="1330"/>
    </contour>
    <contour>
      <point x="650" y="1200" type="line"/>
      <point x="729" y="1212"/>
      <point x="807" y="1264"/>
      <point x="807" y="1328" type="curve" smooth="yes"/>
      <point x="807" y="1356"/>
      <point x="797" y="1397"/>
      <point x="797" y="1397" type="curve"/>
      <point x="817" y="1517" type="line"/>
      <point x="876" y="1517"/>
      <point x="946" y="1485"/>
      <point x="946" y="1373" type="curve" smooth="yes"/>
      <point x="946" y="1134"/>
      <point x="667" y="1073"/>
      <point x="663" y="1072" type="curve"/>
    </contour>
    <contour>
      <point x="581" y="1480" type="line"/>
      <point x="379" y="336" type="line"/>
      <point x="1113" y="336" type="line"/>
      <point x="1054" y="0" type="line"/>
      <point x="-60" y="0" type="line"/>
      <point x="201" y="1480" type="line"/>
    </contour>
  </outline>
</glyph>
<glyph name="lcaron" format="2">
  <advance width="829"/>
  <unicode hex="013E"/>
  <outline>
    <contour>
      <point x="550" y="1390" type="curve" smooth="yes"/>
      <point x="550" y="1457"/>
      <point x="603" y="1510"/>
      <point x="670" y="1510" type="curve" smooth="yes"/>
      <point x="737" y="1510"/>
      <point x="790" y="1457"/>
      <point x="790" y="1390" type="curve" smooth="yes"/>
      <point x="790" y="1323"/>
      <point x="737" y="1270"/>
      <point x="670" y="1270" type="curve" smooth="yes"/>
      <point x="603" y="1270"/>
      <point x="550" y="1323"/>
    </contour>
    <contour>
      <point x="559" y="1193" type="line"/>
      <point x="636" y="1205"/>
      <point x="695" y="1254"/>
      <point x="695" y="1307" type="curve" smooth="yes"/>
      <point x="695" y="1333"/>
      <point x="671" y="1390"/>
      <point x="671" y="1390" type="curve"/>
      <point x="670" y="1510" type="line"/>
      <point x="738" y="1510"/>
      <point x="829" y="1467"/>
      <point x="829" y="1307" type="curve" smooth="yes"/>
      <point x="829" y="1180"/>
      <point x="690" y="1082"/>
      <point x="595" y="1065" type="curve"/>
    </contour>
    <contour>
      <point x="560" y="306" type="curve"/>
      <point x="660" y="14" type="line"/>
      <point x="634" y="1"/>
      <point x="586" y="-30"/>
      <point x="498" y="-30" type="curve" smooth="yes"/>
      <point x="314" y="-30"/>
      <point x="70" y="62"/>
      <point x="70" y="362" type="curve" smooth="yes"/>
      <point x="70" y="440" type="line"/>
      <point x="70" y="578" type="line"/>
      <point x="70" y="1480" type="line"/>
      <point x="430" y="1480" type="line"/>
      <point x="430" y="578" type="line"/>
      <point x="430" y="440" type="line"/>
      <point x="430" y="362" type="line" smooth="yes"/>
      <point x="430" y="312"/>
      <point x="446" y="290"/>
      <point x="498" y="290" type="curve" smooth="yes"/>
      <point x="517" y="290"/>
      <point x="547" y="297"/>
    </contour>
  </outline>
</glyph>
<glyph name="Lslash" format="2">
  <advance width="1359"/>
  <unicode hex="0141"/>
  <outline>
    <contour>
      <point x="915" y="1245" type="line"/>
      <point x="864" y="956" type="line"/>
      <point x="-84" y="460" type="line"/>
      <point x="-33" y="749" type="line"/>
    </contour>
    <contour>
      <point x="686" y="1480" type="line"/>
      <point x="484" y="336" type="line"/>
      <point x="1218" y="336" type="line"/>
      <point x="1159" y="0" type="line"/>
      <point x="45" y="0" type="line"/>
      <point x="306" y="1480" type="line"/>
    </contour>
  </outline>
</glyph>
<glyph name="lslash" format="2">
  <advance width="835"/>
  <unicode hex="0142"/>
  <outline>
    <contour>
      <point x="896" y="1199" type="line"/>
      <point x="845" y="910" type="line"/>
      <point x="-14" y="461" type="line"/>
      <point x="37" y="750" type="line"/>
    </contour>
    <contour>
      <point x="539" y="362" type="line" smooth="yes"/>
      <point x="537" y="352"/>
      <point x="536" y="344"/>
      <point x="536" y="336" type="curve" smooth="yes"/>
      <point x="536" y="305"/>
      <point x="552" y="290"/>
      <point x="594" y="290" type="curve" smooth="yes"/>
      <point x="613" y="290"/>
      <point x="644" y="297"/>
      <point x="659" y="306" type="curve"/>
      <point x="707" y="14" type="line"/>
      <point x="679" y="1"/>
      <point x="626" y="-30"/>
      <point x="538" y="-30" type="curve" smooth="yes"/>
      <point x="372" y="-30"/>
      <point x="171" y="44"/>
      <point x="171" y="278" type="curve" smooth="yes"/>
      <point x="171" y="304"/>
      <point x="174" y="332"/>
      <point x="179" y="362" type="curve" smooth="yes"/>
      <point x="376" y="1480" type="line"/>
      <point x="736" y="1480" type="line"/>
    </contour>
  </outline>
</glyph>
<glyph name="Eng" format="2">
  <advance width="1482"/>
  <unicode hex="014A"/>
  <anchor x="855" y="1380" name="top_center"/>
  <outline>
    <contour>
      <point x="1268" y="-78" type="line" smooth="yes"/>
      <point x="1215" y="-378"/>
      <point x="1031" y="-470"/>
      <point x="767" y="-470" type="curve" smooth="yes"/>
      <point x="679" y="-470"/>
      <point x="637" y="-439"/>
      <point x="613" y="-426" type="curve"/>
      <point x="764" y="-134" type="line"/>
      <point x="775" y="-143"/>
      <point x="805" y="-150"/>
      <point x="824" y="-150" type="curve" smooth="yes"/>
      <point x="876" y="-150"/>
      <point x="895" y="-128"/>
      <point x="904" y="-78" type="curve" smooth="yes"/>
      <point x="918" y="0" type="line"/>
      <point x="1282" y="0" type="line"/>
    </contour>
    <contour>
      <point x="565" y="1480" type="line"/>
      <point x="1017" y="652" type="line"/>
      <point x="1163" y="1480" type="line"/>
      <point x="1543" y="1480" type="line"/>
      <point x="1282" y="0" type="line"/>
      <point x="918" y="0" type="line"/>
      <point x="466" y="828" type="line"/>
      <point x="320" y="0" type="line"/>
      <point x="-60" y="0" type="line"/>
      <point x="201" y="1480" type="line"/>
    </contour>
  </outline>
</glyph>
<glyph name="eng" format="2">
  <advance width="1192"/>
  <unicode hex="014B"/>
  <anchor x="649" y="1040" name="top_center"/>
  <outline>
    <contour>
      <point x="978" y="-78" type="line" smooth="yes"/>
      <point x="925" y="-378"/>
      <point x="745" y="-470"/>
      <point x="481" y="-470" type="curve" smooth="yes"/>
      <point x="393" y="-470"/>
      <point x="351" y="-439"/>
      <point x="327" y="-426" type="curve"/>
      <point x="478" y="-134" type="line"/>
      <point x="489" y="-143"/>
      <point x="519" y="-150"/>
      <point x="538" y="-150" type="curve" smooth="yes"/>
      <point x="590" y="-150"/>
      <point x="609" y="-128"/>
      <point x="618" y="-78" type="curve" smooth="yes"/>
      <point x="632" y="0" type="line"/>
      <point x="992" y="0" type="line"/>
    </contour>
    <contour>
      <point x="733" y="572" type="line" smooth="yes"/>
      <point x="737" y="593"/>
      <point x="739" y="613"/>
      <point x="739" y="631" type="curve" smooth="yes"/>
      <point x="739" y="706"/>
      <point x="703" y="750"/>
      <point x="598" y="750" type="curve" smooth="yes"/>
      <point x="468" y="750"/>
      <point x="420" y="682"/>
      <point x="401" y="572" type="curve" smooth="yes"/>
      <point x="300" y="0" type="line"/>
      <point x="-60" y="0" type="line"/>
      <point x="123" y="1040" type="line"/>
      <point x="471" y="1040" type="line"/>
      <point x="450" y="920" type="line"/>
      <point x="496" y="981"/>
      <point x="601" y="1070"/>
      <point x="751" y="1070" type="curve" smooth="yes"/>
      <point x="975" y="1070"/>
      <point x="1106" y="942"/>
      <point x="1106" y="707" type="curve" smooth="yes"/>
      <point x="1106" y="665"/>
      <point x="1101" y="620"/>
      <point x="1093" y="572" type="curve"/>
      <point x="992" y="0" type="line"/>
      <point x="632" y="0" type="line"/>
    </contour>
  </outline>
</glyph>
<glyph name="OE" format="2">
  <advance width="2374"/>
  <unicode hex="0152"/>
  <anchor x="1303" y="1380" name="top_center"/>
  <anchor x="1060" y="0" name="bottom_center"/>
  <outline>
    <contour>
      <point x="887" y="1174" type="curve" smooth="yes"/>
      <point x="556.195" y="1174"/>
      <point x="419.812" y="860.329"/>
      <point x="419.812" y="629.563" type="curve" smooth="yes"/>
      <point x="419.812" y="437.663"/>
      <point x="522.523" y="306"/>
      <point x="734" y="306" type="curve" smooth="yes"/>
      <point x="1065.91" y="306"/>
      <point x="1200.25" y="621.849"/>
      <point x="1200.25" y="851.058" type="curve" smooth="yes"/>
      <point x="1200.25" y="1042.62"/>
      <point x="1098.25" y="1174"/>
    </contour>
    <contour>
      <point x="35.3066" y="577.872" type="curve" smooth="yes"/>
      <point x="35.3066" y="1040.82"/>
      <point x="380.813" y="1510"/>
      <point x="946" y="1510" type="curve" smooth="yes"/>
      <point x="1348.4" y="1510"/>
      <point x="1584.74" y="1265.13"/>
      <point x="1584.74" y="902.568" type="curve" smooth="yes"/>
      <point x="1584.74" y="440.201"/>
      <point x="1240.82" y="-30"/>
      <point x="675" y="-30" type="curve" smooth="yes"/>
      <point x="272.442" y="-30"/>
      <point x="35.3066" y="215.071"/>
    </contour>
    <contour>
      <point x="2220" y="908" type="line"/>
      <point x="2161" y="572" type="line"/>
      <point x="1541" y="572" type="line"/>
      <point x="1499" y="336" type="line"/>
      <point x="2233" y="336" type="line"/>
      <point x="2174" y="0" type="line"/>
      <point x="1060" y="0" type="line"/>
      <point x="1321" y="1480" type="line"/>
      <point x="2435" y="1480" type="line"/>
      <point x="2376" y="1144" type="line"/>
      <point x="1642" y="1144" type="line"/>
      <point x="1600" y="908" type="line"/>
    </contour>
  </outline>
</glyph>
<glyph name="oe" format="2">
  <advance width="1940"/>
  <unicode hex="0153"/>
  <anchor x="840" y="0" name="bottom_center"/>
  <anchor x="1052" y="1200" name="top_center"/>
  <outline>
    <contour>
      <point x="902" y="660" type="line"/>
      <point x="1808" y="660" type="line"/>
      <point x="1461" y="400" type="line"/>
      <point x="857" y="400" type="line"/>
    </contour>
    <contour>
      <point x="1464" y="368" type="curve"/>
      <point x="1749" y="242" type="line"/>
      <point x="1626" y="65"/>
      <point x="1427" y="-30"/>
      <point x="1205" y="-30" type="curve" smooth="yes"/>
      <point x="884" y="-30"/>
      <point x="696" y="200"/>
      <point x="752" y="520" type="curve" smooth="yes"/>
      <point x="808" y="840"/>
      <point x="1079" y="1070"/>
      <point x="1399" y="1070" type="curve" smooth="yes"/>
      <point x="1719" y="1070"/>
      <point x="1908" y="840"/>
      <point x="1852" y="520" type="curve" smooth="yes"/>
      <point x="1845" y="479"/>
      <point x="1833" y="438"/>
      <point x="1819" y="400" type="curve"/>
      <point x="1461" y="400" type="line"/>
      <point x="1481" y="435"/>
      <point x="1514" y="476"/>
      <point x="1522" y="520" type="curve" smooth="yes"/>
      <point x="1546" y="657"/>
      <point x="1479" y="750"/>
      <point x="1342" y="750" type="curve" smooth="yes"/>
      <point x="1205" y="750"/>
      <point x="1096" y="657"/>
      <point x="1072" y="520" type="curve" smooth="yes"/>
      <point x="1049" y="390"/>
      <point x="1123" y="290"/>
      <point x="1261" y="290" type="curve" smooth="yes"/>
      <point x="1375" y="290"/>
      <point x="1439" y="329"/>
    </contour>
    <contour>
      <point x="372" y="520" type="curve" smooth="yes"/>
      <point x="349" y="390"/>
      <point x="384" y="290"/>
      <point x="521" y="290" type="curve" smooth="yes"/>
      <point x="658" y="290"/>
      <point x="728" y="383"/>
      <point x="752" y="520" type="curve" smooth="yes"/>
      <point x="776" y="657"/>
      <point x="739" y="750"/>
      <point x="602" y="750" type="curve" smooth="yes"/>
      <point x="465" y="750"/>
      <point x="396" y="657"/>
    </contour>
    <contour>
      <point x="12" y="520" type="curve" smooth="yes"/>
      <point x="68" y="840"/>
      <point x="339" y="1070"/>
      <point x="659" y="1070" type="curve" smooth="yes"/>
      <point x="979" y="1070"/>
      <point x="1168" y="840"/>
      <point x="1112" y="520" type="curve" smooth="yes"/>
      <point x="1056" y="200"/>
      <point x="785" y="-30"/>
      <point x="465" y="-30" type="curve" smooth="yes"/>
      <point x="145" y="-30"/>
      <point x="-44" y="200"/>
    </contour>
  </outline>
</glyph>
<glyph name="tcaron" format="2">
  <advance width="1337"/>
  <unicode hex="0165"/>
  <outline>
    <contour>
      <point x="1201" y="1427" type="curve" smooth="yes"/>
      <point x="1201" y="1494"/>
      <point x="1254" y="1547"/>
      <point x="1321" y="1547" type="curve" smooth="yes"/>
      <point x="1388" y="1547"/>
      <point x="1441" y="1494"/>
      <point x="1441" y="1427" type="curve" smooth="yes"/>
      <point x="1441" y="1360"/>
      <point x="1387" y="1307"/>
      <point x="1320" y="1307" type="curve" smooth="yes"/>
      <point x="1253" y="1307"/>
      <point x="1201" y="1360"/>
    </contour>
    <contour>
      <point x="1154" y="1230" type="line"/>
      <point x="1233" y="1242"/>
      <point x="1311" y="1294"/>
      <point x="1311" y="1358" type="curve" smooth="yes"/>
      <point x="1311" y="1386"/>
      <point x="1301" y="1427"/>
      <point x="1301" y="1427" type="curve"/>
      <point x="1321" y="1547" type="line"/>
      <point x="1380" y="1547"/>
      <point x="1450" y="1515"/>
      <point x="1450" y="1403" type="curve" smooth="yes"/>
      <point x="1450" y="1164"/>
      <point x="1171" y="1103"/>
      <point x="1167" y="1102" type="curve"/>
    </contour>
    <contour>
      <point x="148" y="1028" type="line" smooth="yes"/>
      <point x="268" y="1028"/>
      <point x="366" y="1106"/>
      <point x="387" y="1226" type="curve" smooth="yes"/>
      <point x="404" y="1320" type="line"/>
      <point x="740" y="1320" type="line"/>
      <point x="690" y="1040" type="line"/>
      <point x="995" y="1040" type="line"/>
      <point x="939" y="720" type="line"/>
      <point x="634" y="720" type="line"/>
      <point x="585" y="440" type="line" smooth="yes"/>
      <point x="582" y="424"/>
      <point x="581" y="409"/>
      <point x="581" y="396" type="curve" smooth="yes"/>
      <point x="581" y="325"/>
      <point x="620" y="290"/>
      <point x="696" y="290" type="curve" smooth="yes"/>
      <point x="756" y="290"/>
      <point x="835" y="313"/>
      <point x="873" y="345" type="curve"/>
      <point x="907" y="22" type="line"/>
      <point x="847" y="-2"/>
      <point x="757" y="-30"/>
      <point x="636" y="-30" type="curve" smooth="yes"/>
      <point x="332" y="-30"/>
      <point x="213" y="105"/>
      <point x="213" y="316" type="curve" smooth="yes"/>
      <point x="213" y="355"/>
      <point x="217" y="396"/>
      <point x="225" y="440" type="curve" smooth="yes"/>
      <point x="274" y="720" type="line"/>
      <point x="22" y="720" type="line"/>
      <point x="76" y="1028" type="line"/>
    </contour>
  </outline>
</glyph>
<glyph name="Tbar" format="2">
  <advance width="1482"/>
  <unicode hex="0166"/>
  <outline>
    <contour>
      <point x="1150" y="620" type="line"/>
      <point x="290" y="620" type="line"/>
      <point x="333" y="860" type="line"/>
      <point x="1193" y="860" type="line"/>
    </contour>
    <contour>
      <point x="801" y="0" type="line"/>
      <point x="421" y="0" type="line"/>
      <point x="623" y="1144" type="line"/>
      <point x="142" y="1144" type="line"/>
      <point x="201" y="1480" type="line"/>
      <point x="1543" y="1480" type="line"/>
      <point x="1484" y="1144" type="line"/>
      <point x="1003" y="1144" type="line"/>
    </contour>
  </outline>
</glyph>
<glyph name="tbar" format="2">
  <advance width="1058"/>
  <unicode hex="0167"/>
  <outline>
    <contour>
      <point x="25" y="410" type="line"/>
      <point x="25" y="456"/>
      <point x="25" y="604"/>
      <point x="25" y="650" type="curve"/>
      <point x="942" y="650" type="line"/>
      <point x="942" y="410" type="line"/>
    </contour>
    <contour>
      <point x="97" y="1028" type="line"/>
      <point x="217" y="1028"/>
      <point x="301" y="1106"/>
      <point x="301" y="1226" type="curve"/>
      <point x="301" y="1320" type="line"/>
      <point x="637" y="1320" type="line"/>
      <point x="637" y="1040" type="line"/>
      <point x="942" y="1040" type="line"/>
      <point x="942" y="720" type="line"/>
      <point x="637" y="720" type="line"/>
      <point x="637" y="440" type="line" smooth="yes"/>
      <point x="637" y="340"/>
      <point x="685" y="290"/>
      <point x="775" y="290" type="curve" smooth="yes"/>
      <point x="835" y="290"/>
      <point x="910" y="313"/>
      <point x="942" y="345" type="curve"/>
      <point x="1033" y="22" type="line"/>
      <point x="977" y="-2"/>
      <point x="892" y="-30"/>
      <point x="771" y="-30" type="curve" smooth="yes"/>
      <point x="411" y="-30"/>
      <point x="277" y="160"/>
      <point x="277" y="440" type="curve" smooth="yes"/>
      <point x="277" y="720" type="line"/>
      <point x="25" y="720" type="line"/>
      <point x="25" y="750"/>
      <point x="25" y="998"/>
      <point x="25" y="1028" type="curve"/>
    </contour>
  </outline>
</glyph>
<glyph name="longs" format="2">
  <advance width="851"/>
  <unicode hex="017F"/>
  <anchor x="456" y="1380" name="top_center"/>
  <anchor x="250" y="0" name="bottom_center"/>
  <outline>
    <contour>
      <point x="430" y="690" type="line"/>
      <point x="430" y="1050" type="line"/>
      <point x="430" y="1150"/>
      <point x="478" y="1190"/>
      <point x="568" y="1190" type="curve" smooth="yes"/>
      <point x="628" y="1190"/>
      <point x="703" y="1167"/>
      <point x="735" y="1135" type="curve"/>
      <point x="826" y="1458" type="line"/>
      <point x="770" y="1482"/>
      <point x="685" y="1510"/>
      <point x="564" y="1510" type="curve" smooth="yes"/>
      <point x="204" y="1510"/>
      <point x="70" y="1320"/>
      <point x="70" y="1040" type="curve"/>
      <point x="70" y="680" type="line"/>
      <point x="70" y="0" type="line"/>
      <point x="430" y="0" type="line"/>
    </contour>
  </outline>
</glyph>
<glyph name="uni0180" format="2">
  <advance width="1390"/>
  <unicode hex="0180"/>
  <outline>
    <contour>
      <point x="907" y="1120" type="line"/>
      <point x="67" y="1120" type="line"/>
      <point x="110" y="1360" type="line"/>
      <point x="950" y="1360" type="line"/>
    </contour>
    <contour>
      <point x="772" y="750" type="curve" smooth="yes"/>
      <point x="592" y="750"/>
      <point x="525" y="564"/>
      <point x="525" y="454" type="curve" smooth="yes"/>
      <point x="525" y="355"/>
      <point x="580" y="290"/>
      <point x="691" y="290" type="curve" smooth="yes"/>
      <point x="865" y="290"/>
      <point x="947" y="448"/>
      <point x="947" y="575" type="curve" smooth="yes"/>
      <point x="947" y="677"/>
      <point x="889" y="750"/>
    </contour>
    <contour>
      <point x="341" y="1480" type="line"/>
      <point x="701" y="1480" type="line"/>
      <point x="602" y="920" type="line"/>
      <point x="619" y="959"/>
      <point x="744" y="1070"/>
      <point x="894" y="1070" type="curve" smooth="yes"/>
      <point x="1169" y="1070"/>
      <point x="1314" y="901"/>
      <point x="1314" y="650" type="curve" smooth="yes"/>
      <point x="1314" y="336"/>
      <point x="1110" y="-30"/>
      <point x="700" y="-30" type="curve" smooth="yes"/>
      <point x="555" y="-30"/>
      <point x="449" y="73"/>
      <point x="449" y="116" type="curve"/>
      <point x="428" y="0" type="line"/>
      <point x="80" y="0" type="line"/>
    </contour>
  </outline>
</glyph>
<glyph name="uni0181" format="2">
  <advance width="1790"/>
  <unicode hex="0181"/>
  <outline>
    <contour>
      <point x="1698" y="540" type="curve" smooth="yes"/>
      <point x="1698" y="261"/>
      <point x="1457" y="0"/>
      <point x="1035" y="0" type="curve" smooth="yes"/>
      <point x="304" y="0" type="line"/>
      <point x="565" y="1480" type="line"/>
      <point x="1296" y="1480" type="line" smooth="yes"/>
      <point x="1584" y="1480"/>
      <point x="1764" y="1327"/>
      <point x="1764" y="1110" type="curve" smooth="yes"/>
      <point x="1764" y="1096"/>
      <point x="1759" y="620"/>
      <point x="1144" y="620" type="curve"/>
      <point x="1197" y="916" type="line"/>
      <point x="1311" y="916"/>
      <point x="1378" y="978"/>
      <point x="1378" y="1049" type="curve" smooth="yes"/>
      <point x="1378" y="1109"/>
      <point x="1321" y="1144"/>
      <point x="1237" y="1144" type="curve" smooth="yes"/>
      <point x="886" y="1144" type="line"/>
      <point x="846" y="916" type="line"/>
      <point x="1197" y="916" type="line"/>
      <point x="1141" y="600" type="line"/>
      <point x="790" y="600" type="line"/>
      <point x="743" y="336" type="line"/>
      <point x="1094" y="336" type="line" smooth="yes"/>
      <point x="1235" y="336"/>
      <point x="1315" y="404"/>
      <point x="1315" y="491" type="curve" smooth="yes"/>
      <point x="1315" y="569"/>
      <point x="1234" y="600"/>
      <point x="1141" y="600" type="curve"/>
      <point x="1193" y="896" type="line"/>
      <point x="1489" y="896"/>
      <point x="1698" y="777"/>
    </contour>
    <contour>
      <point x="409" y="1040" type="curve"/>
      <point x="55" y="1040" type="line"/>
      <point x="56" y="1052"/>
      <point x="58" y="1064"/>
      <point x="60" y="1076" type="curve" smooth="yes"/>
      <point x="104" y="1326"/>
      <point x="315" y="1480"/>
      <point x="565" y="1480" type="curve" smooth="yes"/>
      <point x="577" y="1480"/>
      <point x="589" y="1480"/>
      <point x="601" y="1479" type="curve"/>
      <point x="543" y="1153" type="line"/>
      <point x="533" y="1158"/>
      <point x="522" y="1160"/>
      <point x="509" y="1160" type="curve" smooth="yes"/>
      <point x="459" y="1160"/>
      <point x="418" y="1126"/>
      <point x="409" y="1076" type="curve" smooth="yes"/>
      <point x="407" y="1063"/>
      <point x="405" y="1051"/>
    </contour>
  </outline>
</glyph>
<glyph name="uni0184" format="2">
  <advance width="1579"/>
  <unicode hex="0184"/>
  <outline>
    <contour>
      <point x="887" y="336" type="line" smooth="yes"/>
      <point x="1017" y="336"/>
      <point x="1108" y="430"/>
      <point x="1108" y="520" type="curve" smooth="yes"/>
      <point x="1108" y="591"/>
      <point x="1052" y="656"/>
      <point x="944" y="656" type="curve" smooth="yes"/>
      <point x="643" y="656" type="line"/>
      <point x="586" y="336" type="line"/>
    </contour>
    <contour>
      <point x="1493" y="577" type="curve" smooth="yes"/>
      <point x="1493" y="301"/>
      <point x="1238" y="0"/>
      <point x="828" y="0" type="curve" smooth="yes"/>
      <point x="147" y="0" type="line"/>
      <point x="323" y="1000" type="line"/>
      <point x="25" y="1165" type="line"/>
      <point x="491" y="1480" type="line"/>
      <point x="788" y="1480" type="line"/>
      <point x="699" y="976" type="line"/>
      <point x="1000" y="976" type="line" smooth="yes"/>
      <point x="1327" y="976"/>
      <point x="1493" y="797"/>
    </contour>
  </outline>
</glyph>
<glyph name="uni0187" format="2">
  <advance width="1599"/>
  <unicode hex="0187"/>
  <outline>
    <contour>
      <point x="1563" y="1560" type="curve" smooth="yes"/>
      <point x="1575" y="1560"/>
      <point x="1587" y="1560"/>
      <point x="1599" y="1559" type="curve"/>
      <point x="1599" y="1233" type="line"/>
      <point x="1588" y="1238"/>
      <point x="1576" y="1240"/>
      <point x="1563" y="1240" type="curve" smooth="yes"/>
      <point x="1513" y="1240"/>
      <point x="1478" y="1206"/>
      <point x="1478" y="1156" type="curve" smooth="yes"/>
      <point x="1478" y="1143"/>
      <point x="1479" y="1131"/>
      <point x="1485" y="1120" type="curve"/>
      <point x="1131" y="1120" type="line"/>
      <point x="1130" y="1132"/>
      <point x="1129" y="1144"/>
      <point x="1129" y="1156" type="curve" smooth="yes"/>
      <point x="1129" y="1406"/>
      <point x="1313" y="1560"/>
    </contour>
    <contour>
      <point x="1160" y="930" type="line"/>
      <point x="1109" y="1078"/>
      <point x="991" y="1174"/>
      <point x="810" y="1174" type="curve" smooth="yes"/>
      <point x="560" y="1174"/>
      <point x="430" y="990"/>
      <point x="430" y="740" type="curve" smooth="yes"/>
      <point x="430" y="490"/>
      <point x="560" y="306"/>
      <point x="810" y="306" type="curve" smooth="yes"/>
      <point x="991" y="306"/>
      <point x="1109" y="402"/>
      <point x="1160" y="550" type="curve"/>
      <point x="1485" y="360" type="line"/>
      <point x="1365" y="120"/>
      <point x="1125" y="-30"/>
      <point x="810" y="-30" type="curve" smooth="yes"/>
      <point x="350" y="-30"/>
      <point x="50" y="290"/>
      <point x="50" y="740" type="curve" smooth="yes"/>
      <point x="50" y="1190"/>
      <point x="350" y="1510"/>
      <point x="810" y="1510" type="curve" smooth="yes"/>
      <point x="1125" y="1510"/>
      <point x="1365" y="1360"/>
      <point x="1485" y="1120" type="curve"/>
    </contour>
  </outline>
</glyph>
<glyph name="uni0188" format="2">
  <advance width="1201"/>
  <unicode hex="0188"/>
  <outline>
    <contour>
      <point x="1165" y="1228" type="curve" smooth="yes"/>
      <point x="1177" y="1228"/>
      <point x="1189" y="1228"/>
      <point x="1201" y="1227" type="curve"/>
      <point x="1201" y="901" type="line"/>
      <point x="1190" y="906"/>
      <point x="1178" y="908"/>
      <point x="1165" y="908" type="curve" smooth="yes"/>
      <point x="1115" y="908"/>
      <point x="1080" y="874"/>
      <point x="1080" y="824" type="curve" smooth="yes"/>
      <point x="1080" y="811"/>
      <point x="1081" y="799"/>
      <point x="1087" y="788" type="curve"/>
      <point x="733" y="788" type="line"/>
      <point x="732" y="800"/>
      <point x="731" y="812"/>
      <point x="731" y="824" type="curve" smooth="yes"/>
      <point x="731" y="1074"/>
      <point x="915" y="1228"/>
    </contour>
    <contour>
      <point x="410" y="520" type="curve" smooth="yes"/>
      <point x="410" y="383"/>
      <point x="463" y="290"/>
      <point x="600" y="290" type="curve" smooth="yes"/>
      <point x="704" y="290"/>
      <point x="759" y="344"/>
      <point x="780" y="430" type="curve"/>
      <point x="1087" y="252" type="line"/>
      <point x="999" y="79"/>
      <point x="821" y="-30"/>
      <point x="600" y="-30" type="curve" smooth="yes"/>
      <point x="280" y="-30"/>
      <point x="50" y="200"/>
      <point x="50" y="520" type="curve" smooth="yes"/>
      <point x="50" y="840"/>
      <point x="280" y="1070"/>
      <point x="600" y="1070" type="curve" smooth="yes"/>
      <point x="821" y="1070"/>
      <point x="999" y="961"/>
      <point x="1087" y="788" type="curve"/>
      <point x="780" y="610" type="line"/>
      <point x="759" y="696"/>
      <point x="704" y="750"/>
      <point x="600" y="750" type="curve" smooth="yes"/>
      <point x="463" y="750"/>
      <point x="410" y="657"/>
    </contour>
  </outline>
</glyph>
<glyph name="uni018B" format="2">
  <advance width="1426"/>
  <unicode hex="018B"/>
  <outline>
    <contour>
      <point x="657" y="916" type="line" smooth="yes"/>
      <point x="217" y="916"/>
      <point x="-7" y="649"/>
      <point x="-7" y="372" type="curve" smooth="yes"/>
      <point x="-7" y="135"/>
      <point x="187" y="0"/>
      <point x="495" y="0" type="curve" smooth="yes"/>
      <point x="1226" y="0" type="line"/>
      <point x="1487" y="1480" type="line"/>
      <point x="301" y="1480" type="line"/>
      <point x="242" y="1144" type="line"/>
      <point x="1048" y="1144" type="line"/>
      <point x="1008" y="916" type="line"/>
    </contour>
    <contour>
      <point x="381" y="445" type="curve" smooth="yes"/>
      <point x="381" y="531"/>
      <point x="459" y="600"/>
      <point x="601" y="600" type="curve" smooth="yes"/>
      <point x="952" y="600" type="line"/>
      <point x="905" y="336" type="line"/>
      <point x="554" y="336" type="line" smooth="yes"/>
      <point x="462" y="336"/>
      <point x="381" y="367"/>
    </contour>
  </outline>
</glyph>
<glyph name="uni018D" format="2">
  <advance width="1200"/>
  <unicode hex="018D"/>
  <outline>
    <contour>
      <point x="2" y="411" type="curve" smooth="yes"/>
      <point x="2" y="751"/>
      <point x="277" y="1070"/>
      <point x="659" y="1070" type="curve" smooth="yes"/>
      <point x="941" y="1070"/>
      <point x="1122" y="891"/>
      <point x="1122" y="629" type="curve" smooth="yes"/>
      <point x="1122" y="500"/>
      <point x="1077" y="70"/>
      <point x="482" y="70" type="curve"/>
      <point x="521" y="290" type="line"/>
      <point x="753" y="290"/>
      <point x="758" y="564"/>
      <point x="758" y="588" type="curve" smooth="yes"/>
      <point x="758" y="683"/>
      <point x="714" y="750"/>
      <point x="602" y="750" type="curve" smooth="yes"/>
      <point x="372" y="750"/>
      <point x="365" y="480"/>
      <point x="365" y="448" type="curve" smooth="yes"/>
      <point x="365" y="352"/>
      <point x="410" y="290"/>
      <point x="521" y="290" type="curve"/>
      <point x="465" y="-30" type="line"/>
      <point x="183" y="-30"/>
      <point x="2" y="149"/>
    </contour>
    <contour>
      <point x="941" y="-31" type="curve" smooth="yes"/>
      <point x="941" y="-229"/>
      <point x="756" y="-470"/>
      <point x="387" y="-470" type="curve" smooth="yes"/>
      <point x="171" y="-470"/>
      <point x="32" y="-444"/>
      <point x="-81" y="-393" type="curve"/>
      <point x="52" y="-79" type="line"/>
      <point x="169" y="-134"/>
      <point x="305" y="-150"/>
      <point x="444" y="-150" type="curve" smooth="yes"/>
      <point x="480" y="-150"/>
      <point x="577" y="-149"/>
      <point x="577" y="-80" type="curve" smooth="yes"/>
      <point x="577" y="-47"/>
      <point x="543" y="-30"/>
      <point x="465" y="-30" type="curve"/>
      <point x="521" y="290" type="line"/>
      <point x="821" y="290"/>
      <point x="941" y="131"/>
    </contour>
  </outline>
</glyph>
<glyph name="uni018E" format="2">
  <advance width="1254"/>
  <unicode hex="018E"/>
  <anchor x="740" y="1380" name="top_center"/>
  <anchor x="497" y="0" name="bottom_center"/>
  <anchor x="493" y="-20" name="bottom_cedilla"/>
  <outline>
    <contour>
      <point x="155" y="572" type="line"/>
      <point x="214" y="908" type="line"/>
      <point x="834" y="908" type="line"/>
      <point x="876" y="1144" type="line"/>
      <point x="142" y="1144" type="line"/>
      <point x="201" y="1480" type="line"/>
      <point x="1315" y="1480" type="line"/>
      <point x="1054" y="0" type="line"/>
      <point x="-60" y="0" type="line"/>
      <point x="-1" y="336" type="line"/>
      <point x="733" y="336" type="line"/>
      <point x="775" y="572" type="line"/>
    </contour>
  </outline>
</glyph>
<glyph name="uni018F" format="2">
  <advance width="1535"/>
  <unicode hex="018F"/>
  <anchor x="827" y="0" name="bottom_right"/>
  <anchor x="591" y="-20" name="bottom_cedilla"/>
  <anchor x="595" y="0" name="bottom_center"/>
  <anchor x="838" y="1380" name="top_center"/>
  <outline>
    <contour>
      <point x="801" y="656" type="line" smooth="yes"/>
      <point x="451.506" y="656"/>
      <point x="420.794" y="500.054"/>
      <point x="420.794" y="445.233" type="curve" smooth="yes"/>
      <point x="420.794" y="373.577"/>
      <point x="478.583" y="306"/>
      <point x="649" y="306" type="curve" smooth="yes"/>
      <point x="980.905" y="306"/>
      <point x="1115.25" y="621.837"/>
      <point x="1115.25" y="851.058" type="curve" smooth="yes"/>
      <point x="1115.25" y="1042.62"/>
      <point x="1013.25" y="1174"/>
      <point x="802" y="1174" type="curve" smooth="yes"/>
      <point x="621" y="1174"/>
      <point x="486" y="1078"/>
      <point x="409" y="930" type="curve"/>
      <point x="117" y="1120" type="line"/>
      <point x="279" y="1360"/>
      <point x="546" y="1510"/>
      <point x="861" y="1510" type="curve" smooth="yes"/>
      <point x="1263.4" y="1510"/>
      <point x="1499.74" y="1265.13"/>
      <point x="1499.74" y="902.568" type="curve" smooth="yes"/>
      <point x="1499.74" y="440.221"/>
      <point x="1155.84" y="-30"/>
      <point x="590" y="-30" type="curve" smooth="yes"/>
      <point x="188.157" y="-30"/>
      <point x="33.5671" y="137.888"/>
      <point x="33.5671" y="367.001" type="curve" smooth="yes"/>
      <point x="33.5671" y="750.951"/>
      <point x="427.22" y="992"/>
      <point x="860" y="992" type="curve" smooth="yes"/>
      <point x="1356" y="992" type="line"/>
      <point x="1297" y="656" type="line"/>
    </contour>
  </outline>
</glyph>
<glyph name="uni0190" format="2">
  <advance width="1326"/>
  <unicode hex="0190"/>
  <anchor x="775" y="0" name="bottom_right"/>
  <anchor x="530" y="-20" name="bottom_cedilla"/>
  <anchor x="534" y="0" name="bottom_center"/>
  <anchor x="777" y="1380" name="top_center"/>
  <outline>
    <contour>
      <point x="378.371" y="432.989" type="curve" smooth="yes"/>
      <point x="378.371" y="470.325"/>
      <point x="394.306" y="616"/>
      <point x="643" y="616" type="curve" smooth="yes"/>
      <point x="757" y="616" type="line"/>
      <point x="813" y="936" type="line"/>
      <point x="699" y="936" type="line" smooth="yes"/>
      <point x="619.996" y="936"/>
      <point x="537.537" y="965.372"/>
      <point x="537.537" y="1033.75" type="curve" smooth="yes"/>
      <point x="537.537" y="1067"/>
      <point x="552.203" y="1174"/>
      <point x="741" y="1174" type="curve" smooth="yes"/>
      <point x="853.328" y="1174"/>
      <point x="909.129" y="1138.47"/>
      <point x="909.129" y="1073.21" type="curve" smooth="yes"/>
      <point x="909.129" y="1065.85"/>
      <point x="908.419" y="1058.11"/>
      <point x="907" y="1050" type="curve"/>
      <point x="1296" y="1146" type="line"/>
      <point x="1296" y="1147"/>
      <point x="1296" y="1149"/>
      <point x="1296" y="1150" type="curve" smooth="yes"/>
      <point x="1296" y="1368.83"/>
      <point x="1085.94" y="1510"/>
      <point x="800" y="1510" type="curve" smooth="yes"/>
      <point x="365.177" y="1510"/>
      <point x="154.476" y="1230.42"/>
      <point x="154.476" y="987.114" type="curve" smooth="yes"/>
      <point x="154.476" y="818.765"/>
      <point x="278" y="781"/>
      <point x="278" y="781" type="curve"/>
      <point x="251.226" y="771.201"/>
      <point x="-9.27244" y="667.78"/>
      <point x="-9.27244" y="353.403" type="curve" smooth="yes"/>
      <point x="-9.27244" y="89.9362"/>
      <point x="207.092" y="-30"/>
      <point x="529" y="-30" type="curve" smooth="yes"/>
      <point x="824" y="-30"/>
      <point x="1119" y="91"/>
      <point x="1210" y="361" type="curve"/>
      <point x="854" y="461" type="line"/>
      <point x="836" y="361"/>
      <point x="738" y="306"/>
      <point x="588" y="306" type="curve" smooth="yes"/>
      <point x="452.655" y="306"/>
      <point x="378.371" y="350.778"/>
    </contour>
  </outline>
</glyph>
<glyph name="uni0191" format="2">
  <advance width="1305"/>
  <unicode hex="0191"/>
  <outline>
    <contour>
      <point x="-144" y="-77" type="line"/>
      <point x="-134" y="-82"/>
      <point x="-122" y="-84"/>
      <point x="-109" y="-84" type="curve" smooth="yes"/>
      <point x="-59" y="-84"/>
      <point x="-18" y="-50"/>
      <point x="-9" y="0" type="curve"/>
      <point x="371" y="0" type="line"/>
      <point x="327" y="-250"/>
      <point x="85" y="-404"/>
      <point x="-165" y="-404" type="curve" smooth="yes"/>
      <point x="-177" y="-404"/>
      <point x="-189" y="-404"/>
      <point x="-201" y="-403" type="curve"/>
    </contour>
    <contour>
      <point x="410" y="219" type="line"/>
      <point x="371" y="0" type="line"/>
      <point x="-9" y="0" type="line"/>
      <point x="252" y="1480" type="line"/>
      <point x="1366" y="1480" type="line"/>
      <point x="1307" y="1144" type="line"/>
      <point x="573" y="1144" type="line"/>
      <point x="531" y="908" type="line"/>
      <point x="1151" y="908" type="line"/>
      <point x="1092" y="572" type="line"/>
      <point x="472" y="572" type="line"/>
    </contour>
  </outline>
</glyph>
<glyph name="uni0193" format="2">
  <advance width="1599"/>
  <unicode hex="0193"/>
  <outline>
    <contour>
      <point x="1708" y="1560" type="curve" smooth="yes"/>
      <point x="1720" y="1560"/>
      <point x="1732" y="1560"/>
      <point x="1744" y="1559" type="curve"/>
      <point x="1686" y="1233" type="line"/>
      <point x="1676" y="1238"/>
      <point x="1665" y="1240"/>
      <point x="1652" y="1240" type="curve" smooth="yes"/>
      <point x="1602" y="1240"/>
      <point x="1561" y="1206"/>
      <point x="1552" y="1156" type="curve" smooth="yes"/>
      <point x="1550" y="1143"/>
      <point x="1548" y="1131"/>
      <point x="1552" y="1120" type="curve"/>
      <point x="1198" y="1120" type="line"/>
      <point x="1199" y="1132"/>
      <point x="1201" y="1144"/>
      <point x="1203" y="1156" type="curve" smooth="yes"/>
      <point x="1247" y="1406"/>
      <point x="1458" y="1560"/>
    </contour>
    <contour>
      <point x="35" y="578" type="curve" smooth="yes"/>
      <point x="35" y="1041"/>
      <point x="381" y="1510"/>
      <point x="946" y="1510" type="curve" smooth="yes"/>
      <point x="1261" y="1510"/>
      <point x="1474" y="1360"/>
      <point x="1552" y="1120" type="curve"/>
      <point x="1190" y="930" type="line"/>
      <point x="1165" y="1078"/>
      <point x="1068" y="1174"/>
      <point x="887" y="1174" type="curve" smooth="yes"/>
      <point x="556" y="1174"/>
      <point x="420" y="861"/>
      <point x="420" y="630" type="curve" smooth="yes"/>
      <point x="420" y="438"/>
      <point x="523" y="306"/>
      <point x="734" y="306" type="curve" smooth="yes"/>
      <point x="915" y="306"/>
      <point x="1046" y="402"/>
      <point x="1123" y="550" type="curve"/>
      <point x="1254" y="360" type="line"/>
      <point x="1092" y="120"/>
      <point x="990" y="-30"/>
      <point x="675" y="-30" type="curve" smooth="yes"/>
      <point x="272" y="-30"/>
      <point x="35" y="215"/>
    </contour>
    <contour>
      <point x="763" y="824" type="line"/>
      <point x="1508" y="824" type="line"/>
      <point x="1363" y="0" type="line"/>
      <point x="1003" y="0" type="line"/>
      <point x="1043" y="227" type="line"/>
      <point x="1028" y="253" type="line"/>
      <point x="1069" y="488" type="line"/>
      <point x="704" y="488" type="line"/>
    </contour>
  </outline>
</glyph>
<glyph name="uni0194" format="2">
  <advance width="1530"/>
  <unicode hex="0194"/>
  <outline>
    <contour>
      <point x="1046" y="100" type="line"/>
      <point x="1067" y="48"/>
      <point x="1071" y="-13"/>
      <point x="1062" y="-66" type="curve" smooth="yes"/>
      <point x="1021" y="-296"/>
      <point x="787" y="-470"/>
      <point x="557" y="-470" type="curve" smooth="yes"/>
      <point x="327" y="-470"/>
      <point x="153" y="-296"/>
      <point x="194" y="-66" type="curve" smooth="yes"/>
      <point x="203" y="-13"/>
      <point x="231" y="48"/>
      <point x="270" y="100" type="curve"/>
      <point x="457" y="338" type="line"/>
      <point x="166" y="1480" type="line"/>
      <point x="558" y="1480" type="line"/>
      <point x="763" y="679" type="line"/>
      <point x="1234" y="1480" type="line"/>
      <point x="1626" y="1480" type="line"/>
      <point x="933" y="338" type="line"/>
    </contour>
    <contour>
      <point x="705" y="0" type="curve"/>
      <point x="659" y="107" type="line"/>
      <point x="575" y="0" type="line"/>
      <point x="568" y="-9"/>
      <point x="548" y="-38"/>
      <point x="543" y="-66" type="curve" smooth="yes"/>
      <point x="534" y="-116"/>
      <point x="564" y="-150"/>
      <point x="614" y="-150" type="curve" smooth="yes"/>
      <point x="664" y="-150"/>
      <point x="703" y="-116"/>
      <point x="712" y="-66" type="curve" smooth="yes"/>
      <point x="717" y="-38"/>
      <point x="710" y="-12"/>
    </contour>
  </outline>
</glyph>
<glyph name="uni0195" format="2">
  <advance width="1864"/>
  <unicode hex="0195"/>
  <outline>
    <contour>
      <point x="1814" y="467" type="curve" smooth="yes"/>
      <point x="1814" y="147"/>
      <point x="1608" y="-31"/>
      <point x="1288" y="-31" type="curve" smooth="yes"/>
      <point x="968" y="-31"/>
      <point x="762" y="147"/>
      <point x="762" y="467" type="curve"/>
      <point x="762" y="572" type="line" smooth="yes"/>
      <point x="762" y="682"/>
      <point x="726" y="750"/>
      <point x="596" y="750" type="curve" smooth="yes"/>
      <point x="466" y="750"/>
      <point x="430" y="682"/>
      <point x="430" y="572" type="curve" smooth="yes"/>
      <point x="430" y="0" type="line"/>
      <point x="70" y="0" type="line"/>
      <point x="70" y="1480" type="line"/>
      <point x="418" y="1480" type="line"/>
      <point x="418" y="920" type="line"/>
      <point x="453" y="981"/>
      <point x="542" y="1070"/>
      <point x="692" y="1070" type="curve" smooth="yes"/>
      <point x="956" y="1070"/>
      <point x="1122" y="892"/>
      <point x="1122" y="572" type="curve"/>
      <point x="1122" y="467" type="line" smooth="yes"/>
      <point x="1122" y="357"/>
      <point x="1158" y="289"/>
      <point x="1288" y="289" type="curve" smooth="yes"/>
      <point x="1418" y="289"/>
      <point x="1454" y="357"/>
      <point x="1454" y="467" type="curve" smooth="yes"/>
      <point x="1454" y="697"/>
      <point x="1416" y="842"/>
      <point x="1297" y="945" type="curve"/>
      <point x="1597" y="1109" type="line"/>
      <point x="1722" y="980"/>
      <point x="1814" y="817"/>
    </contour>
  </outline>
</glyph>
<glyph name="uni0196" format="2">
  <advance width="851"/>
  <unicode hex="0196"/>
  <anchor x="363" y="1380" name="top_center"/>
  <anchor x="434" y="0" name="bottom_center"/>
  <outline>
    <contour>
      <point x="429" y="-30" type="curve" smooth="yes"/>
      <point x="69" y="-30"/>
      <point x="-31" y="160"/>
      <point x="18" y="440" type="curve"/>
      <point x="88" y="842" type="line"/>
      <point x="201" y="1480" type="line"/>
      <point x="561" y="1480" type="line"/>
      <point x="448" y="842" type="line"/>
      <point x="376" y="430" type="line"/>
      <point x="358" y="330"/>
      <point x="399" y="290"/>
      <point x="489" y="290" type="curve" smooth="yes"/>
      <point x="549" y="290"/>
      <point x="628" y="313"/>
      <point x="666" y="345" type="curve"/>
      <point x="700" y="22" type="line"/>
      <point x="640" y="-2"/>
      <point x="550" y="-30"/>
    </contour>
  </outline>
</glyph>
<glyph name="uni0197" format="2">
  <advance width="924"/>
  <unicode hex="0197"/>
  <anchor x="522" y="0" name="bottom_right"/>
  <anchor x="332" y="0" name="bottom_center"/>
  <anchor x="575" y="1380" name="top_center"/>
  <anchor x="328" y="-20" name="bottom_cedilla"/>
  <outline>
    <contour>
      <point x="871" y="620" type="line"/>
      <point x="11" y="620" type="line"/>
      <point x="19" y="666"/>
      <point x="46" y="814"/>
      <point x="54" y="860" type="curve"/>
      <point x="914" y="860" type="line"/>
    </contour>
    <contour>
      <point x="201" y="1480" type="line"/>
      <point x="985" y="1480" type="line"/>
      <point x="926" y="1144" type="line"/>
      <point x="724" y="1144" type="line"/>
      <point x="581" y="336" type="line"/>
      <point x="783" y="336" type="line"/>
      <point x="724" y="0" type="line"/>
      <point x="-60" y="0" type="line"/>
      <point x="-1" y="336" type="line"/>
      <point x="201" y="336" type="line"/>
      <point x="344" y="1144" type="line"/>
      <point x="142" y="1144" type="line"/>
    </contour>
  </outline>
</glyph>
<glyph name="uni019A" format="2">
  <advance width="840"/>
  <unicode hex="019A"/>
  <outline>
    <contour>
      <point x="840" y="620" type="line"/>
      <point x="0" y="620" type="line"/>
      <point x="0" y="666"/>
      <point x="0" y="814"/>
      <point x="0" y="860" type="curve"/>
      <point x="840" y="860" type="line"/>
    </contour>
    <contour>
      <point x="726" y="306" type="curve"/>
      <point x="826" y="14" type="line"/>
      <point x="800" y="1"/>
      <point x="752" y="-30"/>
      <point x="664" y="-30" type="curve" smooth="yes"/>
      <point x="480" y="-30"/>
      <point x="236" y="62"/>
      <point x="236" y="362" type="curve" smooth="yes"/>
      <point x="236" y="440" type="line"/>
      <point x="236" y="578" type="line"/>
      <point x="236" y="1480" type="line"/>
      <point x="596" y="1480" type="line"/>
      <point x="596" y="578" type="line"/>
      <point x="596" y="440" type="line"/>
      <point x="596" y="362" type="line" smooth="yes"/>
      <point x="596" y="312"/>
      <point x="612" y="290"/>
      <point x="664" y="290" type="curve" smooth="yes"/>
      <point x="683" y="290"/>
      <point x="713" y="297"/>
    </contour>
  </outline>
</glyph>
<glyph name="uni019B" format="2">
  <advance width="1375"/>
  <unicode hex="019B"/>
  <outline>
    <contour>
      <point x="709" y="1174" type="line"/>
      <point x="860" y="1247" type="line"/>
      <point x="790" y="1382" type="line"/>
      <point x="620" y="1302" type="line"/>
      <point x="214" y="1107" type="line"/>
      <point x="283" y="969" type="line"/>
    </contour>
    <contour>
      <point x="784" y="1040" type="line"/>
      <point x="730" y="1198" type="line"/>
      <point x="648" y="1424"/>
      <point x="539" y="1510"/>
      <point x="260" y="1510" type="curve" smooth="yes"/>
      <point x="139" y="1510"/>
      <point x="109" y="1489"/>
      <point x="53" y="1465" type="curve"/>
      <point x="149" y="1145" type="line"/>
      <point x="181" y="1177"/>
      <point x="200" y="1190"/>
      <point x="260" y="1190" type="curve" smooth="yes"/>
      <point x="320" y="1190"/>
      <point x="374" y="1147"/>
      <point x="389" y="1084" type="curve"/>
      <point x="401" y="1040" type="line"/>
      <point x="35" y="0" type="line"/>
      <point x="419" y="0" type="line"/>
      <point x="595" y="526" type="line"/>
      <point x="673" y="282" type="line"/>
      <point x="746" y="56"/>
      <point x="854" y="-30"/>
      <point x="1133" y="-30" type="curve" smooth="yes"/>
      <point x="1254" y="-30"/>
      <point x="1284" y="-9"/>
      <point x="1340" y="15" type="curve"/>
      <point x="1244" y="335" type="line"/>
      <point x="1212" y="303"/>
      <point x="1193" y="290"/>
      <point x="1133" y="290" type="curve" smooth="yes"/>
      <point x="1073" y="290"/>
      <point x="1019" y="333"/>
      <point x="1004" y="396" type="curve"/>
    </contour>
  </outline>
</glyph>
<glyph name="uni019C" format="2">
  <advance width="1644"/>
  <unicode hex="019C"/>
  <anchor x="935" y="1380" name="top_center"/>
  <anchor x="692" y="0" name="bottom_center"/>
  <outline>
    <contour>
      <point x="1475" y="178" type="line"/>
      <point x="1457" y="76"/>
      <point x="1468" y="0"/>
      <point x="1468" y="0" type="curve"/>
      <point x="1120" y="0" type="line"/>
      <point x="1120" y="0"/>
      <point x="1106" y="60"/>
      <point x="1117" y="120" type="curve"/>
      <point x="1117" y="120"/>
      <point x="1027" y="-30"/>
      <point x="877" y="-30" type="curve" smooth="yes"/>
      <point x="613" y="-30"/>
      <point x="539" y="148"/>
      <point x="595" y="468" type="curve"/>
      <point x="769" y="1460" type="line"/>
      <point x="1129" y="1460" type="line"/>
      <point x="955" y="468" type="line" smooth="yes"/>
      <point x="936" y="358"/>
      <point x="929" y="290"/>
      <point x="1029" y="290" type="curve" smooth="yes"/>
      <point x="1129" y="290"/>
      <point x="1148" y="358"/>
      <point x="1167" y="468" type="curve" smooth="yes"/>
      <point x="1341" y="1460" type="line"/>
      <point x="1701" y="1460" type="line"/>
    </contour>
    <contour>
      <point x="763" y="468" type="line"/>
      <point x="707" y="148"/>
      <point x="569" y="-30"/>
      <point x="305" y="-30" type="curve" smooth="yes"/>
      <point x="41" y="-30"/>
      <point x="-33" y="148"/>
      <point x="23" y="468" type="curve"/>
      <point x="197" y="1460" type="line"/>
      <point x="557" y="1460" type="line"/>
      <point x="383" y="468" type="line" smooth="yes"/>
      <point x="364" y="358"/>
      <point x="357" y="290"/>
      <point x="457" y="290" type="curve" smooth="yes"/>
      <point x="557" y="290"/>
      <point x="576" y="358"/>
      <point x="595" y="468" type="curve"/>
    </contour>
  </outline>
</glyph>
<glyph name="uni019D" format="2">
  <advance width="1533"/>
  <unicode hex="019D"/>
  <anchor x="906" y="1380" name="top_center"/>
  <outline>
    <contour>
      <point x="-144" y="-77" type="line"/>
      <point x="-134" y="-82"/>
      <point x="-122" y="-84"/>
      <point x="-109" y="-84" type="curve" smooth="yes"/>
      <point x="-59" y="-84"/>
      <point x="-18" y="-50"/>
      <point x="-9" y="0" type="curve"/>
      <point x="371" y="0" type="line"/>
      <point x="327" y="-250"/>
      <point x="85" y="-404"/>
      <point x="-165" y="-404" type="curve" smooth="yes"/>
      <point x="-177" y="-404"/>
      <point x="-189" y="-404"/>
      <point x="-201" y="-403" type="curve"/>
    </contour>
    <contour>
      <point x="616" y="1480" type="line"/>
      <point x="1068" y="652" type="line"/>
      <point x="1214" y="1480" type="line"/>
      <point x="1594" y="1480" type="line"/>
      <point x="1333" y="0" type="line"/>
      <point x="969" y="0" type="line"/>
      <point x="517" y="828" type="line"/>
      <point x="371" y="0" type="line"/>
      <point x="-9" y="0" type="line"/>
      <point x="252" y="1480" type="line"/>
    </contour>
  </outline>
</glyph>
<glyph name="uni019F" format="2">
  <advance width="1620"/>
  <unicode hex="019F"/>
  <anchor x="912" y="0" name="bottom_right"/>
  <anchor x="680" y="0" name="bottom_center"/>
  <anchor x="1555" y="1480" name="top_right"/>
  <anchor x="923" y="1380" name="top_center"/>
  <outline>
    <contour>
      <point x="1367" y="572" type="line"/>
      <point x="187" y="572" type="line"/>
      <point x="246" y="908" type="line"/>
      <point x="1426" y="908" type="line"/>
    </contour>
    <contour>
      <point x="887" y="1174" type="curve" smooth="yes"/>
      <point x="556" y="1174"/>
      <point x="420" y="861"/>
      <point x="420" y="630" type="curve" smooth="yes"/>
      <point x="420" y="438"/>
      <point x="523" y="306"/>
      <point x="734" y="306" type="curve" smooth="yes"/>
      <point x="1066" y="306"/>
      <point x="1200" y="622"/>
      <point x="1200" y="851" type="curve" smooth="yes"/>
      <point x="1200" y="1043"/>
      <point x="1098" y="1174"/>
    </contour>
    <contour>
      <point x="35" y="578" type="curve" smooth="yes"/>
      <point x="35" y="1041"/>
      <point x="381" y="1510"/>
      <point x="946" y="1510" type="curve" smooth="yes"/>
      <point x="1348" y="1510"/>
      <point x="1585" y="1266"/>
      <point x="1585" y="903" type="curve" smooth="yes"/>
      <point x="1585" y="441"/>
      <point x="1241" y="-30"/>
      <point x="675" y="-30" type="curve" smooth="yes"/>
      <point x="272" y="-30"/>
      <point x="35" y="215"/>
    </contour>
  </outline>
</glyph>
<glyph name="uni01A2" format="2">
  <advance width="2116"/>
  <unicode hex="01A2"/>
  <outline>
    <contour>
      <point x="1370" y="1368" type="curve"/>
      <point x="1314" y="1052" type="line"/>
      <point x="1620" y="1052"/>
      <point x="1818" y="1158"/>
      <point x="1914" y="1250" type="curve"/>
      <point x="1802" y="1510" type="line"/>
      <point x="1727" y="1458"/>
      <point x="1562" y="1368"/>
    </contour>
    <contour>
      <point x="1458" y="-440" type="line"/>
      <point x="1838" y="-440" type="line"/>
      <point x="2182" y="1510" type="line"/>
      <point x="1802" y="1510" type="line"/>
    </contour>
    <contour>
      <point x="1038" y="360" type="line"/>
      <point x="1418" y="360" type="line"/>
      <point x="1552" y="1120" type="line"/>
      <point x="1172" y="1120" type="line"/>
    </contour>
    <contour>
      <point x="946" y="1510" type="curve" smooth="yes"/>
      <point x="381" y="1510"/>
      <point x="35" y="1041"/>
      <point x="35" y="578" type="curve" smooth="yes"/>
      <point x="35" y="215"/>
      <point x="272" y="-30"/>
      <point x="675" y="-30" type="curve" smooth="yes"/>
      <point x="990" y="-30"/>
      <point x="1256" y="120"/>
      <point x="1418" y="360" type="curve"/>
      <point x="1187" y="550" type="line"/>
      <point x="1110" y="402"/>
      <point x="915" y="306"/>
      <point x="734" y="306" type="curve" smooth="yes"/>
      <point x="523" y="306"/>
      <point x="420" y="438"/>
      <point x="420" y="630" type="curve" smooth="yes"/>
      <point x="420" y="861"/>
      <point x="556" y="1174"/>
      <point x="887" y="1174" type="curve" smooth="yes"/>
      <point x="1068" y="1174"/>
      <point x="1229" y="1078"/>
      <point x="1254" y="930" type="curve"/>
      <point x="1552" y="1120" type="line"/>
      <point x="1474" y="1360"/>
      <point x="1261" y="1510"/>
    </contour>
  </outline>
</glyph>
<glyph name="uni01A4" format="2">
  <advance width="1622"/>
  <unicode hex="01A4"/>
  <outline>
    <contour>
      <point x="409" y="1040" type="curve"/>
      <point x="55" y="1040" type="line"/>
      <point x="56" y="1052"/>
      <point x="58" y="1064"/>
      <point x="60" y="1076" type="curve" smooth="yes"/>
      <point x="104" y="1326"/>
      <point x="315" y="1480"/>
      <point x="565" y="1480" type="curve" smooth="yes"/>
      <point x="577" y="1480"/>
      <point x="589" y="1480"/>
      <point x="601" y="1479" type="curve"/>
      <point x="543" y="1153" type="line"/>
      <point x="533" y="1158"/>
      <point x="522" y="1160"/>
      <point x="509" y="1160" type="curve" smooth="yes"/>
      <point x="459" y="1160"/>
      <point x="418" y="1126"/>
      <point x="409" y="1076" type="curve" smooth="yes"/>
      <point x="407" y="1063"/>
      <point x="405" y="1051"/>
    </contour>
    <contour>
      <point x="1016" y="824" type="line" smooth="yes"/>
      <point x="1070" y="824"/>
      <point x="1239" y="839"/>
      <point x="1239" y="1021" type="curve" smooth="yes"/>
      <point x="1239" y="1105"/>
      <point x="1179" y="1144"/>
      <point x="1073" y="1144" type="curve" smooth="yes"/>
      <point x="886" y="1144" type="line"/>
      <point x="829" y="824" type="line"/>
    </contour>
    <contour>
      <point x="1624" y="1073" type="curve" smooth="yes"/>
      <point x="1624" y="800"/>
      <point x="1398" y="488"/>
      <point x="957" y="488" type="curve" smooth="yes"/>
      <point x="770" y="488" type="line"/>
      <point x="684" y="0" type="line"/>
      <point x="304" y="0" type="line"/>
      <point x="565" y="1480" type="line"/>
      <point x="1132" y="1480" type="line" smooth="yes"/>
      <point x="1473" y="1480"/>
      <point x="1624" y="1292"/>
    </contour>
  </outline>
</glyph>
<glyph name="uni01A5" format="2">
  <advance width="1250"/>
  <unicode hex="01A5"/>
  <outline>
    <contour>
      <point x="420" y="518" type="curve" smooth="yes"/>
      <point x="420" y="388"/>
      <point x="493" y="290"/>
      <point x="630" y="290" type="curve" smooth="yes"/>
      <point x="767" y="290"/>
      <point x="840" y="390"/>
      <point x="840" y="520" type="curve" smooth="yes"/>
      <point x="840" y="650"/>
      <point x="767" y="750"/>
      <point x="630" y="750" type="curve" smooth="yes"/>
      <point x="493" y="750"/>
      <point x="420" y="648"/>
    </contour>
    <contour>
      <point x="70" y="1106" type="line" smooth="yes"/>
      <point x="70" y="1356"/>
      <point x="265" y="1510"/>
      <point x="515" y="1510" type="curve" smooth="yes"/>
      <point x="527" y="1510"/>
      <point x="539" y="1510"/>
      <point x="551" y="1509" type="curve"/>
      <point x="551" y="1183" type="line"/>
      <point x="540" y="1188"/>
      <point x="528" y="1190"/>
      <point x="515" y="1190" type="curve" smooth="yes"/>
      <point x="465" y="1190"/>
      <point x="430" y="1156"/>
      <point x="430" y="1106" type="curve" smooth="yes"/>
      <point x="430" y="1106"/>
      <point x="430" y="960"/>
      <point x="430" y="920" type="curve"/>
      <point x="440" y="959"/>
      <point x="545" y="1070"/>
      <point x="695" y="1070" type="curve" smooth="yes"/>
      <point x="1015" y="1070"/>
      <point x="1200" y="840"/>
      <point x="1200" y="520" type="curve" smooth="yes"/>
      <point x="1200" y="200"/>
      <point x="1015" y="-30"/>
      <point x="695" y="-30" type="curve" smooth="yes"/>
      <point x="545" y="-30"/>
      <point x="440" y="81"/>
      <point x="430" y="120" type="curve"/>
      <point x="430" y="-440" type="line"/>
      <point x="70" y="-440" type="line"/>
      <point x="70" y="520" type="line"/>
    </contour>
  </outline>
</glyph>
<glyph name="uni01A6" format="2">
  <advance width="1293"/>
  <unicode hex="01A6"/>
  <outline>
    <contour>
      <point x="395" y="475" type="line"/>
      <point x="812" y="492" type="line"/>
      <point x="1288" y="-168" type="line"/>
      <point x="848" y="-168" type="line"/>
    </contour>
    <contour>
      <point x="450" y="976" type="line"/>
      <point x="450" y="656" type="line"/>
      <point x="637" y="656" type="line"/>
      <point x="757" y="656"/>
      <point x="828" y="706"/>
      <point x="828" y="816" type="curve" smooth="yes"/>
      <point x="828" y="926"/>
      <point x="757" y="976"/>
      <point x="637" y="976" type="curve"/>
    </contour>
    <contour>
      <point x="70" y="0" type="line"/>
      <point x="70" y="1480" type="line"/>
      <point x="450" y="1480" type="line"/>
      <point x="450" y="1312" type="line"/>
      <point x="637" y="1312" type="line"/>
      <point x="1023" y="1312"/>
      <point x="1208" y="1071"/>
      <point x="1208" y="816" type="curve" smooth="yes"/>
      <point x="1208" y="561"/>
      <point x="1023" y="320"/>
      <point x="637" y="320" type="curve"/>
      <point x="450" y="320" type="line"/>
      <point x="450" y="0" type="line"/>
    </contour>
  </outline>
</glyph>
<glyph name="uni01A7" format="2">
  <advance width="1327"/>
  <unicode hex="01A7"/>
  <anchor x="535" y="0" name="bottom_center"/>
  <anchor x="778" y="1380" name="top_center"/>
  <outline>
    <contour>
      <point x="742" y="1174" type="curve" smooth="yes"/>
      <point x="868" y="1174"/>
      <point x="926" y="1140"/>
      <point x="926" y="1075" type="curve" smooth="yes"/>
      <point x="926" y="1068"/>
      <point x="925" y="1060"/>
      <point x="924" y="1052" type="curve" smooth="yes"/>
      <point x="913" y="992"/>
      <point x="813" y="973"/>
      <point x="702" y="945" type="curve" smooth="yes"/>
      <point x="318" y="847"/>
      <point x="47" y="725"/>
      <point x="-2" y="445" type="curve" smooth="yes"/>
      <point x="-7" y="414"/>
      <point x="-10" y="384"/>
      <point x="-10" y="355" type="curve" smooth="yes"/>
      <point x="-10" y="124"/>
      <point x="165" y="-30"/>
      <point x="530" y="-30" type="curve" smooth="yes"/>
      <point x="835" y="-30"/>
      <point x="1120" y="91"/>
      <point x="1211" y="361" type="curve"/>
      <point x="855" y="461" type="line"/>
      <point x="837" y="361"/>
      <point x="739" y="306"/>
      <point x="589" y="306" type="curve" smooth="yes"/>
      <point x="452" y="306"/>
      <point x="376" y="346"/>
      <point x="376" y="422" type="curve" smooth="yes"/>
      <point x="376" y="429"/>
      <point x="377" y="437"/>
      <point x="378" y="445" type="curve" smooth="yes"/>
      <point x="394" y="535"/>
      <point x="526" y="549"/>
      <point x="637" y="577" type="curve" smooth="yes"/>
      <point x="1001" y="670"/>
      <point x="1258" y="792"/>
      <point x="1304" y="1052" type="curve" smooth="yes"/>
      <point x="1309" y="1079"/>
      <point x="1311" y="1105"/>
      <point x="1311" y="1130" type="curve" smooth="yes"/>
      <point x="1311" y="1350"/>
      <point x="1133" y="1510"/>
      <point x="801" y="1510" type="curve" smooth="yes"/>
      <point x="496" y="1510"/>
      <point x="237" y="1394"/>
      <point x="146" y="1124" type="curve"/>
      <point x="502" y="1024" type="line"/>
      <point x="520" y="1124"/>
      <point x="602" y="1174"/>
    </contour>
  </outline>
</glyph>
<glyph name="uni01AA" format="2">
  <advance width="1309"/>
  <unicode hex="01AA"/>
  <outline>
    <contour>
      <point x="119" y="1129" type="curve" smooth="yes"/>
      <point x="119" y="1349"/>
      <point x="318" y="1510"/>
      <point x="538" y="1510" type="curve" smooth="yes"/>
      <point x="758" y="1510"/>
      <point x="957" y="1349"/>
      <point x="957" y="1129" type="curve" smooth="yes"/>
      <point x="957" y="909"/>
      <point x="758" y="748"/>
      <point x="538" y="748" type="curve" smooth="yes"/>
      <point x="318" y="748"/>
      <point x="119" y="909"/>
    </contour>
    <contour>
      <point x="499" y="1129" type="curve" smooth="yes"/>
      <point x="499" y="1103"/>
      <point x="512" y="1084"/>
      <point x="538" y="1084" type="curve" smooth="yes"/>
      <point x="564" y="1084"/>
      <point x="577" y="1103"/>
      <point x="577" y="1129" type="curve" smooth="yes"/>
      <point x="577" y="1155"/>
      <point x="564" y="1174"/>
      <point x="538" y="1174" type="curve" smooth="yes"/>
      <point x="512" y="1174"/>
      <point x="499" y="1155"/>
    </contour>
    <contour>
      <point x="834" y="430" type="line"/>
      <point x="831" y="415"/>
      <point x="830" y="401"/>
      <point x="830" y="388" type="curve" smooth="yes"/>
      <point x="830" y="319"/>
      <point x="871" y="290"/>
      <point x="947" y="290" type="curve" smooth="yes"/>
      <point x="1007" y="290"/>
      <point x="1086" y="313"/>
      <point x="1124" y="345" type="curve"/>
      <point x="1158" y="22" type="line"/>
      <point x="1098" y="-2"/>
      <point x="1008" y="-30"/>
      <point x="887" y="-30" type="curve" smooth="yes"/>
      <point x="578" y="-30"/>
      <point x="446" y="110"/>
      <point x="446" y="327" type="curve" smooth="yes"/>
      <point x="446" y="363"/>
      <point x="449" y="401"/>
      <point x="456" y="440" type="curve"/>
      <point x="531" y="869" type="line"/>
      <point x="951" y="1064" type="line"/>
    </contour>
  </outline>
</glyph>
<glyph name="uni01AB" format="2">
  <advance width="1058"/>
  <unicode hex="01AB"/>
  <outline>
    <contour>
      <point x="817" y="0" type="line"/>
      <point x="773" y="-250"/>
      <point x="551" y="-404"/>
      <point x="301" y="-404" type="curve" smooth="yes"/>
      <point x="289" y="-404"/>
      <point x="277" y="-404"/>
      <point x="265" y="-403" type="curve"/>
      <point x="322" y="-77" type="line"/>
      <point x="332" y="-82"/>
      <point x="344" y="-84"/>
      <point x="357" y="-84" type="curve" smooth="yes"/>
      <point x="407" y="-84"/>
      <point x="448" y="-50"/>
      <point x="457" y="0" type="curve"/>
    </contour>
    <contour>
      <point x="148" y="1028" type="line"/>
      <point x="268" y="1028"/>
      <point x="366" y="1106"/>
      <point x="387" y="1226" type="curve"/>
      <point x="404" y="1320" type="line"/>
      <point x="740" y="1320" type="line"/>
      <point x="690" y="1040" type="line"/>
      <point x="995" y="1040" type="line"/>
      <point x="939" y="720" type="line"/>
      <point x="634" y="720" type="line"/>
      <point x="585" y="440" type="line" smooth="yes"/>
      <point x="582.134" y="424.077"/>
      <point x="580.713" y="409.422"/>
      <point x="580.713" y="396.034" type="curve" smooth="yes"/>
      <point x="580.713" y="325.345"/>
      <point x="620.331" y="290"/>
      <point x="696" y="290" type="curve" smooth="yes"/>
      <point x="756" y="290"/>
      <point x="835" y="313"/>
      <point x="873" y="345" type="curve"/>
      <point x="907" y="22" type="line"/>
      <point x="847" y="-2"/>
      <point x="757" y="-30"/>
      <point x="636" y="-30" type="curve" smooth="yes"/>
      <point x="331.955" y="-30"/>
      <point x="213.367" y="105.526"/>
      <point x="213.367" y="316.336" type="curve" smooth="yes"/>
      <point x="213.367" y="355.133"/>
      <point x="217.384" y="396.479"/>
      <point x="225" y="440" type="curve" smooth="yes"/>
      <point x="274" y="720" type="line"/>
      <point x="22" y="720" type="line"/>
      <point x="76" y="1028" type="line"/>
    </contour>
  </outline>
</glyph>
